<svg width="700" height="837" viewBox="0 0 700 837" fill="none" xmlns="http://www.w3.org/2000/svg">
<path opacity="0.824" fill-rule="evenodd" clip-rule="evenodd" d="M323.312 168.225C327.104 168.225 330.896 168.225 334.688 168.225C335.999 186.549 337.166 204.884 338.188 223.231C335.229 223.194 332.313 223.499 329.438 224.147C327.843 205.447 325.802 186.807 323.312 168.225Z" fill="#A4B1CD"/>
<path opacity="0.86" fill-rule="evenodd" clip-rule="evenodd" d="M349.562 168.225C356.271 168.225 362.979 168.225 369.688 168.225C369.686 174.661 369.394 181.078 368.812 187.477C362.426 186.698 356.01 186.392 349.562 186.56C349.562 180.448 349.562 174.337 349.562 168.225Z" fill="#55ABE0"/>
<path opacity="0.819" fill-rule="evenodd" clip-rule="evenodd" d="M301.437 171.892C302.896 171.892 304.354 171.892 305.812 171.892C308.74 190.275 311.948 208.61 315.437 226.898C313.217 226.904 311.029 227.21 308.875 227.814C307.715 227.581 306.84 226.969 306.25 225.981C302.173 208.59 298.236 191.172 294.438 173.726C296.999 173.666 299.333 173.055 301.437 171.892Z" fill="#55ABE0"/>
<path opacity="0.01" fill-rule="evenodd" clip-rule="evenodd" d="M428.313 180.143C427.729 178.921 427.729 178.921 428.313 180.143Z" fill="#A4B1CD"/>
<path opacity="0.943" fill-rule="evenodd" clip-rule="evenodd" d="M428.312 180.143C466.474 192.177 499.724 212.651 528.062 241.566C528.177 242.243 528.031 242.855 527.625 243.399C515.613 256.139 503.508 268.667 491.312 280.986C450.289 241.347 401.581 221.789 345.188 222.314C344.631 211.934 344.34 201.544 344.312 191.144C398.851 190.228 447.851 206.73 491.312 240.649C494.03 238.853 494.323 236.866 492.188 234.69C471.332 218.264 448.29 206.194 423.062 198.478C424.002 192.089 425.752 185.977 428.312 180.143Z" fill="#A4B1CD"/>
<path opacity="0.792" fill-rule="evenodd" clip-rule="evenodd" d="M318.062 193.894C319.812 193.894 321.562 193.894 323.312 193.894C323.908 203.134 325.074 212.302 326.812 221.397C326.751 222.563 326.46 223.632 325.938 224.606C323.667 224.813 321.479 225.271 319.375 225.981C316.725 216.368 314.537 206.589 312.812 196.645C314.372 195.284 316.122 194.367 318.062 193.894Z" fill="#55ABE0"/>
<path opacity="0.795" fill-rule="evenodd" clip-rule="evenodd" d="M292.688 199.395C294.146 199.395 295.604 199.395 297.062 199.395C299.258 209.513 301.592 219.597 304.062 229.648C301.189 229.852 298.418 230.464 295.75 231.481C292.778 221.929 290.007 212.303 287.438 202.603C288.945 201 290.695 199.93 292.688 199.395Z" fill="#A4B1CD"/>
<path opacity="0.931" fill-rule="evenodd" clip-rule="evenodd" d="M273.438 205.812C274.896 205.812 276.354 205.812 277.812 205.812C280.758 215.22 283.966 224.541 287.438 233.773C268.368 241.317 250.576 251.249 234.062 263.568C228.528 257.002 223.132 250.28 217.875 243.399C216.747 241.974 216.163 240.446 216.125 238.815C234.077 225.67 253.181 214.669 273.438 205.812Z" fill="#55ABE0"/>
<path opacity="0.944" fill-rule="evenodd" clip-rule="evenodd" d="M190.312 228.731C192.549 229.687 194.445 231.216 196 233.315C205.899 245.674 215.961 257.897 226.188 269.985C204.957 289.014 188.185 311.628 175.875 337.825C174.294 341.727 172.981 345.699 171.938 349.743C155.149 342.963 138.232 336.545 121.188 330.491C124.605 320.272 128.98 310.493 134.312 301.155C141.131 304.574 147.839 308.242 154.438 312.156C156.576 309.06 158.618 305.852 160.562 302.53C155.414 300.174 150.748 297.118 146.562 293.363C151.117 284.922 156.367 276.976 162.312 269.527C163.188 268.915 164.062 268.915 164.938 269.527C168.603 272.91 172.394 276.118 176.312 279.153C179.975 275.164 183.475 271.039 186.812 266.777C180.95 261.548 175.408 256.048 170.188 250.275C176.475 242.617 183.184 235.436 190.312 228.731Z" fill="#A4B1CD"/>
<path opacity="0.887" fill-rule="evenodd" clip-rule="evenodd" d="M528.062 241.566C530.995 243.733 533.62 246.33 535.937 249.358C523.122 261.56 510.289 273.784 497.437 286.028C496.444 286.715 495.569 286.563 494.812 285.57C493.319 284.311 492.152 282.784 491.312 280.986C503.508 268.667 515.613 256.138 527.625 243.399C528.031 242.855 528.177 242.243 528.062 241.566Z" fill="#55ABE0"/>
<path opacity="0.838" fill-rule="evenodd" clip-rule="evenodd" d="M547.312 264.485C549.859 266.079 552.046 268.218 553.875 270.902C554.474 272.079 554.327 273.149 553.438 274.111C539.558 284.526 525.558 294.763 511.438 304.822C509.702 303.463 508.099 301.935 506.625 300.238C507.37 297.574 508.974 295.282 511.438 293.363C523.558 283.861 535.517 274.235 547.312 264.485Z" fill="#A4B1CD"/>
<path fill-rule="evenodd" clip-rule="evenodd" d="M354.813 265.401C354.813 276.402 354.813 287.404 354.813 298.405C353.137 298.144 351.679 298.45 350.438 299.321C346.431 299.427 342.64 300.344 339.063 302.072C327.051 307.628 318.593 316.796 313.688 329.574C312.442 331.422 311.859 333.561 311.938 335.992C311.066 350.805 310.774 365.778 311.063 380.913C325.646 380.913 340.229 380.913 354.813 380.913C354.813 396.803 354.813 412.694 354.813 428.584C340.326 430.469 333.764 439.026 335.125 454.254C336.814 459.325 339.584 463.604 343.438 467.088C340.57 479.098 339.258 491.321 339.5 503.758C340.521 506.05 342.125 507.731 344.313 508.801C347.8 509.258 351.3 509.411 354.813 509.259C354.813 525.149 354.813 541.04 354.813 556.93C324.771 556.93 294.729 556.93 264.688 556.93C250.463 552.264 240.984 542.486 236.25 527.594C234.962 490.044 234.525 452.457 234.938 414.833C238.714 398.043 248.339 386.736 263.813 380.913C268.188 380.913 272.563 380.913 276.938 380.913C276.791 365.631 276.938 350.351 277.375 335.075C278.63 327.111 280.817 319.471 283.938 312.156C293.026 294.383 306.151 280.938 323.313 271.819C333.455 267.768 343.955 265.629 354.813 265.401Z" fill="#A4B1CD"/>
<path fill-rule="evenodd" clip-rule="evenodd" d="M354.812 265.401C358.615 265.249 362.407 265.402 366.187 265.86C401.3 273.314 423.321 295.163 432.25 331.408C433.489 347.871 433.926 364.373 433.562 380.913C455.862 380.292 469.716 391.293 475.125 413.916C475.709 450.281 475.709 486.645 475.125 523.01C473.575 532.352 469.638 540.298 463.312 546.846C457.012 552.436 449.72 555.797 441.437 556.93C412.562 556.93 383.687 556.93 354.812 556.93C354.812 541.04 354.812 525.149 354.812 509.259C367.492 511.407 372.597 505.906 370.125 492.757C369.43 483.998 368.41 475.289 367.062 466.63C375.494 458.253 377.099 448.627 371.875 437.752C367.428 432.138 361.741 429.081 354.812 428.584C354.812 412.694 354.812 396.803 354.812 380.913C369.687 380.913 384.562 380.913 399.437 380.913C399.726 366.695 399.434 352.638 398.562 338.742C395.335 319.011 384.543 306.329 366.187 300.697C360.994 299.561 355.744 299.102 350.438 299.321C351.679 298.45 353.137 298.144 354.812 298.405C354.812 287.404 354.812 276.403 354.812 265.401Z" fill="#55ABE0"/>
<path opacity="0.804" fill-rule="evenodd" clip-rule="evenodd" d="M519.312 269.068C522.409 270.775 525.034 273.22 527.187 276.403C519.577 283.342 511.702 289.607 503.562 295.196C501.793 293.342 500.043 291.509 498.312 289.696C505.466 282.963 512.466 276.087 519.312 269.068Z" fill="#55ABE0"/>
<path opacity="0.91" fill-rule="evenodd" clip-rule="evenodd" d="M558.687 280.986C565.055 288.774 570.305 297.483 574.437 307.114C565.507 313.248 556.028 318.596 546 323.157C545.324 323.024 544.741 322.719 544.25 322.24C540.417 314.665 536.48 307.178 532.438 299.78C541.068 293.277 549.818 287.013 558.687 280.986Z" fill="#55ABE0"/>
<path fill-rule="evenodd" clip-rule="evenodd" d="M313.688 329.574C313.766 332.006 313.184 334.144 311.938 335.992C311.859 333.56 312.442 331.422 313.688 329.574Z" fill="#A4B1CD"/>
<path opacity="0.89" fill-rule="evenodd" clip-rule="evenodd" d="M585.812 335.992C586.941 336.503 587.67 337.42 588 338.742C593.148 354.254 596.795 370.144 598.937 386.414C593.372 387.105 587.83 388.022 582.312 389.164C581.309 388.872 580.579 388.262 580.125 387.33C578.28 372.567 574.925 358.205 570.062 344.243C570.157 343.379 570.448 342.615 570.937 341.951C575.982 339.908 580.94 337.922 585.812 335.992Z" fill="#A4B1CD"/>
<path opacity="0.92" fill-rule="evenodd" clip-rule="evenodd" d="M560.437 338.742C561.466 338.541 562.341 338.847 563.062 339.659C570.109 357.932 574.484 376.877 576.187 396.498C566.271 397.415 556.354 398.331 546.437 399.248C544.568 382.418 540.484 366.223 534.188 350.66C542.923 346.689 551.673 342.716 560.437 338.742Z" fill="#55ABE0"/>
<path opacity="0.799" fill-rule="evenodd" clip-rule="evenodd" d="M140.438 345.159C149.718 348.4 159.051 351.457 168.438 354.327C168.616 357.737 167.741 360.793 165.812 363.495C156.539 360.455 147.207 357.705 137.812 355.244C138.51 351.831 139.385 348.469 140.438 345.159Z" fill="#55ABE0"/>
<path opacity="0.797" fill-rule="evenodd" clip-rule="evenodd" d="M136.063 357.994C145.98 360.744 155.896 363.495 165.813 366.245C165.098 368.976 164.368 371.726 163.625 374.496C163.263 374.915 162.825 375.221 162.313 375.412C153.662 372.713 144.912 370.422 136.063 368.537C135.251 368.181 134.667 367.569 134.312 366.703C135.513 363.929 136.096 361.026 136.063 357.994Z" fill="#55ABE0"/>
<path opacity="0.795" fill-rule="evenodd" clip-rule="evenodd" d="M133.438 371.745C143.019 373.814 152.644 375.648 162.313 377.246C162.211 380.326 161.92 383.382 161.438 386.413C151.476 385.185 141.559 383.658 131.688 381.83C131.615 378.314 132.198 374.952 133.438 371.745Z" fill="#A4B1CD"/>
<path fill-rule="evenodd" clip-rule="evenodd" d="M311.938 335.992C311.938 336.909 311.938 337.825 311.938 338.742C311.938 352.493 311.938 366.245 311.938 379.996C326.229 379.996 340.521 379.996 354.813 379.996C354.813 380.301 354.813 380.608 354.813 380.913C340.229 380.913 325.646 380.913 311.063 380.913C310.774 365.778 311.066 350.805 311.938 335.992Z" fill="#A4B1CD"/>
<path fill-rule="evenodd" clip-rule="evenodd" d="M398.562 338.742C399.434 352.638 399.726 366.695 399.438 380.913C384.562 380.913 369.688 380.913 354.812 380.913C354.812 380.608 354.812 380.301 354.812 379.996C369.396 379.996 383.979 379.996 398.562 379.996C398.562 366.245 398.562 352.493 398.562 338.742Z" fill="#55ABE0"/>
<path opacity="0.785" fill-rule="evenodd" clip-rule="evenodd" d="M130.812 384.58C140.406 386.387 150.031 388.068 159.688 389.622C159.933 392.388 159.933 395.29 159.688 398.331C149.43 397.511 139.221 396.288 129.062 394.664C129.486 391.243 130.07 387.881 130.812 384.58Z" fill="#55ABE0"/>
<path opacity="0.793" fill-rule="evenodd" clip-rule="evenodd" d="M129.063 398.331C138.977 399.248 148.894 400.165 158.813 401.082C158.813 404.137 158.813 407.194 158.813 410.249C148.592 409.828 138.384 409.217 128.188 408.416C128.384 405.043 128.676 401.681 129.063 398.331Z" fill="#A4B1CD"/>
<path opacity="0.942" fill-rule="evenodd" clip-rule="evenodd" d="M566.562 409.332C570.354 409.332 574.146 409.332 577.938 409.332C579.977 469.692 562.915 523.169 526.75 569.765C523.047 574.495 518.963 578.773 514.5 582.6C507.195 575.708 500.049 568.68 493.062 561.514C531.168 519.539 549.397 469.422 547.75 411.166C554.108 410.569 560.378 409.958 566.562 409.332Z" fill="#A4B1CD"/>
<path opacity="0.823" fill-rule="evenodd" clip-rule="evenodd" d="M128.188 412.083C138.088 412.811 148.005 413.116 157.938 412.999C157.938 416.055 157.938 419.111 157.938 422.167C147.729 422.167 137.521 422.167 127.312 422.167C127.85 418.835 128.142 415.473 128.188 412.083Z" fill="#55ABE0"/>
<path opacity="0.812" fill-rule="evenodd" clip-rule="evenodd" d="M150.938 424.917C153.271 424.917 155.604 424.917 157.938 424.917C157.938 427.973 157.938 431.029 157.938 434.085C148.047 434.939 138.131 435.551 128.188 435.918C128.188 432.557 128.188 429.196 128.188 425.834C135.93 426.133 143.514 425.828 150.938 424.917Z" fill="#A4B1CD"/>
<path opacity="0.912" fill-rule="evenodd" clip-rule="evenodd" d="M583.188 429.501C589.021 429.501 594.854 429.501 600.688 429.501C599.542 487.825 581.167 539.164 545.562 583.516C540.705 579.601 536.039 575.476 531.562 571.14C563.47 530.004 580.678 482.791 583.188 429.501Z" fill="#55ABE0"/>
<path opacity="0.937" fill-rule="evenodd" clip-rule="evenodd" d="M156.188 445.086C157.344 444.93 158.366 445.235 159.25 446.003C167.231 503.792 193.336 550.089 237.563 584.892C227.805 598.786 218.034 612.69 208.25 626.604C207.518 627.986 206.497 628.444 205.188 627.979C162.626 595.204 132.73 552.575 115.5 500.091C115.065 497.974 114.92 495.835 115.063 493.674C120.601 492.644 125.997 491.116 131.25 489.09C144.031 529.966 165.323 565.108 195.125 594.518C196.309 593.431 197.33 592.208 198.188 590.851C159.174 552.189 136.132 504.824 129.063 448.753C138.286 448.026 147.327 446.803 156.188 445.086Z" fill="#A4B1CD"/>
<path opacity="0.942" fill-rule="evenodd" clip-rule="evenodd" d="M474.688 578.016C476.015 578.026 477.036 578.637 477.75 579.849C488.396 593.448 499.041 607.047 509.688 620.645C502.297 627.164 494.422 632.971 486.062 638.064C485.069 638.75 484.194 638.598 483.438 637.605C479.5 631.188 475.562 624.771 471.625 618.353C432.141 643.923 389.121 655.688 342.562 653.648C335.229 653.234 327.938 652.47 320.688 651.357C321.569 641.234 322.735 631.149 324.188 621.103C378.57 627.715 427.861 614.422 472.062 581.225C473.121 580.272 473.996 579.202 474.688 578.016Z" fill="#55ABE0"/>
<path opacity="0.832" fill-rule="evenodd" clip-rule="evenodd" d="M242.812 589.017C245.32 590.171 247.945 591.088 250.687 591.767C242.112 608.511 232.632 624.706 222.25 640.355C219.666 639.025 217.186 637.497 214.812 635.772C213.865 634.979 213.72 634.062 214.375 633.021C224.413 618.696 233.892 604.028 242.812 589.017Z" fill="#55ABE0"/>
<path opacity="0.804" fill-rule="evenodd" clip-rule="evenodd" d="M253.313 595.434C256.162 596.316 258.787 597.691 261.188 599.56C256.743 608.265 252.075 616.821 247.188 625.229C244.402 624.419 241.485 623.655 238.438 622.937C242.926 613.537 247.884 604.369 253.313 595.434Z" fill="#55ABE0"/>
<path opacity="0.831" fill-rule="evenodd" clip-rule="evenodd" d="M262.938 600.935C266.046 601.341 268.671 602.716 270.813 605.06C263.798 622.05 256.214 638.704 248.063 655.024C245.315 653.276 242.399 652.053 239.312 651.357C246.958 634.419 254.833 617.611 262.938 600.935Z" fill="#55ABE0"/>
<path opacity="0.788" fill-rule="evenodd" clip-rule="evenodd" d="M273.438 606.435C276.392 606.856 279.31 607.468 282.188 608.269C279.039 617.854 275.539 627.326 271.688 636.688C271.25 636.994 270.812 637.3 270.375 637.605C267.732 636.224 264.961 635.307 262.062 634.855C266.022 625.467 269.814 615.994 273.438 606.435Z" fill="#55ABE0"/>
<path opacity="0.801" fill-rule="evenodd" clip-rule="evenodd" d="M284.812 610.102C287.774 610.875 290.399 612.25 292.688 614.228C289.435 623.378 286.81 632.699 284.812 642.189C281.036 642.147 277.827 640.772 275.188 638.064C277.97 628.552 281.178 619.232 284.812 610.102Z" fill="#55ABE0"/>
<path opacity="0.819" fill-rule="evenodd" clip-rule="evenodd" d="M295.312 613.769C298.137 614.728 301.053 615.339 304.062 615.603C300.109 633.075 295.88 650.494 291.375 667.858C290.641 668.889 289.62 669.5 288.312 669.692C285.677 669.076 283.052 668.464 280.438 667.858C285.576 649.872 290.535 631.843 295.312 613.769Z" fill="#55ABE0"/>
<path opacity="0.79" fill-rule="evenodd" clip-rule="evenodd" d="M306.688 617.436C309.604 617.742 312.521 618.048 315.438 618.353C313.912 628.483 312.162 638.568 310.188 648.606C306.952 648.558 303.743 648.252 300.562 647.689C302.268 637.532 304.31 627.447 306.688 617.436Z" fill="#55ABE0"/>
<path opacity="0.887" fill-rule="evenodd" clip-rule="evenodd" d="M463.312 629.354C465.756 629.31 467.359 630.532 468.125 633.021C469.653 636.53 471.403 639.891 473.375 643.106C473.959 644.022 473.959 644.939 473.375 645.856C461.581 653.023 449.185 658.371 436.188 661.899C433.898 656.491 431.856 650.991 430.062 645.398C441.599 640.821 452.682 635.473 463.312 629.354Z" fill="#55ABE0"/>
<path opacity="0.879" fill-rule="evenodd" clip-rule="evenodd" d="M417.813 648.606C418.688 648.606 419.563 648.606 420.438 648.606C421.802 653.967 423.26 659.314 424.813 664.65C424.738 665.664 424.446 666.581 423.938 667.4C410.951 671.031 397.826 673.935 384.563 676.109C383.736 670.145 382.861 664.186 381.938 658.232C382.064 657.525 382.356 656.913 382.813 656.399C394.815 654.869 406.482 652.272 417.813 648.606Z" fill="#A4B1CD"/>
<path opacity="0.917" fill-rule="evenodd" clip-rule="evenodd" d="M334.688 657.774C347.517 658.934 360.35 658.934 373.188 657.774C374.059 664.154 374.643 670.571 374.938 677.026C361.229 677.026 347.521 677.026 333.812 677.026C333.881 670.595 334.172 664.177 334.688 657.774Z" fill="#55ABE0"/>
</svg>
