<svg width="233" height="50" viewBox="0 0 233 50" fill="none" xmlns="http://www.w3.org/2000/svg">
<path d="M7.26219 1.31987C3.26146 2.91141 2.47871 4.84055 2.26128 13.7628C2.08733 20.7559 2.08733 20.8041 1.04367 21.0935C0.0434861 21.3829 0 21.624 0 24.9518C0 28.2313 0.0869723 28.5207 1.08715 29.003C2.17431 29.5335 2.17431 29.6781 2.17431 35.2244C2.21779 41.5423 2.56568 44.0984 3.82678 45.9311C5.26182 48.1014 7.2187 49.0177 10.915 49.2589L14.3504 49.5V45.5453V41.6388H12.0022C10.2627 41.6388 9.61044 41.4459 9.39301 40.8671C9.26255 40.4331 9.13209 37.3465 9.13209 34.0187C9.0886 30.1122 8.87117 27.3632 8.52328 26.4468C8.08842 25.2411 8.08842 24.7106 8.56677 23.4567C8.91466 22.4439 9.13209 19.7913 9.13209 15.6919C9.13209 11.5443 9.30603 9.32578 9.65392 8.93996C9.95833 8.60236 11.1325 8.36121 12.2631 8.36121H14.3504V4.50294V0.64468H11.6543C10.1323 0.692905 8.17539 0.982277 7.26219 1.31987ZM12.611 4.50294C12.611 6.14271 12.4805 6.43208 11.7413 6.43208C11.2629 6.43208 10.1758 6.72145 9.39301 7.10728L7.91448 7.78247L7.74053 14.7274C7.61007 20.1289 7.43613 22.0098 6.82732 23.4085C6.04457 25.0965 6.04457 25.1929 6.82732 26.4951C7.47962 27.6043 7.65356 29.1476 7.82751 34.9833C8.04494 42.8927 8.04494 42.7963 10.9585 43.3268C12.524 43.6161 12.611 43.7126 12.611 45.5453V47.4262H10.5671C7.82751 47.4262 5.60971 46.1722 4.6965 44.0502C4.04421 42.6998 3.91375 41.06 3.91375 35.7067C3.91375 29.2441 3.87027 29.003 2.8266 27.9419C1.34807 26.3986 1.34807 23.7943 2.8266 22.1545C3.87027 20.997 3.91375 20.7559 3.91375 14.2933C3.91375 8.93996 4.04421 7.30019 4.6965 5.9498C5.60971 3.82775 7.82751 2.57381 10.5671 2.57381H12.611V4.50294Z" fill="#55ABE0"/>
<path d="M30.0054 4.4065V8.31299L32.3101 8.45768L34.5714 8.60236L34.7888 15.5955C34.9628 19.936 35.2672 23.0709 35.6151 23.8425C36.0934 24.9035 36.0934 25.2894 35.6151 26.2539C35.2237 27.0256 34.9193 29.8228 34.7888 34.4045L34.5714 41.3976L32.3101 41.5423L30.0054 41.687V45.5935V49.5L33.4843 49.2106C37.7024 48.9213 39.7463 47.7156 40.9204 44.8219C41.5727 43.1821 41.7466 41.6388 41.7466 36.189C41.7466 29.5817 41.7466 29.5817 42.8338 29.003C43.834 28.5207 43.9209 28.2313 43.9209 25C43.9209 21.7687 43.834 21.4793 42.8338 20.997C41.7466 20.4183 41.7466 20.4183 41.7466 13.811C41.7466 8.36122 41.5727 6.81791 40.9204 5.17815C39.7463 2.28445 37.7024 1.07874 33.4843 0.789371L30.0054 0.5V4.4065ZM36.9632 3.29725C39.7028 4.84055 40.0072 5.90158 40.0072 13.2323C40.0072 20.1772 40.3986 22.1063 41.8336 22.5886C43.1817 23.1191 42.8773 26.3022 41.3118 28.0384L40.0072 29.4852V36.3337C40.0072 41.8317 39.8767 43.4232 39.3114 44.5325C38.3547 46.2687 36.1369 47.4262 33.7017 47.4262H31.7448V45.5453C31.7448 43.7126 31.7883 43.6644 33.4843 43.3268C36.2239 42.7963 36.5283 41.9281 36.5283 34.6457C36.5283 29.6299 36.7022 28.0384 37.311 26.688C38.0068 25.0965 38.0068 24.9035 37.311 23.312C36.6588 22.0098 36.5283 20.4183 36.5283 15.3543C36.5283 8.02362 36.1804 7.10728 33.4408 6.625C31.7883 6.33563 31.7448 6.23917 31.7448 4.45472V2.57382H33.7017C34.8323 2.57382 36.2674 2.91142 36.9632 3.29725Z" fill="#55ABE0"/>
<path d="M16.9595 13.184V18.9715H22.1778H27.4396L27.3092 13.2805L27.1787 7.63779L22.0908 7.4931L16.9595 7.34842V13.184ZM25.6567 13.184V17.0423H22.1778H18.6989V13.184V9.32578H22.1778H25.6567V13.184Z" fill="#55ABE0"/>
<path d="M217.431 21.0453C217.431 30.691 217.909 32.813 220.605 34.7904C222.084 35.8996 222.866 36.0925 225.302 36.0925C227.911 36.0925 228.389 35.9478 229.911 34.5975C233.651 31.2215 234.042 25.9163 230.824 22.0581C228.041 18.7303 224.084 18.248 220.866 20.8524C220.17 21.4311 219.518 21.8652 219.388 21.8652C219.257 21.8652 219.17 19.8878 219.17 17.5246C219.17 13.5217 219.127 13.1841 218.3 13.1841C217.474 13.1841 217.431 13.5217 217.431 21.0453ZM228.259 22.251C230.085 23.7461 230.955 25.4341 230.998 27.4597C231.042 31.2215 229.041 33.7776 225.65 34.2599C223.127 34.6457 221.17 33.44 219.996 30.691C218.431 27.0738 219.561 23.4567 222.866 21.7687C224.823 20.7559 226.65 20.9488 228.259 22.251Z" fill="#EAEAEA"/>
<path d="M112.629 25C112.629 35.9961 112.672 36.3337 113.499 36.3337C114.281 36.3337 114.368 35.9961 114.368 32.813C114.368 29.9193 114.542 29.0994 115.195 28.4242C115.977 27.6526 116.108 27.7972 118.934 31.9931C121.5 35.8031 122.022 36.3337 123.153 36.3337C124.675 36.3337 124.935 36.8642 120.587 30.3533L117.891 26.2539L120.978 23.1191L124.109 19.936H122.674C121.5 19.936 120.587 20.5148 118.065 23.0709C116.325 24.8071 114.76 26.2057 114.629 26.2057C114.499 26.2057 114.368 23.3602 114.368 19.936C114.368 14.0039 114.325 13.6663 113.499 13.6663C112.672 13.6663 112.629 14.0039 112.629 25Z" fill="#EAEAEA"/>
<path d="M138.721 25C138.721 35.996 138.764 36.3336 139.59 36.3336C140.417 36.3336 140.46 35.996 140.46 31.4626C140.46 27.3632 140.591 26.3021 141.373 24.7588C143.069 21.4311 146.635 20.563 148.549 23.0226C149.505 24.2283 149.592 24.7106 149.592 30.3533V36.3336H150.723H151.897L151.68 30.0639C151.462 22.9744 151.027 21.8651 148.157 20.2736C146.113 19.1643 143.896 19.5984 141.939 21.4793L140.46 22.9262V18.2962C140.46 14.0039 140.417 13.6663 139.59 13.6663C138.764 13.6663 138.721 14.0039 138.721 25Z" fill="#EAEAEA"/>
<path d="M56.5308 25.2411V36.3336H57.6179H58.7051V31.0285V25.7234H63.9234H69.1417V31.0285C69.1417 35.996 69.1852 36.3336 70.0115 36.3336C70.8377 36.3336 70.8812 35.996 70.8812 25.2411C70.8812 14.4862 70.8377 14.1486 70.0115 14.1486C69.1852 14.1486 69.1417 14.4862 69.1417 18.7303V23.312H63.9234H58.7051V18.7303C58.7051 14.1486 58.7051 14.1486 57.6179 14.1486H56.5308V25.2411Z" fill="#EAEAEA"/>
<path d="M124.806 15.0649C124.806 15.8848 125.154 16.0295 127.111 16.1742L129.372 16.3189L129.503 26.3021C129.59 35.8996 129.633 36.3336 130.459 36.3336C131.286 36.3336 131.329 35.8996 131.416 26.3021L131.547 16.3189L133.851 16.1742C135.765 16.0295 136.113 15.8848 136.113 15.0649C136.113 14.1968 135.765 14.1486 130.459 14.1486C125.154 14.1486 124.806 14.1968 124.806 15.0649Z" fill="#EAEAEA"/>
<path d="M173.205 14.4862C173.335 14.7273 174.64 19.6949 176.119 25.5787C177.597 31.5108 178.945 36.3336 179.119 36.3336C179.25 36.3336 180.641 32.813 182.163 28.4724C183.685 24.1801 185.077 20.4665 185.251 20.2736C185.381 20.0807 186.816 23.5049 188.338 27.9419C189.904 32.3307 191.339 35.9478 191.513 35.996C191.817 36.0925 197.383 15.8366 197.427 14.4862C197.427 14.2933 196.992 14.1486 196.427 14.1486C195.557 14.1486 195.296 14.8238 193.513 21.8651C192.426 26.1092 191.426 29.5817 191.295 29.5817C191.165 29.5817 189.817 26.1092 188.295 21.8169C186.773 17.5728 185.425 14.2451 185.207 14.4862C185.033 14.6791 183.685 18.248 182.207 22.3474C180.728 26.4468 179.467 29.871 179.423 29.9675C179.336 30.0157 178.554 27.2185 177.684 23.6978C175.162 13.7145 175.336 14.1486 174.118 14.1486C173.509 14.1486 173.118 14.2933 173.205 14.4862Z" fill="#EAEAEA"/>
<path d="M79.7965 19.8395C74.0998 22.7815 73.3171 30.8838 78.318 35.0315C80.6228 36.9124 85.4497 36.5748 87.1892 34.4045C88.2763 33.0541 88.7112 33.1988 88.7112 34.8868C88.7112 35.996 88.8851 36.3336 89.5809 36.3336C90.4071 36.3336 90.4506 35.996 90.4506 31.1732C90.4506 26.9291 90.2767 25.6752 89.5374 23.8907C87.7545 19.8878 83.3189 18.0069 79.7965 19.8395ZM86.276 22.8779C88.4937 25 88.7982 27.7972 87.1892 30.8356C85.4497 34.1151 82.6666 35.2244 79.9705 33.6811C76.1437 31.4626 75.9697 24.8553 79.7095 22.3474C81.8839 20.8523 84.4495 21.0935 86.276 22.8779Z" fill="#EAEAEA"/>
<path d="M99.453 19.5502C95.7567 20.6594 93.0605 25.3858 93.7128 29.5817C94.0607 31.8002 96.235 34.7903 98.1049 35.6585C101.279 37.1535 107.107 35.8514 108.281 33.4399C108.976 31.9449 107.15 31.6555 105.845 33.0059C104.454 34.4527 100.714 34.8386 98.7572 33.7293C96.8003 32.5718 95.6697 30.3051 95.6697 27.4596C95.6697 25.3858 95.8436 24.9035 97.3657 23.2638C98.9312 21.5275 99.1921 21.3829 101.627 21.3829C103.628 21.3829 104.497 21.624 105.758 22.5886C107.889 24.2283 109.759 23.5049 107.976 21.7687C105.715 19.5984 102.236 18.6821 99.453 19.5502Z" fill="#EAEAEA"/>
<path d="M160.334 19.6467C156.986 20.9971 155.203 23.8908 155.203 27.8937C155.203 30.9803 156.029 32.9577 158.16 34.7421C159.551 35.9478 160.117 36.0925 162.9 36.0925C166.379 36.0925 167.901 35.2726 169.162 32.7648C169.727 31.6073 169.727 31.4144 169.162 31.0286C168.683 30.691 168.292 30.8839 167.683 31.752C166.074 34.2116 162.465 35.1762 160.03 33.7776C158.768 33.0541 156.986 30.3051 156.986 29.0512C156.986 28.1831 157.464 28.1349 163.769 28.1349H170.553L170.249 26.3022C169.423 21.1417 164.596 17.9104 160.334 19.6467ZM166.074 22.2992C166.857 22.7815 168.292 25.1447 168.292 25.9646C168.292 26.1093 165.857 26.2057 162.856 26.2057C156.768 26.2057 156.464 25.9646 158.638 23.2638C160.464 20.9971 163.248 20.6595 166.074 22.2992Z" fill="#EAEAEA"/>
<path d="M204.254 19.5502C199.166 21.0452 197.079 28.8582 200.602 33.2952C202.297 35.4173 204.167 36.3336 206.82 36.3336C209.255 36.3336 211.777 34.8868 212.821 32.9094C213.473 31.6555 213.517 31.4626 212.908 31.2214C212.473 31.0285 211.56 31.559 210.473 32.6683C208.994 34.1634 208.429 34.4045 206.646 34.4045C203.515 34.4045 200.949 32.0895 200.906 29.1958C200.906 28.1348 200.949 28.1348 207.429 28.1348H213.952V26.6397C213.952 21.8651 208.907 18.1998 204.254 19.5502ZM210.125 22.685C210.603 23.1673 211.256 24.1319 211.603 24.8553L212.256 26.2057H206.603C201.167 26.2057 200.993 26.1575 201.21 25.1929C201.558 23.6978 203.819 21.4793 205.168 21.2864C206.907 21.0452 209.125 21.6722 210.125 22.685Z" fill="#EAEAEA"/>
<path d="M16.9595 28.1349V33.9223H19.5686C21.8734 33.9223 22.1778 34.0187 22.1778 34.8868C22.1778 37.3465 20.047 39.7097 17.8292 39.7097C17.1769 39.7097 16.9595 39.999 16.9595 40.9636C16.9595 42.2175 17.003 42.2658 19.4817 41.9764C22.6562 41.687 25.1784 40.2884 26.309 38.1664C27.0483 36.816 27.1787 35.4656 27.3092 29.437L27.4831 22.3475H22.2213H16.9595V28.1349ZM25.5697 30.2569C25.4393 35.4174 25.3088 36.4784 24.5261 37.5876C23.4389 39.2274 22.3083 39.8061 22.8301 38.4557C23.004 37.9252 23.265 36.2855 23.3954 34.7422L23.5694 31.9931H21.1341H18.6989V28.1349V24.2766H22.2213H25.7437L25.5697 30.2569Z" fill="#55ABE0"/>
</svg>
