<svg width="1363" height="297" viewBox="0 0 1363 297" fill="none" xmlns="http://www.w3.org/2000/svg">
<path d="M0 15C0 6.71573 6.71573 0 15 0H37V297H15C6.71573 297 0 290.284 0 282V15Z" fill="#55ABE0"/>
<path d="M37 0H1066V297H37V0Z" fill="#F0F0F0"/>
<path d="M97.6934 49.4062H102.158L108.732 68.1973L115.307 49.4062H119.771L110.525 75H106.939L97.6934 49.4062ZM95.2852 49.4062H99.7324L100.541 67.7227V75H95.2852V49.4062ZM117.732 49.4062H122.197V75H116.924V67.7227L117.732 49.4062ZM136.77 70.7109V62.2383C136.77 61.6289 136.67 61.1074 136.471 60.6738C136.271 60.2285 135.961 59.8828 135.539 59.6367C135.129 59.3906 134.596 59.2676 133.939 59.2676C133.377 59.2676 132.891 59.3672 132.48 59.5664C132.07 59.7539 131.754 60.0293 131.531 60.3926C131.309 60.7441 131.197 61.1602 131.197 61.6406H126.135C126.135 60.832 126.322 60.0645 126.697 59.3379C127.072 58.6113 127.617 57.9727 128.332 57.4219C129.047 56.8594 129.896 56.4199 130.881 56.1035C131.877 55.7871 132.99 55.6289 134.221 55.6289C135.697 55.6289 137.01 55.875 138.158 56.3672C139.307 56.8594 140.209 57.5977 140.865 58.582C141.533 59.5664 141.867 60.7969 141.867 62.2734V70.4121C141.867 71.4551 141.932 72.3105 142.061 72.9785C142.189 73.6348 142.377 74.209 142.623 74.7012V75H137.508C137.262 74.4844 137.074 73.8398 136.945 73.0664C136.828 72.2812 136.77 71.4961 136.77 70.7109ZM137.438 63.416L137.473 66.2812H134.643C133.975 66.2812 133.395 66.3574 132.902 66.5098C132.41 66.6621 132.006 66.8789 131.689 67.1602C131.373 67.4297 131.139 67.7461 130.986 68.1094C130.846 68.4727 130.775 68.8711 130.775 69.3047C130.775 69.7383 130.875 70.1309 131.074 70.4824C131.273 70.8223 131.561 71.0918 131.936 71.291C132.311 71.4785 132.75 71.5723 133.254 71.5723C134.016 71.5723 134.678 71.4199 135.24 71.1152C135.803 70.8105 136.236 70.4355 136.541 69.9902C136.857 69.5449 137.021 69.123 137.033 68.7246L138.369 70.8691C138.182 71.3496 137.924 71.8477 137.596 72.3633C137.279 72.8789 136.875 73.3652 136.383 73.8223C135.891 74.2676 135.299 74.6367 134.607 74.9297C133.916 75.2109 133.096 75.3516 132.146 75.3516C130.939 75.3516 129.844 75.1113 128.859 74.6309C127.887 74.1387 127.113 73.4648 126.539 72.6094C125.977 71.7422 125.695 70.7578 125.695 69.6562C125.695 68.6602 125.883 67.7754 126.258 67.002C126.633 66.2285 127.184 65.5781 127.91 65.0508C128.648 64.5117 129.568 64.1074 130.67 63.8379C131.771 63.5566 133.049 63.416 134.502 63.416H137.438ZM150.832 60.1289V75H145.77V55.9805H150.533L150.832 60.1289ZM156.562 55.8574L156.475 60.5508C156.229 60.5156 155.93 60.4863 155.578 60.4629C155.238 60.4277 154.928 60.4102 154.646 60.4102C153.932 60.4102 153.311 60.5039 152.783 60.6914C152.268 60.8672 151.834 61.1309 151.482 61.4824C151.143 61.834 150.885 62.2617 150.709 62.7656C150.545 63.2695 150.451 63.8438 150.428 64.4883L149.408 64.1719C149.408 62.9414 149.531 61.8105 149.777 60.7793C150.023 59.7363 150.381 58.8281 150.85 58.0547C151.33 57.2812 151.916 56.6836 152.607 56.2617C153.299 55.8398 154.09 55.6289 154.98 55.6289C155.262 55.6289 155.549 55.6523 155.842 55.6992C156.135 55.7344 156.375 55.7871 156.562 55.8574ZM166.459 71.3965C167.08 71.3965 167.631 71.2793 168.111 71.0449C168.592 70.7988 168.967 70.459 169.236 70.0254C169.518 69.5801 169.664 69.0586 169.676 68.4609H174.439C174.428 69.7969 174.07 70.9863 173.367 72.0293C172.664 73.0605 171.721 73.875 170.537 74.4727C169.354 75.0586 168.029 75.3516 166.564 75.3516C165.088 75.3516 163.799 75.1055 162.697 74.6133C161.607 74.1211 160.699 73.4414 159.973 72.5742C159.246 71.6953 158.701 70.6758 158.338 69.5156C157.975 68.3438 157.793 67.0898 157.793 65.7539V65.2441C157.793 63.8965 157.975 62.6426 158.338 61.4824C158.701 60.3105 159.246 59.291 159.973 58.4238C160.699 57.5449 161.607 56.8594 162.697 56.3672C163.787 55.875 165.064 55.6289 166.529 55.6289C168.088 55.6289 169.453 55.9277 170.625 56.5254C171.809 57.123 172.734 57.9785 173.402 59.0918C174.082 60.1934 174.428 61.5 174.439 63.0117H169.676C169.664 62.3789 169.529 61.8047 169.271 61.2891C169.025 60.7734 168.662 60.3633 168.182 60.0586C167.713 59.7422 167.133 59.584 166.441 59.584C165.703 59.584 165.1 59.7422 164.631 60.0586C164.162 60.3633 163.799 60.7852 163.541 61.3242C163.283 61.8516 163.102 62.4551 162.996 63.1348C162.902 63.8027 162.855 64.5059 162.855 65.2441V65.7539C162.855 66.4922 162.902 67.2012 162.996 67.8809C163.09 68.5605 163.266 69.1641 163.523 69.6914C163.793 70.2188 164.162 70.6348 164.631 70.9395C165.1 71.2441 165.709 71.3965 166.459 71.3965ZM197.062 53.7832L190.102 75H184.494L194.004 49.4062H197.572L197.062 53.7832ZM202.846 75L195.867 53.7832L195.305 49.4062H198.908L208.471 75H202.846ZM202.529 65.4727V69.6035H189.012V65.4727H202.529ZM210.527 48H215.59V70.6406L215.08 75H210.527V48ZM227.631 65.2969V65.666C227.631 67.084 227.479 68.3848 227.174 69.5684C226.881 70.752 226.424 71.7773 225.803 72.6445C225.182 73.5 224.408 74.168 223.482 74.6484C222.568 75.1172 221.49 75.3516 220.248 75.3516C219.088 75.3516 218.08 75.1172 217.225 74.6484C216.381 74.1797 215.672 73.5176 215.098 72.6621C214.523 71.8066 214.061 70.8047 213.709 69.6562C213.357 68.5078 213.094 67.2539 212.918 65.8945V65.0859C213.094 63.7266 213.357 62.4727 213.709 61.3242C214.061 60.1758 214.523 59.1738 215.098 58.3184C215.672 57.4629 216.381 56.8008 217.225 56.332C218.068 55.8633 219.064 55.6289 220.213 55.6289C221.467 55.6289 222.557 55.8691 223.482 56.3496C224.42 56.8184 225.193 57.4863 225.803 58.3535C226.424 59.209 226.881 60.2285 227.174 61.4121C227.479 62.584 227.631 63.8789 227.631 65.2969ZM222.568 65.666V65.2969C222.568 64.5234 222.51 63.7969 222.393 63.1172C222.287 62.4258 222.1 61.8223 221.83 61.3066C221.561 60.7793 221.191 60.3633 220.723 60.0586C220.266 59.7539 219.674 59.6016 218.947 59.6016C218.256 59.6016 217.67 59.7188 217.189 59.9531C216.709 60.1875 216.311 60.5156 215.994 60.9375C215.689 61.3594 215.461 61.8633 215.309 62.4492C215.156 63.0234 215.062 63.6562 215.027 64.3477V66.6504C215.062 67.5762 215.215 68.3965 215.484 69.1113C215.766 69.8145 216.188 70.3711 216.75 70.7812C217.324 71.1797 218.068 71.3789 218.982 71.3789C219.697 71.3789 220.289 71.2383 220.758 70.957C221.227 70.6758 221.59 70.2773 221.848 69.7617C222.117 69.2461 222.305 68.6426 222.41 67.9512C222.516 67.248 222.568 66.4863 222.568 65.666ZM229.969 65.6836V65.3145C229.969 63.9199 230.168 62.6367 230.566 61.4648C230.965 60.2812 231.545 59.2559 232.307 58.3887C233.068 57.5215 234.006 56.8477 235.119 56.3672C236.232 55.875 237.51 55.6289 238.951 55.6289C240.393 55.6289 241.676 55.875 242.801 56.3672C243.926 56.8477 244.869 57.5215 245.631 58.3887C246.404 59.2559 246.99 60.2812 247.389 61.4648C247.787 62.6367 247.986 63.9199 247.986 65.3145V65.6836C247.986 67.0664 247.787 68.3496 247.389 69.5332C246.99 70.7051 246.404 71.7305 245.631 72.6094C244.869 73.4766 243.932 74.1504 242.818 74.6309C241.705 75.1113 240.428 75.3516 238.986 75.3516C237.545 75.3516 236.262 75.1113 235.137 74.6309C234.023 74.1504 233.08 73.4766 232.307 72.6094C231.545 71.7305 230.965 70.7051 230.566 69.5332C230.168 68.3496 229.969 67.0664 229.969 65.6836ZM235.031 65.3145V65.6836C235.031 66.4805 235.102 67.2246 235.242 67.916C235.383 68.6074 235.605 69.2168 235.91 69.7441C236.227 70.2598 236.637 70.6641 237.141 70.957C237.645 71.25 238.26 71.3965 238.986 71.3965C239.689 71.3965 240.293 71.25 240.797 70.957C241.301 70.6641 241.705 70.2598 242.01 69.7441C242.314 69.2168 242.537 68.6074 242.678 67.916C242.83 67.2246 242.906 66.4805 242.906 65.6836V65.3145C242.906 64.541 242.83 63.8145 242.678 63.1348C242.537 62.4434 242.309 61.834 241.992 61.3066C241.688 60.7676 241.283 60.3457 240.779 60.041C240.275 59.7363 239.666 59.584 238.951 59.584C238.236 59.584 237.627 59.7363 237.123 60.041C236.631 60.3457 236.227 60.7676 235.91 61.3066C235.605 61.834 235.383 62.4434 235.242 63.1348C235.102 63.8145 235.031 64.541 235.031 65.3145ZM262.348 70.4473V55.9805H267.41V75H262.646L262.348 70.4473ZM262.91 66.5449L264.404 66.5098C264.404 67.7754 264.258 68.9531 263.965 70.043C263.672 71.1211 263.232 72.0586 262.646 72.8555C262.061 73.6406 261.322 74.2559 260.432 74.7012C259.541 75.1348 258.492 75.3516 257.285 75.3516C256.359 75.3516 255.504 75.2227 254.719 74.9648C253.945 74.6953 253.277 74.2793 252.715 73.7168C252.164 73.1426 251.73 72.4102 251.414 71.5195C251.109 70.6172 250.957 69.5332 250.957 68.2676V55.9805H256.02V68.3027C256.02 68.8652 256.084 69.3398 256.213 69.7266C256.354 70.1133 256.547 70.4297 256.793 70.6758C257.039 70.9219 257.326 71.0977 257.654 71.2031C257.994 71.3086 258.369 71.3613 258.779 71.3613C259.822 71.3613 260.643 71.1504 261.24 70.7285C261.85 70.3066 262.277 69.7324 262.523 69.0059C262.781 68.2676 262.91 67.4473 262.91 66.5449ZM301.389 49.4062V75H296.115L285.832 57.8438V75H280.559V49.4062H285.832L296.133 66.5801V49.4062H301.389ZM315.926 70.7109V62.2383C315.926 61.6289 315.826 61.1074 315.627 60.6738C315.428 60.2285 315.117 59.8828 314.695 59.6367C314.285 59.3906 313.752 59.2676 313.096 59.2676C312.533 59.2676 312.047 59.3672 311.637 59.5664C311.227 59.7539 310.91 60.0293 310.688 60.3926C310.465 60.7441 310.354 61.1602 310.354 61.6406H305.291C305.291 60.832 305.479 60.0645 305.854 59.3379C306.229 58.6113 306.773 57.9727 307.488 57.4219C308.203 56.8594 309.053 56.4199 310.037 56.1035C311.033 55.7871 312.146 55.6289 313.377 55.6289C314.854 55.6289 316.166 55.875 317.314 56.3672C318.463 56.8594 319.365 57.5977 320.021 58.582C320.689 59.5664 321.023 60.7969 321.023 62.2734V70.4121C321.023 71.4551 321.088 72.3105 321.217 72.9785C321.346 73.6348 321.533 74.209 321.779 74.7012V75H316.664C316.418 74.4844 316.23 73.8398 316.102 73.0664C315.984 72.2812 315.926 71.4961 315.926 70.7109ZM316.594 63.416L316.629 66.2812H313.799C313.131 66.2812 312.551 66.3574 312.059 66.5098C311.566 66.6621 311.162 66.8789 310.846 67.1602C310.529 67.4297 310.295 67.7461 310.143 68.1094C310.002 68.4727 309.932 68.8711 309.932 69.3047C309.932 69.7383 310.031 70.1309 310.23 70.4824C310.43 70.8223 310.717 71.0918 311.092 71.291C311.467 71.4785 311.906 71.5723 312.41 71.5723C313.172 71.5723 313.834 71.4199 314.396 71.1152C314.959 70.8105 315.393 70.4355 315.697 69.9902C316.014 69.5449 316.178 69.123 316.189 68.7246L317.525 70.8691C317.338 71.3496 317.08 71.8477 316.752 72.3633C316.436 72.8789 316.031 73.3652 315.539 73.8223C315.047 74.2676 314.455 74.6367 313.764 74.9297C313.072 75.2109 312.252 75.3516 311.303 75.3516C310.096 75.3516 309 75.1113 308.016 74.6309C307.043 74.1387 306.27 73.4648 305.695 72.6094C305.133 71.7422 304.852 70.7578 304.852 69.6562C304.852 68.6602 305.039 67.7754 305.414 67.002C305.789 66.2285 306.34 65.5781 307.066 65.0508C307.805 64.5117 308.725 64.1074 309.826 63.8379C310.928 63.5566 312.205 63.416 313.658 63.416H316.594ZM336.158 70.8516V48H341.256V75H336.668L336.158 70.8516ZM324.135 65.7188V65.3496C324.135 63.8965 324.299 62.5781 324.627 61.3945C324.955 60.1992 325.436 59.1738 326.068 58.3184C326.701 57.4629 327.48 56.8008 328.406 56.332C329.332 55.8633 330.387 55.6289 331.57 55.6289C332.684 55.6289 333.656 55.8633 334.488 56.332C335.332 56.8008 336.047 57.4688 336.633 58.3359C337.23 59.1914 337.711 60.2051 338.074 61.377C338.438 62.5371 338.701 63.8086 338.865 65.1914V66C338.701 67.3242 338.438 68.5547 338.074 69.6914C337.711 70.8281 337.23 71.8242 336.633 72.6797C336.047 73.5234 335.332 74.1797 334.488 74.6484C333.645 75.1172 332.66 75.3516 331.535 75.3516C330.352 75.3516 329.297 75.1113 328.371 74.6309C327.457 74.1504 326.684 73.4766 326.051 72.6094C325.43 71.7422 324.955 70.7227 324.627 69.5508C324.299 68.3789 324.135 67.1016 324.135 65.7188ZM329.197 65.3496V65.7188C329.197 66.5039 329.256 67.2363 329.373 67.916C329.502 68.5957 329.707 69.1992 329.988 69.7266C330.281 70.2422 330.656 70.6465 331.113 70.9395C331.582 71.2207 332.15 71.3613 332.818 71.3613C333.686 71.3613 334.4 71.168 334.963 70.7812C335.525 70.3828 335.953 69.8379 336.246 69.1465C336.551 68.4551 336.727 67.6582 336.773 66.7559V64.4531C336.738 63.7148 336.633 63.0527 336.457 62.4668C336.293 61.8691 336.047 61.3594 335.719 60.9375C335.402 60.5156 335.004 60.1875 334.523 59.9531C334.055 59.7188 333.498 59.6016 332.854 59.6016C332.197 59.6016 331.635 59.7539 331.166 60.0586C330.697 60.3516 330.316 60.7559 330.023 61.2715C329.742 61.7871 329.531 62.3965 329.391 63.0996C329.262 63.791 329.197 64.541 329.197 65.3496ZM353.965 75.3516C352.488 75.3516 351.164 75.1172 349.992 74.6484C348.82 74.168 347.824 73.5059 347.004 72.6621C346.195 71.8184 345.574 70.8398 345.141 69.7266C344.707 68.6016 344.49 67.4062 344.49 66.1406V65.4375C344.49 63.9961 344.695 62.6777 345.105 61.4824C345.516 60.2871 346.102 59.25 346.863 58.3711C347.637 57.4922 348.574 56.8184 349.676 56.3496C350.777 55.8691 352.02 55.6289 353.402 55.6289C354.75 55.6289 355.945 55.8516 356.988 56.2969C358.031 56.7422 358.904 57.375 359.607 58.1953C360.322 59.0156 360.861 60 361.225 61.1484C361.588 62.2852 361.77 63.5508 361.77 64.9453V67.0547H346.652V63.6797H356.795V63.293C356.795 62.5898 356.666 61.9629 356.408 61.4121C356.162 60.8496 355.787 60.4043 355.283 60.0762C354.779 59.748 354.135 59.584 353.35 59.584C352.682 59.584 352.107 59.7305 351.627 60.0234C351.146 60.3164 350.754 60.7266 350.449 61.2539C350.156 61.7812 349.934 62.4023 349.781 63.1172C349.641 63.8203 349.57 64.5938 349.57 65.4375V66.1406C349.57 66.9023 349.676 67.6055 349.887 68.25C350.109 68.8945 350.42 69.4512 350.818 69.9199C351.229 70.3887 351.721 70.752 352.295 71.0098C352.881 71.2676 353.543 71.3965 354.281 71.3965C355.195 71.3965 356.045 71.2207 356.83 70.8691C357.627 70.5059 358.312 69.9609 358.887 69.2344L361.348 71.9062C360.949 72.4805 360.404 73.0312 359.713 73.5586C359.033 74.0859 358.213 74.5195 357.252 74.8594C356.291 75.1875 355.195 75.3516 353.965 75.3516ZM369.715 60.1289V75H364.652V55.9805H369.416L369.715 60.1289ZM375.445 55.8574L375.357 60.5508C375.111 60.5156 374.812 60.4863 374.461 60.4629C374.121 60.4277 373.811 60.4102 373.529 60.4102C372.814 60.4102 372.193 60.5039 371.666 60.6914C371.15 60.8672 370.717 61.1309 370.365 61.4824C370.025 61.834 369.768 62.2617 369.592 62.7656C369.428 63.2695 369.334 63.8438 369.311 64.4883L368.291 64.1719C368.291 62.9414 368.414 61.8105 368.66 60.7793C368.906 59.7363 369.264 58.8281 369.732 58.0547C370.213 57.2812 370.799 56.6836 371.49 56.2617C372.182 55.8398 372.973 55.6289 373.863 55.6289C374.145 55.6289 374.432 55.6523 374.725 55.6992C375.018 55.7344 375.258 55.7871 375.445 55.8574Z" fill="#888888"/>
<path d="M122.859 115.992V123.375H102.434V115.992H122.859ZM105.633 100.188V140H96.0352V100.188H105.633ZM129.312 100.188V140H119.742V100.188H129.312ZM150.34 132.562V120.367C150.34 119.529 150.221 118.809 149.984 118.207C149.747 117.605 149.374 117.141 148.863 116.812C148.353 116.466 147.669 116.293 146.812 116.293C146.12 116.293 145.527 116.411 145.035 116.648C144.543 116.885 144.169 117.241 143.914 117.715C143.659 118.189 143.531 118.79 143.531 119.52H134.316C134.316 118.152 134.617 116.885 135.219 115.719C135.839 114.534 136.714 113.504 137.844 112.629C138.992 111.754 140.359 111.079 141.945 110.605C143.549 110.113 145.336 109.867 147.305 109.867C149.656 109.867 151.753 110.259 153.594 111.043C155.453 111.827 156.921 113.003 157.996 114.57C159.072 116.12 159.609 118.07 159.609 120.422V132.535C159.609 134.467 159.719 135.935 159.938 136.938C160.156 137.922 160.466 138.788 160.867 139.535V140H151.625C151.188 139.089 150.859 137.977 150.641 136.664C150.44 135.333 150.34 133.966 150.34 132.562ZM151.461 121.926L151.516 126.848H147.441C146.585 126.848 145.855 126.966 145.254 127.203C144.671 127.44 144.197 127.768 143.832 128.188C143.486 128.589 143.23 129.044 143.066 129.555C142.921 130.065 142.848 130.603 142.848 131.168C142.848 131.715 142.975 132.207 143.23 132.645C143.504 133.064 143.868 133.392 144.324 133.629C144.78 133.866 145.29 133.984 145.855 133.984C146.876 133.984 147.742 133.793 148.453 133.41C149.182 133.009 149.738 132.526 150.121 131.961C150.504 131.396 150.695 130.867 150.695 130.375L152.719 134.148C152.354 134.878 151.935 135.616 151.461 136.363C151.005 137.111 150.431 137.803 149.738 138.441C149.064 139.061 148.234 139.572 147.25 139.973C146.266 140.355 145.072 140.547 143.668 140.547C141.845 140.547 140.168 140.173 138.637 139.426C137.124 138.678 135.911 137.639 135 136.309C134.089 134.96 133.633 133.41 133.633 131.66C133.633 130.129 133.906 128.762 134.453 127.559C135.018 126.355 135.866 125.335 136.996 124.496C138.126 123.658 139.566 123.02 141.316 122.582C143.066 122.145 145.126 121.926 147.496 121.926H151.461ZM177.219 133.438C178.076 133.438 178.805 133.283 179.406 132.973C180.026 132.645 180.491 132.189 180.801 131.605C181.129 131.004 181.284 130.284 181.266 129.445H189.934C189.952 131.669 189.405 133.62 188.293 135.297C187.199 136.956 185.704 138.25 183.809 139.18C181.931 140.091 179.807 140.547 177.438 140.547C175.122 140.547 173.099 140.173 171.367 139.426C169.635 138.66 168.186 137.603 167.02 136.254C165.871 134.887 165.005 133.292 164.422 131.469C163.857 129.646 163.574 127.668 163.574 125.535V124.906C163.574 122.773 163.857 120.796 164.422 118.973C165.005 117.132 165.871 115.536 167.02 114.188C168.186 112.82 169.626 111.763 171.34 111.016C173.072 110.25 175.086 109.867 177.383 109.867C179.844 109.867 182.013 110.332 183.891 111.262C185.786 112.191 187.272 113.54 188.348 115.309C189.423 117.077 189.952 119.219 189.934 121.734H181.266C181.284 120.841 181.147 120.039 180.855 119.328C180.564 118.617 180.108 118.052 179.488 117.633C178.887 117.195 178.112 116.977 177.164 116.977C176.216 116.977 175.451 117.186 174.867 117.605C174.284 118.025 173.837 118.608 173.527 119.355C173.236 120.085 173.035 120.923 172.926 121.871C172.835 122.819 172.789 123.831 172.789 124.906V125.535C172.789 126.629 172.835 127.659 172.926 128.625C173.035 129.573 173.245 130.411 173.555 131.141C173.865 131.852 174.311 132.417 174.895 132.836C175.478 133.237 176.253 133.438 177.219 133.438ZM203.168 97.9727V140H193.953V97.9727H203.168ZM222.09 110.414L209.238 125.48L202.512 132.207L198.492 126.355L204.098 119.055L211.043 110.414H222.09ZM212.219 140L204.316 126.52L211.125 121.68L222.773 140H212.219ZM244.211 100.188V140H234.613V100.188H244.211ZM256.188 100.188V107.598H222.91V100.188H256.188ZM268.848 98V140H259.633V98H268.848ZM267.754 124.195L265.594 124.25C265.594 122.172 265.849 120.258 266.359 118.508C266.87 116.758 267.599 115.236 268.547 113.941C269.495 112.647 270.634 111.645 271.965 110.934C273.296 110.223 274.772 109.867 276.395 109.867C277.853 109.867 279.184 110.077 280.387 110.496C281.608 110.915 282.656 111.59 283.531 112.52C284.424 113.449 285.108 114.661 285.582 116.156C286.074 117.651 286.32 119.474 286.32 121.625V140H277.051V121.57C277.051 120.367 276.878 119.438 276.531 118.781C276.203 118.107 275.729 117.642 275.109 117.387C274.49 117.113 273.733 116.977 272.84 116.977C271.764 116.977 270.889 117.159 270.215 117.523C269.54 117.888 269.021 118.398 268.656 119.055C268.31 119.693 268.073 120.449 267.945 121.324C267.818 122.199 267.754 123.156 267.754 124.195ZM305.762 140.547C303.355 140.547 301.204 140.173 299.309 139.426C297.413 138.66 295.809 137.612 294.496 136.281C293.202 134.951 292.208 133.419 291.516 131.688C290.841 129.956 290.504 128.124 290.504 126.191V125.152C290.504 122.983 290.805 120.978 291.406 119.137C292.008 117.277 292.901 115.655 294.086 114.27C295.271 112.884 296.757 111.809 298.543 111.043C300.329 110.259 302.408 109.867 304.777 109.867C306.874 109.867 308.751 110.204 310.41 110.879C312.069 111.553 313.473 112.52 314.621 113.777C315.788 115.035 316.672 116.557 317.273 118.344C317.893 120.13 318.203 122.135 318.203 124.359V128.105H294.031V122.336H309.207V121.625C309.225 120.641 309.052 119.802 308.688 119.109C308.341 118.417 307.831 117.888 307.156 117.523C306.482 117.159 305.661 116.977 304.695 116.977C303.693 116.977 302.863 117.195 302.207 117.633C301.569 118.07 301.068 118.672 300.703 119.438C300.357 120.185 300.111 121.051 299.965 122.035C299.819 123.02 299.746 124.059 299.746 125.152V126.191C299.746 127.285 299.892 128.279 300.184 129.172C300.493 130.065 300.931 130.831 301.496 131.469C302.079 132.089 302.772 132.572 303.574 132.918C304.395 133.264 305.324 133.438 306.363 133.438C307.621 133.438 308.861 133.201 310.082 132.727C311.303 132.253 312.352 131.469 313.227 130.375L317.41 135.352C316.809 136.208 315.952 137.038 314.84 137.84C313.746 138.642 312.434 139.298 310.902 139.809C309.371 140.301 307.658 140.547 305.762 140.547ZM331.574 136.391L339.504 100.188H344.234L346.805 103.277L338.355 140H333.133L331.574 136.391ZM329.469 100.188L336.168 136.664L334.445 140H328.402L319.953 100.188H329.469ZM351.152 136.473L357.797 100.188H367.285L358.836 140H352.82L351.152 136.473ZM347.652 100.188L355.773 136.609L354.133 140H348.91L340.27 103.223L342.949 100.188H347.652ZM384.074 140.547C381.668 140.547 379.517 140.173 377.621 139.426C375.725 138.66 374.121 137.612 372.809 136.281C371.514 134.951 370.521 133.419 369.828 131.688C369.154 129.956 368.816 128.124 368.816 126.191V125.152C368.816 122.983 369.117 120.978 369.719 119.137C370.32 117.277 371.214 115.655 372.398 114.27C373.583 112.884 375.069 111.809 376.855 111.043C378.642 110.259 380.72 109.867 383.09 109.867C385.186 109.867 387.064 110.204 388.723 110.879C390.382 111.553 391.785 112.52 392.934 113.777C394.1 115.035 394.984 116.557 395.586 118.344C396.206 120.13 396.516 122.135 396.516 124.359V128.105H372.344V122.336H387.52V121.625C387.538 120.641 387.365 119.802 387 119.109C386.654 118.417 386.143 117.888 385.469 117.523C384.794 117.159 383.974 116.977 383.008 116.977C382.005 116.977 381.176 117.195 380.52 117.633C379.882 118.07 379.38 118.672 379.016 119.438C378.669 120.185 378.423 121.051 378.277 122.035C378.132 123.02 378.059 124.059 378.059 125.152V126.191C378.059 127.285 378.204 128.279 378.496 129.172C378.806 130.065 379.243 130.831 379.809 131.469C380.392 132.089 381.085 132.572 381.887 132.918C382.707 133.264 383.637 133.438 384.676 133.438C385.934 133.438 387.173 133.201 388.395 132.727C389.616 132.253 390.664 131.469 391.539 130.375L395.723 135.352C395.121 136.208 394.264 137.038 393.152 137.84C392.059 138.642 390.746 139.298 389.215 139.809C387.684 140.301 385.97 140.547 384.074 140.547ZM400.344 98H409.559V132.727L408.602 140H400.344V98ZM427.715 124.879V125.453C427.715 127.695 427.487 129.737 427.031 131.578C426.576 133.419 425.874 135.014 424.926 136.363C423.978 137.694 422.784 138.724 421.344 139.453C419.904 140.182 418.199 140.547 416.23 140.547C414.444 140.547 412.913 140.164 411.637 139.398C410.361 138.615 409.294 137.539 408.438 136.172C407.581 134.786 406.888 133.191 406.359 131.387C405.831 129.564 405.411 127.613 405.102 125.535V124.852C405.411 122.792 405.831 120.859 406.359 119.055C406.888 117.232 407.581 115.637 408.438 114.27C409.294 112.884 410.352 111.809 411.609 111.043C412.885 110.259 414.408 109.867 416.176 109.867C418.163 109.867 419.876 110.241 421.316 110.988C422.775 111.736 423.978 112.784 424.926 114.133C425.874 115.482 426.576 117.068 427.031 118.891C427.487 120.714 427.715 122.71 427.715 124.879ZM418.5 125.453V124.879C418.5 123.803 418.436 122.792 418.309 121.844C418.181 120.896 417.953 120.057 417.625 119.328C417.297 118.599 416.832 118.025 416.23 117.605C415.629 117.186 414.845 116.977 413.879 116.977C412.895 116.977 412.065 117.141 411.391 117.469C410.734 117.797 410.206 118.271 409.805 118.891C409.422 119.492 409.148 120.24 408.984 121.133C408.82 122.008 408.747 123.001 408.766 124.113V126.273C408.729 127.786 408.866 129.081 409.176 130.156C409.486 131.232 410.023 132.052 410.789 132.617C411.555 133.182 412.603 133.465 413.934 133.465C414.918 133.465 415.711 133.273 416.312 132.891C416.932 132.508 417.397 131.961 417.707 131.25C418.017 130.539 418.227 129.691 418.336 128.707C418.445 127.723 418.5 126.638 418.5 125.453Z" fill="black"/>
<rect x="93" y="178" width="917" height="77" rx="10" fill="#D3D3D3"/>
<rect x="111" y="196" width="148" height="41" rx="3" fill="#424242"/>
<path d="M149.703 210.203H154.739C155.724 210.203 156.579 210.35 157.306 210.643C158.032 210.936 158.592 211.369 158.984 211.943C159.383 212.518 159.582 213.227 159.582 214.07C159.582 214.803 159.468 215.415 159.239 215.907C159.011 216.399 158.691 216.807 158.281 217.129C157.877 217.445 157.405 217.706 156.866 217.911L155.855 218.482H151.628L151.61 216.101H154.739C155.132 216.101 155.457 216.03 155.715 215.89C155.973 215.749 156.166 215.55 156.295 215.292C156.43 215.028 156.497 214.715 156.497 214.352C156.497 213.982 156.43 213.666 156.295 213.402C156.16 213.139 155.961 212.937 155.697 212.796C155.439 212.655 155.12 212.585 154.739 212.585H152.788V223H149.703V210.203ZM156.708 223L153.878 217.34L157.147 217.322L160.013 222.868V223H156.708ZM165.91 223.176C165.137 223.176 164.445 223.056 163.836 222.815C163.227 222.569 162.711 222.232 162.289 221.805C161.873 221.377 161.554 220.885 161.331 220.328C161.114 219.771 161.006 219.183 161.006 218.562V218.228C161.006 217.53 161.103 216.886 161.296 216.294C161.489 215.696 161.776 215.175 162.157 214.729C162.538 214.284 163.016 213.938 163.59 213.692C164.164 213.44 164.832 213.314 165.594 213.314C166.268 213.314 166.871 213.423 167.404 213.64C167.938 213.856 168.389 214.167 168.758 214.571C169.133 214.976 169.417 215.465 169.61 216.039C169.81 216.613 169.909 217.258 169.909 217.973V219.177H162.14V217.322H167.018V217.094C167.023 216.777 166.968 216.508 166.851 216.285C166.739 216.062 166.575 215.893 166.358 215.775C166.142 215.658 165.878 215.6 165.567 215.6C165.245 215.6 164.979 215.67 164.768 215.811C164.562 215.951 164.401 216.145 164.284 216.391C164.173 216.631 164.094 216.909 164.047 217.226C164 217.542 163.977 217.876 163.977 218.228V218.562C163.977 218.913 164.023 219.232 164.117 219.52C164.217 219.807 164.357 220.053 164.539 220.258C164.727 220.457 164.949 220.612 165.207 220.724C165.471 220.835 165.77 220.891 166.104 220.891C166.508 220.891 166.906 220.814 167.299 220.662C167.691 220.51 168.028 220.258 168.31 219.906L169.654 221.506C169.461 221.781 169.186 222.048 168.828 222.306C168.477 222.563 168.055 222.774 167.562 222.938C167.07 223.097 166.52 223.176 165.91 223.176ZM176.053 220.609V216.689C176.053 216.42 176.015 216.188 175.938 215.995C175.862 215.802 175.742 215.652 175.578 215.547C175.414 215.436 175.194 215.38 174.919 215.38C174.696 215.38 174.506 215.418 174.348 215.494C174.189 215.57 174.069 215.685 173.987 215.837C173.905 215.989 173.864 216.183 173.864 216.417H170.902C170.902 215.978 170.999 215.57 171.192 215.195C171.392 214.814 171.673 214.483 172.036 214.202C172.405 213.921 172.845 213.704 173.354 213.552C173.87 213.394 174.444 213.314 175.077 213.314C175.833 213.314 176.507 213.44 177.099 213.692C177.696 213.944 178.168 214.322 178.514 214.826C178.859 215.324 179.032 215.951 179.032 216.707V220.601C179.032 221.222 179.067 221.693 179.138 222.016C179.208 222.332 179.308 222.61 179.437 222.851V223H176.466C176.325 222.707 176.22 222.35 176.149 221.928C176.085 221.5 176.053 221.061 176.053 220.609ZM176.413 217.19L176.431 218.772H175.121C174.846 218.772 174.611 218.811 174.418 218.887C174.23 218.963 174.078 219.068 173.961 219.203C173.85 219.332 173.768 219.479 173.715 219.643C173.668 219.807 173.645 219.979 173.645 220.161C173.645 220.337 173.686 220.495 173.768 220.636C173.855 220.771 173.973 220.876 174.119 220.952C174.266 221.028 174.43 221.066 174.611 221.066C174.939 221.066 175.218 221.005 175.446 220.882C175.681 220.753 175.859 220.598 175.982 220.416C176.105 220.234 176.167 220.064 176.167 219.906L176.817 221.119C176.7 221.354 176.565 221.591 176.413 221.831C176.267 222.071 176.082 222.294 175.859 222.499C175.643 222.698 175.376 222.862 175.06 222.991C174.743 223.114 174.359 223.176 173.908 223.176C173.322 223.176 172.783 223.056 172.291 222.815C171.805 222.575 171.415 222.241 171.122 221.813C170.829 221.38 170.683 220.882 170.683 220.319C170.683 219.827 170.771 219.388 170.946 219.001C171.128 218.614 171.4 218.286 171.764 218.017C172.127 217.747 172.59 217.542 173.152 217.401C173.715 217.261 174.377 217.19 175.139 217.19H176.413ZM184.692 220.891C184.968 220.891 185.202 220.841 185.396 220.741C185.595 220.636 185.744 220.489 185.844 220.302C185.949 220.108 185.999 219.877 185.993 219.607H188.779C188.785 220.322 188.609 220.949 188.252 221.488C187.9 222.021 187.42 222.438 186.811 222.736C186.207 223.029 185.524 223.176 184.763 223.176C184.019 223.176 183.368 223.056 182.812 222.815C182.255 222.569 181.789 222.229 181.414 221.796C181.045 221.356 180.767 220.844 180.579 220.258C180.397 219.672 180.307 219.036 180.307 218.351V218.148C180.307 217.463 180.397 216.827 180.579 216.241C180.767 215.649 181.045 215.137 181.414 214.703C181.789 214.264 182.252 213.924 182.803 213.684C183.359 213.438 184.007 213.314 184.745 213.314C185.536 213.314 186.233 213.464 186.837 213.763C187.446 214.062 187.924 214.495 188.27 215.063C188.615 215.632 188.785 216.32 188.779 217.129H185.993C185.999 216.842 185.955 216.584 185.861 216.355C185.768 216.127 185.621 215.945 185.422 215.811C185.229 215.67 184.979 215.6 184.675 215.6C184.37 215.6 184.124 215.667 183.937 215.802C183.749 215.937 183.605 216.124 183.506 216.364C183.412 216.599 183.348 216.868 183.312 217.173C183.283 217.478 183.269 217.803 183.269 218.148V218.351C183.269 218.702 183.283 219.033 183.312 219.344C183.348 219.648 183.415 219.918 183.515 220.152C183.614 220.381 183.758 220.562 183.945 220.697C184.133 220.826 184.382 220.891 184.692 220.891ZM195.055 213.49V215.547H189.324V213.49H195.055ZM190.528 211.126H193.49V219.897C193.49 220.149 193.52 220.346 193.578 220.486C193.637 220.621 193.736 220.718 193.877 220.776C194.023 220.829 194.217 220.855 194.457 220.855C194.627 220.855 194.768 220.853 194.879 220.847C194.99 220.835 195.096 220.82 195.195 220.803V222.921C194.943 223.003 194.68 223.064 194.404 223.105C194.129 223.152 193.836 223.176 193.525 223.176C192.893 223.176 192.351 223.076 191.899 222.877C191.454 222.678 191.114 222.364 190.88 221.937C190.646 221.509 190.528 220.952 190.528 220.267V211.126ZM205.944 218.983V210.203H209.021V218.983C209.021 219.839 208.824 220.58 208.432 221.207C208.045 221.834 207.518 222.32 206.85 222.666C206.188 223.006 205.443 223.176 204.617 223.176C203.762 223.176 203 223.032 202.332 222.745C201.67 222.458 201.148 222.016 200.768 221.418C200.393 220.82 200.205 220.059 200.205 219.133H203.299C203.299 219.566 203.349 219.906 203.448 220.152C203.548 220.393 203.694 220.562 203.888 220.662C204.087 220.756 204.33 220.803 204.617 220.803C204.898 220.803 205.136 220.732 205.329 220.592C205.528 220.445 205.681 220.237 205.786 219.968C205.892 219.692 205.944 219.364 205.944 218.983ZM217.572 219.599C217.572 219.399 217.543 219.221 217.484 219.062C217.426 218.898 217.317 218.746 217.159 218.605C217.001 218.465 216.772 218.324 216.474 218.184C216.181 218.037 215.794 217.885 215.313 217.727C214.751 217.539 214.209 217.328 213.688 217.094C213.166 216.854 212.7 216.575 212.29 216.259C211.88 215.937 211.555 215.562 211.314 215.134C211.074 214.7 210.954 214.196 210.954 213.622C210.954 213.071 211.077 212.576 211.323 212.137C211.569 211.691 211.912 211.313 212.352 211.003C212.797 210.687 213.318 210.446 213.916 210.282C214.514 210.112 215.167 210.027 215.876 210.027C216.813 210.027 217.64 210.191 218.354 210.52C219.075 210.842 219.638 211.302 220.042 211.899C220.452 212.491 220.657 213.191 220.657 214H217.59C217.59 213.678 217.522 213.394 217.388 213.147C217.259 212.901 217.062 212.708 216.799 212.567C216.535 212.427 216.204 212.356 215.806 212.356C215.419 212.356 215.094 212.415 214.83 212.532C214.566 212.649 214.367 212.808 214.232 213.007C214.098 213.2 214.03 213.414 214.03 213.648C214.03 213.842 214.083 214.018 214.188 214.176C214.3 214.328 214.455 214.472 214.654 214.606C214.859 214.741 215.105 214.87 215.393 214.993C215.686 215.116 216.014 215.236 216.377 215.354C217.057 215.57 217.66 215.813 218.188 216.083C218.721 216.347 219.169 216.648 219.532 216.988C219.901 217.322 220.18 217.703 220.367 218.131C220.561 218.559 220.657 219.042 220.657 219.581C220.657 220.155 220.546 220.665 220.323 221.11C220.101 221.556 219.781 221.934 219.365 222.244C218.949 222.549 218.451 222.78 217.871 222.938C217.291 223.097 216.644 223.176 215.929 223.176C215.272 223.176 214.625 223.094 213.986 222.93C213.354 222.76 212.779 222.502 212.264 222.156C211.748 221.805 211.335 221.356 211.024 220.812C210.72 220.261 210.567 219.607 210.567 218.852H213.661C213.661 219.227 213.711 219.543 213.811 219.801C213.91 220.059 214.057 220.267 214.25 220.425C214.443 220.577 214.681 220.688 214.962 220.759C215.243 220.823 215.565 220.855 215.929 220.855C216.321 220.855 216.638 220.8 216.878 220.688C217.118 220.571 217.294 220.419 217.405 220.231C217.517 220.038 217.572 219.827 217.572 219.599Z" fill="white"/>
<rect x="111" y="196" width="148" height="41" rx="3" stroke="#424242" stroke-width="4"/>
<rect x="279" y="196" width="130" height="41" rx="3" fill="#424242"/>
<path d="M323.812 220.627V223H317.343V220.627H323.812ZM318.441 210.203V223H315.356V210.203H318.441ZM329.911 220.609V216.689C329.911 216.42 329.873 216.188 329.797 215.995C329.721 215.802 329.601 215.652 329.437 215.547C329.272 215.436 329.053 215.38 328.777 215.38C328.555 215.38 328.364 215.418 328.206 215.494C328.048 215.57 327.928 215.685 327.846 215.837C327.764 215.989 327.723 216.183 327.723 216.417H324.761C324.761 215.978 324.857 215.57 325.051 215.195C325.25 214.814 325.531 214.483 325.895 214.202C326.264 213.921 326.703 213.704 327.213 213.552C327.729 213.394 328.303 213.314 328.936 213.314C329.691 213.314 330.365 213.44 330.957 213.692C331.555 213.944 332.026 214.322 332.372 214.826C332.718 215.324 332.891 215.951 332.891 216.707V220.601C332.891 221.222 332.926 221.693 332.996 222.016C333.066 222.332 333.166 222.61 333.295 222.851V223H330.324C330.184 222.707 330.078 222.35 330.008 221.928C329.943 221.5 329.911 221.061 329.911 220.609ZM330.271 217.19L330.289 218.772H328.979C328.704 218.772 328.47 218.811 328.276 218.887C328.089 218.963 327.937 219.068 327.819 219.203C327.708 219.332 327.626 219.479 327.573 219.643C327.526 219.807 327.503 219.979 327.503 220.161C327.503 220.337 327.544 220.495 327.626 220.636C327.714 220.771 327.831 220.876 327.978 220.952C328.124 221.028 328.288 221.066 328.47 221.066C328.798 221.066 329.076 221.005 329.305 220.882C329.539 220.753 329.718 220.598 329.841 220.416C329.964 220.234 330.025 220.064 330.025 219.906L330.676 221.119C330.559 221.354 330.424 221.591 330.271 221.831C330.125 222.071 329.94 222.294 329.718 222.499C329.501 222.698 329.234 222.862 328.918 222.991C328.602 223.114 328.218 223.176 327.767 223.176C327.181 223.176 326.642 223.056 326.149 222.815C325.663 222.575 325.273 222.241 324.98 221.813C324.688 221.38 324.541 220.882 324.541 220.319C324.541 219.827 324.629 219.388 324.805 219.001C324.986 218.614 325.259 218.286 325.622 218.017C325.985 217.747 326.448 217.542 327.011 217.401C327.573 217.261 328.235 217.19 328.997 217.19H330.271ZM337.522 215.846V223H334.561V213.49H337.329L337.522 215.846ZM340.335 213.42L340.282 216.171C340.165 216.159 340.007 216.145 339.808 216.127C339.608 216.109 339.441 216.101 339.307 216.101C338.961 216.101 338.662 216.142 338.41 216.224C338.164 216.3 337.959 216.417 337.795 216.575C337.637 216.728 337.52 216.921 337.443 217.155C337.373 217.39 337.341 217.662 337.347 217.973L336.811 217.621C336.811 216.982 336.872 216.402 336.995 215.881C337.124 215.354 337.306 214.899 337.54 214.519C337.774 214.132 338.059 213.836 338.393 213.631C338.727 213.42 339.102 213.314 339.518 213.314C339.664 213.314 339.808 213.323 339.948 213.341C340.095 213.358 340.224 213.385 340.335 213.42ZM346.03 220.609V216.689C346.03 216.42 345.992 216.188 345.916 215.995C345.84 215.802 345.72 215.652 345.556 215.547C345.392 215.436 345.172 215.38 344.896 215.38C344.674 215.38 344.483 215.418 344.325 215.494C344.167 215.57 344.047 215.685 343.965 215.837C343.883 215.989 343.842 216.183 343.842 216.417H340.88C340.88 215.978 340.977 215.57 341.17 215.195C341.369 214.814 341.65 214.483 342.014 214.202C342.383 213.921 342.822 213.704 343.332 213.552C343.848 213.394 344.422 213.314 345.055 213.314C345.811 213.314 346.484 213.44 347.076 213.692C347.674 213.944 348.146 214.322 348.491 214.826C348.837 215.324 349.01 215.951 349.01 216.707V220.601C349.01 221.222 349.045 221.693 349.115 222.016C349.186 222.332 349.285 222.61 349.414 222.851V223H346.443C346.303 222.707 346.197 222.35 346.127 221.928C346.062 221.5 346.03 221.061 346.03 220.609ZM346.391 217.19L346.408 218.772H345.099C344.823 218.772 344.589 218.811 344.396 218.887C344.208 218.963 344.056 219.068 343.938 219.203C343.827 219.332 343.745 219.479 343.692 219.643C343.646 219.807 343.622 219.979 343.622 220.161C343.622 220.337 343.663 220.495 343.745 220.636C343.833 220.771 343.95 220.876 344.097 220.952C344.243 221.028 344.407 221.066 344.589 221.066C344.917 221.066 345.195 221.005 345.424 220.882C345.658 220.753 345.837 220.598 345.96 220.416C346.083 220.234 346.145 220.064 346.145 219.906L346.795 221.119C346.678 221.354 346.543 221.591 346.391 221.831C346.244 222.071 346.06 222.294 345.837 222.499C345.62 222.698 345.354 222.862 345.037 222.991C344.721 223.114 344.337 223.176 343.886 223.176C343.3 223.176 342.761 223.056 342.269 222.815C341.782 222.575 341.393 222.241 341.1 221.813C340.807 221.38 340.66 220.882 340.66 220.319C340.66 219.827 340.748 219.388 340.924 219.001C341.105 218.614 341.378 218.286 341.741 218.017C342.104 217.747 342.567 217.542 343.13 217.401C343.692 217.261 344.354 217.19 345.116 217.19H346.391ZM353.94 220.97L355.812 213.49H358.933L355.821 223H353.976L353.94 220.97ZM352.833 213.49L354.679 220.97L354.661 223H352.807L349.704 213.49H352.833ZM364.294 223.176C363.521 223.176 362.829 223.056 362.22 222.815C361.61 222.569 361.095 222.232 360.673 221.805C360.257 221.377 359.938 220.885 359.715 220.328C359.498 219.771 359.39 219.183 359.39 218.562V218.228C359.39 217.53 359.486 216.886 359.68 216.294C359.873 215.696 360.16 215.175 360.541 214.729C360.922 214.284 361.399 213.938 361.974 213.692C362.548 213.44 363.216 213.314 363.978 213.314C364.651 213.314 365.255 213.423 365.788 213.64C366.321 213.856 366.772 214.167 367.142 214.571C367.517 214.976 367.801 215.465 367.994 216.039C368.193 216.613 368.293 217.258 368.293 217.973V219.177H360.523V217.322H365.401V217.094C365.407 216.777 365.352 216.508 365.234 216.285C365.123 216.062 364.959 215.893 364.742 215.775C364.525 215.658 364.262 215.6 363.951 215.6C363.629 215.6 363.362 215.67 363.151 215.811C362.946 215.951 362.785 216.145 362.668 216.391C362.557 216.631 362.478 216.909 362.431 217.226C362.384 217.542 362.36 217.876 362.36 218.228V218.562C362.36 218.913 362.407 219.232 362.501 219.52C362.601 219.807 362.741 220.053 362.923 220.258C363.11 220.457 363.333 220.612 363.591 220.724C363.854 220.835 364.153 220.891 364.487 220.891C364.892 220.891 365.29 220.814 365.683 220.662C366.075 220.51 366.412 220.258 366.693 219.906L368.038 221.506C367.845 221.781 367.569 222.048 367.212 222.306C366.86 222.563 366.438 222.774 365.946 222.938C365.454 223.097 364.903 223.176 364.294 223.176ZM372.626 209.5V223H369.655V209.5H372.626Z" fill="white"/>
<rect x="279" y="196" width="130" height="41" rx="3" stroke="#424242" stroke-width="4"/>
<rect x="429" y="196" width="109" height="41" rx="3" fill="#424242"/>
<path d="M456.72 210.203H459.233L462.09 219.106L464.946 210.203H467.46L463.109 223H461.07L456.72 210.203ZM455.19 210.203H457.792L458.275 220.012V223H455.19V210.203ZM466.388 210.203H468.998V223H465.904V220.012L466.388 210.203ZM473.753 221.884L476.214 213.49H479.396L475.572 224.415C475.49 224.655 475.382 224.913 475.247 225.188C475.112 225.47 474.928 225.736 474.693 225.988C474.459 226.24 474.157 226.445 473.788 226.604C473.425 226.762 472.974 226.841 472.435 226.841C472.147 226.841 471.937 226.826 471.802 226.797C471.673 226.773 471.474 226.729 471.204 226.665V224.547C471.28 224.547 471.345 224.547 471.397 224.547C471.456 224.547 471.521 224.547 471.591 224.547C471.907 224.547 472.159 224.515 472.347 224.45C472.54 224.386 472.687 224.292 472.786 224.169C472.892 224.046 472.974 223.896 473.032 223.721L473.753 221.884ZM473.129 213.49L475.001 220.144L475.326 223.281H473.34L469.956 213.49H473.129ZM486.901 219.599C486.901 219.399 486.872 219.221 486.813 219.062C486.755 218.898 486.646 218.746 486.488 218.605C486.33 218.465 486.102 218.324 485.803 218.184C485.51 218.037 485.123 217.885 484.643 217.727C484.08 217.539 483.538 217.328 483.017 217.094C482.495 216.854 482.029 216.575 481.619 216.259C481.209 215.937 480.884 215.562 480.644 215.134C480.403 214.7 480.283 214.196 480.283 213.622C480.283 213.071 480.406 212.576 480.652 212.137C480.898 211.691 481.241 211.313 481.681 211.003C482.126 210.687 482.647 210.446 483.245 210.282C483.843 210.112 484.496 210.027 485.205 210.027C486.143 210.027 486.969 210.191 487.684 210.52C488.404 210.842 488.967 211.302 489.371 211.899C489.781 212.491 489.986 213.191 489.986 214H486.919C486.919 213.678 486.852 213.394 486.717 213.147C486.588 212.901 486.392 212.708 486.128 212.567C485.864 212.427 485.533 212.356 485.135 212.356C484.748 212.356 484.423 212.415 484.159 212.532C483.896 212.649 483.696 212.808 483.562 213.007C483.427 213.2 483.359 213.414 483.359 213.648C483.359 213.842 483.412 214.018 483.518 214.176C483.629 214.328 483.784 214.472 483.983 214.606C484.188 214.741 484.435 214.87 484.722 214.993C485.015 215.116 485.343 215.236 485.706 215.354C486.386 215.57 486.989 215.813 487.517 216.083C488.05 216.347 488.498 216.648 488.861 216.988C489.23 217.322 489.509 217.703 489.696 218.131C489.89 218.559 489.986 219.042 489.986 219.581C489.986 220.155 489.875 220.665 489.652 221.11C489.43 221.556 489.11 221.934 488.694 222.244C488.278 222.549 487.78 222.78 487.2 222.938C486.62 223.097 485.973 223.176 485.258 223.176C484.602 223.176 483.954 223.094 483.315 222.93C482.683 222.76 482.108 222.502 481.593 222.156C481.077 221.805 480.664 221.356 480.354 220.812C480.049 220.261 479.896 219.607 479.896 218.852H482.99C482.99 219.227 483.04 219.543 483.14 219.801C483.239 220.059 483.386 220.267 483.579 220.425C483.772 220.577 484.01 220.688 484.291 220.759C484.572 220.823 484.895 220.855 485.258 220.855C485.65 220.855 485.967 220.8 486.207 220.688C486.447 220.571 486.623 220.419 486.734 220.231C486.846 220.038 486.901 219.827 486.901 219.599ZM498.714 220.891L502.282 223.721L500.366 225.338L496.859 222.508L498.714 220.891ZM502.432 216.347V216.865C502.432 217.844 502.294 218.723 502.019 219.502C501.749 220.275 501.362 220.938 500.858 221.488C500.36 222.033 499.771 222.452 499.092 222.745C498.412 223.032 497.662 223.176 496.842 223.176C496.016 223.176 495.26 223.032 494.574 222.745C493.895 222.452 493.303 222.033 492.799 221.488C492.301 220.938 491.914 220.275 491.639 219.502C491.369 218.723 491.234 217.844 491.234 216.865V216.347C491.234 215.368 491.369 214.489 491.639 213.71C491.914 212.931 492.298 212.269 492.79 211.724C493.288 211.173 493.877 210.754 494.557 210.467C495.242 210.174 495.998 210.027 496.824 210.027C497.645 210.027 498.395 210.174 499.074 210.467C499.76 210.754 500.352 211.173 500.85 211.724C501.354 212.269 501.743 212.931 502.019 213.71C502.294 214.489 502.432 215.368 502.432 216.347ZM499.294 216.865V216.329C499.294 215.696 499.238 215.14 499.127 214.659C499.021 214.173 498.863 213.766 498.652 213.438C498.441 213.109 498.181 212.863 497.87 212.699C497.565 212.529 497.217 212.444 496.824 212.444C496.414 212.444 496.057 212.529 495.752 212.699C495.447 212.863 495.192 213.109 494.987 213.438C494.782 213.766 494.627 214.173 494.521 214.659C494.422 215.14 494.372 215.696 494.372 216.329V216.865C494.372 217.492 494.422 218.049 494.521 218.535C494.627 219.016 494.782 219.423 494.987 219.757C495.198 220.091 495.456 220.343 495.761 220.513C496.071 220.683 496.432 220.768 496.842 220.768C497.234 220.768 497.583 220.683 497.888 220.513C498.192 220.343 498.447 220.091 498.652 219.757C498.863 219.423 499.021 219.016 499.127 218.535C499.238 218.049 499.294 217.492 499.294 216.865ZM512.46 220.627V223H505.991V220.627H512.46ZM507.09 210.203V223H504.005V210.203H507.09Z" fill="white"/>
<rect x="429" y="196" width="109" height="41" rx="3" stroke="#424242" stroke-width="4"/>
<rect x="558" y="196" width="96" height="41" rx="3" fill="#424242"/>
<path d="M581.417 210.203H586.453C587.438 210.203 588.293 210.35 589.02 210.643C589.746 210.936 590.306 211.369 590.698 211.943C591.097 212.518 591.296 213.227 591.296 214.07C591.296 214.803 591.182 215.415 590.953 215.907C590.725 216.399 590.405 216.807 589.995 217.129C589.591 217.445 589.119 217.706 588.58 217.911L587.569 218.482H583.342L583.324 216.101H586.453C586.846 216.101 587.171 216.03 587.429 215.89C587.687 215.749 587.88 215.55 588.009 215.292C588.144 215.028 588.211 214.715 588.211 214.352C588.211 213.982 588.144 213.666 588.009 213.402C587.874 213.139 587.675 212.937 587.411 212.796C587.153 212.655 586.834 212.585 586.453 212.585H584.502V223H581.417V210.203ZM588.422 223L585.592 217.34L588.861 217.322L591.727 222.868V223H588.422ZM597.624 223.176C596.851 223.176 596.159 223.056 595.55 222.815C594.94 222.569 594.425 222.232 594.003 221.805C593.587 221.377 593.268 220.885 593.045 220.328C592.828 219.771 592.72 219.183 592.72 218.562V218.228C592.72 217.53 592.816 216.886 593.01 216.294C593.203 215.696 593.49 215.175 593.871 214.729C594.252 214.284 594.729 213.938 595.304 213.692C595.878 213.44 596.546 213.314 597.308 213.314C597.981 213.314 598.585 213.423 599.118 213.64C599.651 213.856 600.103 214.167 600.472 214.571C600.847 214.976 601.131 215.465 601.324 216.039C601.523 216.613 601.623 217.258 601.623 217.973V219.177H593.854V217.322H598.731V217.094C598.737 216.777 598.682 216.508 598.564 216.285C598.453 216.062 598.289 215.893 598.072 215.775C597.855 215.658 597.592 215.6 597.281 215.6C596.959 215.6 596.692 215.67 596.481 215.811C596.276 215.951 596.115 216.145 595.998 216.391C595.887 216.631 595.808 216.909 595.761 217.226C595.714 217.542 595.69 217.876 595.69 218.228V218.562C595.69 218.913 595.737 219.232 595.831 219.52C595.931 219.807 596.071 220.053 596.253 220.258C596.44 220.457 596.663 220.612 596.921 220.724C597.185 220.835 597.483 220.891 597.817 220.891C598.222 220.891 598.62 220.814 599.013 220.662C599.405 220.51 599.742 220.258 600.023 219.906L601.368 221.506C601.175 221.781 600.899 222.048 600.542 222.306C600.19 222.563 599.769 222.774 599.276 222.938C598.784 223.097 598.233 223.176 597.624 223.176ZM608.294 220.82V209.5H611.273V223H608.602L608.294 220.82ZM602.458 218.359V218.175C602.458 217.454 602.537 216.798 602.695 216.206C602.854 215.608 603.088 215.096 603.398 214.668C603.709 214.234 604.096 213.9 604.559 213.666C605.021 213.432 605.555 213.314 606.158 213.314C606.697 213.314 607.169 213.44 607.573 213.692C607.978 213.938 608.323 214.284 608.61 214.729C608.897 215.175 609.132 215.696 609.313 216.294C609.495 216.886 609.633 217.524 609.727 218.21V218.43C609.633 219.074 609.495 219.684 609.313 220.258C609.132 220.826 608.897 221.33 608.61 221.77C608.323 222.209 607.975 222.555 607.564 222.807C607.16 223.053 606.686 223.176 606.141 223.176C605.537 223.176 605.004 223.056 604.541 222.815C604.084 222.575 603.7 222.238 603.39 221.805C603.085 221.371 602.854 220.861 602.695 220.275C602.537 219.689 602.458 219.051 602.458 218.359ZM605.42 218.175V218.359C605.42 218.717 605.443 219.048 605.49 219.353C605.537 219.657 605.616 219.927 605.728 220.161C605.845 220.39 605.997 220.568 606.185 220.697C606.378 220.826 606.615 220.891 606.896 220.891C607.277 220.891 607.591 220.8 607.837 220.618C608.089 220.437 608.273 220.179 608.391 219.845C608.514 219.511 608.566 219.118 608.549 218.667V217.973C608.561 217.586 608.534 217.246 608.47 216.953C608.405 216.654 608.303 216.405 608.162 216.206C608.027 216.007 607.854 215.857 607.644 215.758C607.438 215.652 607.195 215.6 606.914 215.6C606.639 215.6 606.404 215.664 606.211 215.793C606.023 215.922 605.871 216.104 605.754 216.338C605.637 216.566 605.552 216.839 605.499 217.155C605.446 217.466 605.42 217.806 605.42 218.175ZM618.507 220.688V213.49H621.478V223H618.7L618.507 220.688ZM618.788 218.755L619.562 218.737C619.562 219.376 619.485 219.968 619.333 220.513C619.181 221.052 618.955 221.521 618.656 221.919C618.363 222.317 618 222.628 617.566 222.851C617.139 223.067 616.644 223.176 616.081 223.176C615.612 223.176 615.182 223.111 614.789 222.982C614.402 222.848 614.068 222.64 613.787 222.358C613.506 222.071 613.286 221.705 613.128 221.26C612.976 220.809 612.899 220.27 612.899 219.643V213.49H615.861V219.66C615.861 219.871 615.888 220.053 615.94 220.205C615.993 220.357 616.069 220.486 616.169 220.592C616.269 220.691 616.392 220.768 616.538 220.82C616.69 220.867 616.863 220.891 617.057 220.891C617.502 220.891 617.851 220.797 618.103 220.609C618.354 220.422 618.53 220.167 618.63 219.845C618.735 219.522 618.788 219.159 618.788 218.755ZM625.626 213.49L626.962 216.109L628.342 213.49H631.418L628.922 218.122L631.55 223H628.447L626.962 220.188L625.485 223H622.383L625.011 218.122L622.523 213.49H625.626Z" fill="white"/>
<rect x="558" y="196" width="96" height="41" rx="3" stroke="#424242" stroke-width="4"/>
<rect x="674" y="196" width="102" height="41" rx="3" fill="#424242"/>
<path d="M701.41 223H698.571L698.589 220.627H701.41C701.996 220.627 702.491 220.486 702.896 220.205C703.306 219.924 703.616 219.505 703.827 218.948C704.044 218.386 704.152 217.694 704.152 216.874V216.32C704.152 215.705 704.091 215.166 703.968 214.703C703.851 214.234 703.675 213.845 703.44 213.534C703.206 213.218 702.913 212.98 702.562 212.822C702.216 212.664 701.817 212.585 701.366 212.585H698.519V210.203H701.366C702.233 210.203 703.027 210.353 703.748 210.651C704.475 210.944 705.102 211.366 705.629 211.917C706.162 212.462 706.572 213.109 706.859 213.859C707.152 214.604 707.299 215.43 707.299 216.338V216.874C707.299 217.776 707.152 218.603 706.859 219.353C706.572 220.103 706.165 220.75 705.638 221.295C705.11 221.84 704.486 222.262 703.766 222.561C703.051 222.854 702.266 223 701.41 223ZM700.338 210.203V223H697.253V210.203H700.338ZM708.397 218.342V218.157C708.397 217.46 708.497 216.818 708.696 216.232C708.896 215.641 709.188 215.128 709.575 214.694C709.962 214.261 710.439 213.924 711.008 213.684C711.576 213.438 712.232 213.314 712.977 213.314C713.727 213.314 714.386 213.438 714.954 213.684C715.528 213.924 716.009 214.261 716.396 214.694C716.782 215.128 717.075 215.641 717.274 216.232C717.474 216.818 717.573 217.46 717.573 218.157V218.342C717.573 219.033 717.474 219.675 717.274 220.267C717.075 220.853 716.782 221.365 716.396 221.805C716.009 222.238 715.531 222.575 714.963 222.815C714.395 223.056 713.738 223.176 712.994 223.176C712.25 223.176 711.591 223.056 711.017 222.815C710.442 222.575 709.962 222.238 709.575 221.805C709.188 221.365 708.896 220.853 708.696 220.267C708.497 219.675 708.397 219.033 708.397 218.342ZM711.359 218.157V218.342C711.359 218.699 711.386 219.033 711.438 219.344C711.491 219.654 711.579 219.927 711.702 220.161C711.825 220.39 711.992 220.568 712.203 220.697C712.414 220.826 712.678 220.891 712.994 220.891C713.305 220.891 713.562 220.826 713.768 220.697C713.979 220.568 714.146 220.39 714.269 220.161C714.392 219.927 714.479 219.654 714.532 219.344C714.585 219.033 714.611 218.699 714.611 218.342V218.157C714.611 217.812 714.585 217.486 714.532 217.182C714.479 216.871 714.392 216.599 714.269 216.364C714.146 216.124 713.979 215.937 713.768 215.802C713.557 215.667 713.293 215.6 712.977 215.6C712.666 215.6 712.405 215.667 712.194 215.802C711.989 215.937 711.825 216.124 711.702 216.364C711.579 216.599 711.491 216.871 711.438 217.182C711.386 217.486 711.359 217.812 711.359 218.157ZM722.908 220.891C723.184 220.891 723.418 220.841 723.611 220.741C723.811 220.636 723.96 220.489 724.06 220.302C724.165 220.108 724.215 219.877 724.209 219.607H726.995C727.001 220.322 726.825 220.949 726.468 221.488C726.116 222.021 725.636 222.438 725.026 222.736C724.423 223.029 723.74 223.176 722.979 223.176C722.234 223.176 721.584 223.056 721.027 222.815C720.471 222.569 720.005 222.229 719.63 221.796C719.261 221.356 718.982 220.844 718.795 220.258C718.613 219.672 718.522 219.036 718.522 218.351V218.148C718.522 217.463 718.613 216.827 718.795 216.241C718.982 215.649 719.261 215.137 719.63 214.703C720.005 214.264 720.468 213.924 721.019 213.684C721.575 213.438 722.223 213.314 722.961 213.314C723.752 213.314 724.449 213.464 725.053 213.763C725.662 214.062 726.14 214.495 726.485 215.063C726.831 215.632 727.001 216.32 726.995 217.129H724.209C724.215 216.842 724.171 216.584 724.077 216.355C723.983 216.127 723.837 215.945 723.638 215.811C723.444 215.67 723.195 215.6 722.891 215.6C722.586 215.6 722.34 215.667 722.152 215.802C721.965 215.937 721.821 216.124 721.722 216.364C721.628 216.599 721.563 216.868 721.528 217.173C721.499 217.478 721.484 217.803 721.484 218.148V218.351C721.484 218.702 721.499 219.033 721.528 219.344C721.563 219.648 721.631 219.918 721.73 220.152C721.83 220.381 721.974 220.562 722.161 220.697C722.349 220.826 722.598 220.891 722.908 220.891ZM731.249 209.491V223H728.287V209.491H731.249ZM737.331 213.49L733.2 218.333L731.038 220.495L729.746 218.614L731.548 216.268L733.78 213.49H737.331ZM734.158 223L731.618 218.667L733.807 217.111L737.551 223H734.158ZM742.534 223.176C741.761 223.176 741.069 223.056 740.46 222.815C739.851 222.569 739.335 222.232 738.913 221.805C738.497 221.377 738.178 220.885 737.955 220.328C737.738 219.771 737.63 219.183 737.63 218.562V218.228C737.63 217.53 737.727 216.886 737.92 216.294C738.113 215.696 738.4 215.175 738.781 214.729C739.162 214.284 739.64 213.938 740.214 213.692C740.788 213.44 741.456 213.314 742.218 213.314C742.892 213.314 743.495 213.423 744.028 213.64C744.562 213.856 745.013 214.167 745.382 214.571C745.757 214.976 746.041 215.465 746.234 216.039C746.434 216.613 746.533 217.258 746.533 217.973V219.177H738.764V217.322H743.642V217.094C743.647 216.777 743.592 216.508 743.475 216.285C743.363 216.062 743.199 215.893 742.982 215.775C742.766 215.658 742.502 215.6 742.191 215.6C741.869 215.6 741.603 215.67 741.392 215.811C741.187 215.951 741.025 216.145 740.908 216.391C740.797 216.631 740.718 216.909 740.671 217.226C740.624 217.542 740.601 217.876 740.601 218.228V218.562C740.601 218.913 740.647 219.232 740.741 219.52C740.841 219.807 740.981 220.053 741.163 220.258C741.351 220.457 741.573 220.612 741.831 220.724C742.095 220.835 742.394 220.891 742.728 220.891C743.132 220.891 743.53 220.814 743.923 220.662C744.315 220.51 744.652 220.258 744.934 219.906L746.278 221.506C746.085 221.781 745.81 222.048 745.452 222.306C745.101 222.563 744.679 222.774 744.187 222.938C743.694 223.097 743.144 223.176 742.534 223.176ZM750.726 215.846V223H747.764V213.49H750.532L750.726 215.846ZM753.538 213.42L753.485 216.171C753.368 216.159 753.21 216.145 753.011 216.127C752.812 216.109 752.645 216.101 752.51 216.101C752.164 216.101 751.865 216.142 751.613 216.224C751.367 216.3 751.162 216.417 750.998 216.575C750.84 216.728 750.723 216.921 750.646 217.155C750.576 217.39 750.544 217.662 750.55 217.973L750.014 217.621C750.014 216.982 750.075 216.402 750.198 215.881C750.327 215.354 750.509 214.899 750.743 214.519C750.978 214.132 751.262 213.836 751.596 213.631C751.93 213.42 752.305 213.314 752.721 213.314C752.867 213.314 753.011 213.323 753.151 213.341C753.298 213.358 753.427 213.385 753.538 213.42Z" fill="white"/>
<rect x="674" y="196" width="102" height="41" rx="3" stroke="#424242" stroke-width="4"/>
<path d="M1066 0H1348C1356.28 0 1363 6.71573 1363 15V282C1363 290.284 1356.28 297 1348 297H1066V0Z" fill="white"/>
<path d="M1094.95 124.337C1090.57 125.961 1089.71 127.929 1089.47 137.033C1089.28 144.169 1089.28 144.219 1088.14 144.514C1087.05 144.809 1087 145.055 1087 148.451C1087 151.797 1087.1 152.093 1088.19 152.585C1089.38 153.126 1089.38 153.274 1089.38 158.933C1089.43 165.38 1089.81 167.988 1091.19 169.858C1092.76 172.073 1094.9 173.008 1098.95 173.254L1102.71 173.5V169.465V165.478H1100.14C1098.23 165.478 1097.52 165.281 1097.28 164.691C1097.14 164.248 1096.99 161.098 1096.99 157.703C1096.95 153.717 1096.71 150.911 1096.33 149.976C1095.85 148.746 1095.85 148.205 1096.38 146.925C1096.76 145.892 1096.99 143.185 1096.99 139.002C1096.99 134.77 1097.18 132.506 1097.57 132.112C1097.9 131.768 1099.18 131.522 1100.42 131.522H1102.71V127.585V123.648H1099.75C1098.09 123.697 1095.95 123.992 1094.95 124.337ZM1100.8 127.585C1100.8 129.258 1100.66 129.553 1099.85 129.553C1099.33 129.553 1098.14 129.848 1097.28 130.242L1095.66 130.931L1095.47 138.018C1095.33 143.53 1095.14 145.449 1094.47 146.876C1093.62 148.598 1093.62 148.697 1094.47 150.026C1095.19 151.157 1095.38 152.732 1095.57 158.687C1095.8 166.758 1095.8 166.659 1098.99 167.201C1100.71 167.496 1100.8 167.594 1100.8 169.465V171.384H1098.56C1095.57 171.384 1093.14 170.104 1092.14 167.939C1091.43 166.561 1091.28 164.888 1091.28 159.425C1091.28 152.831 1091.24 152.585 1090.09 151.502C1088.48 149.927 1088.48 147.27 1090.09 145.596C1091.24 144.415 1091.28 144.169 1091.28 137.575C1091.28 132.112 1091.43 130.439 1092.14 129.061C1093.14 126.896 1095.57 125.616 1098.56 125.616H1100.8V127.585Z" fill="black"/>
<path d="M1119.84 127.486V131.472L1122.36 131.62L1124.84 131.768L1125.07 138.904C1125.26 143.333 1125.6 146.531 1125.98 147.319C1126.5 148.402 1126.5 148.795 1125.98 149.78C1125.55 150.567 1125.22 153.421 1125.07 158.096L1124.84 165.232L1122.36 165.38L1119.84 165.528V169.514V173.5L1123.65 173.205C1128.26 172.909 1130.5 171.679 1131.78 168.726C1132.5 167.053 1132.69 165.478 1132.69 159.917C1132.69 153.175 1132.69 153.175 1133.88 152.585C1134.97 152.093 1135.07 151.797 1135.07 148.5C1135.07 145.203 1134.97 144.907 1133.88 144.415C1132.69 143.825 1132.69 143.825 1132.69 137.083C1132.69 131.522 1132.5 129.947 1131.78 128.274C1130.5 125.321 1128.26 124.091 1123.65 123.795L1119.84 123.5V127.486ZM1127.45 126.354C1130.45 127.929 1130.78 129.012 1130.78 136.492C1130.78 143.579 1131.21 145.547 1132.78 146.039C1134.26 146.581 1133.93 149.829 1132.21 151.6L1130.78 153.077V160.065C1130.78 165.675 1130.64 167.299 1130.02 168.431C1128.98 170.203 1126.55 171.384 1123.88 171.384H1121.74V169.465C1121.74 167.594 1121.79 167.545 1123.65 167.201C1126.64 166.659 1126.98 165.774 1126.98 158.343C1126.98 153.224 1127.17 151.6 1127.83 150.222C1128.6 148.598 1128.6 148.402 1127.83 146.778C1127.12 145.449 1126.98 143.825 1126.98 138.657C1126.98 131.177 1126.6 130.242 1123.6 129.75C1121.79 129.455 1121.74 129.356 1121.74 127.535V125.616H1123.88C1125.12 125.616 1126.69 125.961 1127.45 126.354Z" fill="black"/>
<path d="M1105.56 136.443V142.348H1111.27H1117.03L1116.89 136.541L1116.75 130.783L1111.18 130.636L1105.56 130.488V136.443ZM1115.08 136.443V140.38H1111.27H1107.46V136.443V132.506H1111.27H1115.08V136.443Z" fill="black"/>
<path d="M1324.96 144.465C1324.96 154.307 1325.48 156.472 1328.43 158.49C1330.05 159.622 1330.91 159.819 1333.57 159.819C1336.43 159.819 1336.95 159.671 1338.62 158.293C1342.71 154.848 1343.14 149.435 1339.62 145.498C1336.57 142.102 1332.24 141.61 1328.72 144.268C1327.96 144.858 1327.25 145.301 1327.1 145.301C1326.96 145.301 1326.86 143.283 1326.86 140.872C1326.86 136.787 1326.82 136.443 1325.91 136.443C1325.01 136.443 1324.96 136.787 1324.96 144.465ZM1336.81 145.695C1338.81 147.22 1339.76 148.943 1339.81 151.01C1339.86 154.848 1337.67 157.457 1333.96 157.949C1331.2 158.343 1329.05 157.112 1327.77 154.307C1326.06 150.616 1327.29 146.925 1330.91 145.203C1333.05 144.169 1335.05 144.366 1336.81 145.695Z" fill="black"/>
<path d="M1210.26 148.5C1210.26 159.72 1210.31 160.065 1211.22 160.065C1212.07 160.065 1212.17 159.72 1212.17 156.472C1212.17 153.52 1212.36 152.683 1213.07 151.994C1213.93 151.207 1214.07 151.354 1217.16 155.636C1219.97 159.524 1220.54 160.065 1221.78 160.065C1223.45 160.065 1223.73 160.606 1218.97 153.963L1216.02 149.78L1219.4 146.581L1222.83 143.333H1221.26C1219.97 143.333 1218.97 143.923 1216.21 146.531C1214.31 148.303 1212.6 149.73 1212.45 149.73C1212.31 149.73 1212.17 146.827 1212.17 143.333C1212.17 137.28 1212.12 136.935 1211.22 136.935C1210.31 136.935 1210.26 137.28 1210.26 148.5Z" fill="black"/>
<path d="M1238.82 148.5C1238.82 159.72 1238.87 160.065 1239.77 160.065C1240.68 160.065 1240.72 159.72 1240.72 155.094C1240.72 150.911 1240.87 149.829 1241.72 148.254C1243.58 144.858 1247.48 143.972 1249.57 146.482C1250.62 147.713 1250.72 148.205 1250.72 153.963V160.065H1251.95H1253.24L1253 153.667C1252.76 146.433 1252.29 145.301 1249.15 143.677C1246.91 142.545 1244.48 142.988 1242.34 144.907L1240.72 146.384V141.659C1240.72 137.28 1240.68 136.935 1239.77 136.935C1238.87 136.935 1238.82 137.28 1238.82 148.5Z" fill="black"/>
<path d="M1148.87 148.746V160.065H1150.06H1151.25V154.652V149.238H1156.96H1162.67V154.652C1162.67 159.72 1162.72 160.065 1163.62 160.065C1164.53 160.065 1164.58 159.72 1164.58 148.746C1164.58 137.772 1164.53 137.427 1163.62 137.427C1162.72 137.427 1162.67 137.772 1162.67 142.102V146.778H1156.96H1151.25V142.102C1151.25 137.427 1151.25 137.427 1150.06 137.427H1148.87V148.746Z" fill="black"/>
<path d="M1223.59 138.362C1223.59 139.199 1223.97 139.346 1226.11 139.494L1228.59 139.642L1228.73 149.829C1228.82 159.622 1228.87 160.065 1229.78 160.065C1230.68 160.065 1230.73 159.622 1230.82 149.829L1230.97 139.642L1233.49 139.494C1235.58 139.346 1235.96 139.199 1235.96 138.362C1235.96 137.476 1235.58 137.427 1229.78 137.427C1223.97 137.427 1223.59 137.476 1223.59 138.362Z" fill="black"/>
<path d="M1276.56 137.772C1276.7 138.018 1278.13 143.087 1279.75 149.091C1281.37 155.144 1282.84 160.065 1283.03 160.065C1283.17 160.065 1284.7 156.472 1286.36 152.043C1288.03 147.663 1289.55 143.874 1289.74 143.677C1289.89 143.48 1291.46 146.974 1293.12 151.502C1294.83 155.98 1296.41 159.671 1296.6 159.72C1296.93 159.819 1303.02 139.15 1303.07 137.772C1303.07 137.575 1302.59 137.427 1301.97 137.427C1301.02 137.427 1300.74 138.116 1298.79 145.301C1297.6 149.632 1296.5 153.175 1296.36 153.175C1296.22 153.175 1294.74 149.632 1293.07 145.252C1291.41 140.921 1289.93 137.526 1289.69 137.772C1289.5 137.968 1288.03 141.61 1286.41 145.793C1284.79 149.976 1283.41 153.47 1283.37 153.569C1283.27 153.618 1282.41 150.764 1281.46 147.171C1278.7 136.984 1278.89 137.427 1277.56 137.427C1276.89 137.427 1276.46 137.575 1276.56 137.772Z" fill="black"/>
<path d="M1174.33 143.234C1168.1 146.236 1167.24 154.504 1172.71 158.736C1175.24 160.655 1180.52 160.311 1182.42 158.096C1183.61 156.718 1184.09 156.866 1184.09 158.589C1184.09 159.72 1184.28 160.065 1185.04 160.065C1185.94 160.065 1185.99 159.72 1185.99 154.799C1185.99 150.468 1185.8 149.189 1184.99 147.368C1183.04 143.283 1178.19 141.364 1174.33 143.234ZM1181.42 146.335C1183.85 148.5 1184.18 151.354 1182.42 154.455C1180.52 157.801 1177.47 158.933 1174.52 157.358C1170.33 155.094 1170.14 148.352 1174.24 145.793C1176.62 144.268 1179.42 144.514 1181.42 146.335Z" fill="black"/>
<path d="M1195.84 142.939C1191.8 144.071 1188.85 148.894 1189.56 153.175C1189.94 155.439 1192.32 158.49 1194.37 159.376C1197.84 160.902 1204.22 159.573 1205.5 157.112C1206.27 155.587 1204.27 155.291 1202.84 156.669C1201.32 158.146 1197.22 158.539 1195.08 157.407C1192.94 156.226 1191.7 153.913 1191.7 151.01C1191.7 148.894 1191.89 148.402 1193.56 146.728C1195.27 144.957 1195.56 144.809 1198.22 144.809C1200.41 144.809 1201.36 145.055 1202.74 146.039C1205.08 147.713 1207.12 146.974 1205.17 145.203C1202.7 142.988 1198.89 142.053 1195.84 142.939Z" fill="black"/>
<path d="M1262.47 143.037C1258.81 144.415 1256.86 147.368 1256.86 151.453C1256.86 154.602 1257.76 156.62 1260.09 158.441C1261.62 159.671 1262.23 159.819 1265.28 159.819C1269.09 159.819 1270.75 158.982 1272.13 156.423C1272.75 155.242 1272.75 155.045 1272.13 154.652C1271.61 154.307 1271.18 154.504 1270.52 155.39C1268.75 157.9 1264.8 158.884 1262.14 157.457C1260.76 156.719 1258.81 153.913 1258.81 152.634C1258.81 151.748 1259.33 151.699 1266.23 151.699H1273.66L1273.32 149.829C1272.42 144.563 1267.14 141.266 1262.47 143.037ZM1268.75 145.744C1269.61 146.236 1271.18 148.648 1271.18 149.484C1271.18 149.632 1268.52 149.73 1265.23 149.73C1258.57 149.73 1258.24 149.484 1260.62 146.728C1262.62 144.415 1265.66 144.071 1268.75 145.744Z" fill="black"/>
<path d="M1310.54 142.939C1304.97 144.465 1302.69 152.437 1306.54 156.965C1308.4 159.13 1310.45 160.065 1313.35 160.065C1316.01 160.065 1318.77 158.589 1319.92 156.571C1320.63 155.291 1320.68 155.094 1320.01 154.848C1319.54 154.652 1318.54 155.193 1317.35 156.325C1315.73 157.85 1315.11 158.096 1313.16 158.096C1309.73 158.096 1306.92 155.734 1306.88 152.781C1306.88 151.699 1306.92 151.699 1314.01 151.699H1321.15V150.173C1321.15 145.301 1315.63 141.561 1310.54 142.939ZM1316.97 146.138C1317.49 146.63 1318.2 147.614 1318.58 148.352L1319.3 149.73H1313.11C1307.16 149.73 1306.97 149.681 1307.21 148.697C1307.59 147.171 1310.06 144.907 1311.54 144.711C1313.44 144.465 1315.87 145.104 1316.97 146.138Z" fill="black"/>
<path d="M1105.56 151.699V157.604H1108.42C1110.94 157.604 1111.27 157.703 1111.27 158.589C1111.27 161.098 1108.94 163.51 1106.51 163.51C1105.8 163.51 1105.56 163.805 1105.56 164.789C1105.56 166.069 1105.61 166.118 1108.32 165.823C1111.8 165.528 1114.56 164.1 1115.79 161.935C1116.6 160.557 1116.75 159.179 1116.89 153.028L1117.08 145.793H1111.32H1105.56V151.699ZM1114.98 153.864C1114.84 159.13 1114.7 160.213 1113.84 161.344C1112.65 163.018 1111.41 163.608 1111.99 162.23C1112.18 161.689 1112.46 160.016 1112.6 158.441L1112.79 155.636H1110.13H1107.46V151.699V147.762H1111.32H1115.17L1114.98 153.864Z" fill="black"/>
</svg>
