<svg width="1363" height="163" viewBox="0 0 1363 163" fill="none" xmlns="http://www.w3.org/2000/svg">
<path d="M0 15C0 6.71573 6.71573 0 15 0H37V163H15C6.71573 163 0 156.284 0 148V15Z" fill="#55ABE0"/>
<rect width="1097" height="163" transform="translate(37)" fill="#F0F0F0"/>
<path d="M101.906 53.9219L94.3945 51.2383V48.0859L104.602 52.375V54.6367L101.906 53.9219ZM94.3945 56.1719L101.918 53.4297L104.602 52.7852V55.0352L94.3945 59.3242V56.1719ZM124.277 50.8867V53.6289H115.371V50.8867H124.277ZM116.414 43.9375V61H112.898V43.9375H116.414ZM126.785 43.9375V61H123.281V43.9375H126.785ZM136.477 58.1406V52.4922C136.477 52.0859 136.41 51.7383 136.277 51.4492C136.145 51.1523 135.938 50.9219 135.656 50.7578C135.383 50.5938 135.027 50.5117 134.59 50.5117C134.215 50.5117 133.891 50.5781 133.617 50.7109C133.344 50.8359 133.133 51.0195 132.984 51.2617C132.836 51.4961 132.762 51.7734 132.762 52.0938H129.387C129.387 51.5547 129.512 51.043 129.762 50.5586C130.012 50.0742 130.375 49.6484 130.852 49.2812C131.328 48.9062 131.895 48.6133 132.551 48.4023C133.215 48.1914 133.957 48.0859 134.777 48.0859C135.762 48.0859 136.637 48.25 137.402 48.5781C138.168 48.9062 138.77 49.3984 139.207 50.0547C139.652 50.7109 139.875 51.5312 139.875 52.5156V57.9414C139.875 58.6367 139.918 59.207 140.004 59.6523C140.09 60.0898 140.215 60.4727 140.379 60.8008V61H136.969C136.805 60.6562 136.68 60.2266 136.594 59.7109C136.516 59.1875 136.477 58.6641 136.477 58.1406ZM136.922 53.2773L136.945 55.1875H135.059C134.613 55.1875 134.227 55.2383 133.898 55.3398C133.57 55.4414 133.301 55.5859 133.09 55.7734C132.879 55.9531 132.723 56.1641 132.621 56.4062C132.527 56.6484 132.48 56.9141 132.48 57.2031C132.48 57.4922 132.547 57.7539 132.68 57.9883C132.812 58.2148 133.004 58.3945 133.254 58.5273C133.504 58.6523 133.797 58.7148 134.133 58.7148C134.641 58.7148 135.082 58.6133 135.457 58.4102C135.832 58.207 136.121 57.957 136.324 57.6602C136.535 57.3633 136.645 57.082 136.652 56.8164L137.543 58.2461C137.418 58.5664 137.246 58.8984 137.027 59.2422C136.816 59.5859 136.547 59.9102 136.219 60.2148C135.891 60.5117 135.496 60.7578 135.035 60.9531C134.574 61.1406 134.027 61.2344 133.395 61.2344C132.59 61.2344 131.859 61.0742 131.203 60.7539C130.555 60.4258 130.039 59.9766 129.656 59.4062C129.281 58.8281 129.094 58.1719 129.094 57.4375C129.094 56.7734 129.219 56.1836 129.469 55.668C129.719 55.1523 130.086 54.7188 130.57 54.3672C131.062 54.0078 131.676 53.7383 132.41 53.5586C133.145 53.3711 133.996 53.2773 134.965 53.2773H136.922ZM147.715 58.5977C148.129 58.5977 148.496 58.5195 148.816 58.3633C149.137 58.1992 149.387 57.9727 149.566 57.6836C149.754 57.3867 149.852 57.0391 149.859 56.6406H153.035C153.027 57.5312 152.789 58.3242 152.32 59.0195C151.852 59.707 151.223 60.25 150.434 60.6484C149.645 61.0391 148.762 61.2344 147.785 61.2344C146.801 61.2344 145.941 61.0703 145.207 60.7422C144.48 60.4141 143.875 59.9609 143.391 59.3828C142.906 58.7969 142.543 58.1172 142.301 57.3438C142.059 56.5625 141.938 55.7266 141.938 54.8359V54.4961C141.938 53.5977 142.059 52.7617 142.301 51.9883C142.543 51.207 142.906 50.5273 143.391 49.9492C143.875 49.3633 144.48 48.9062 145.207 48.5781C145.934 48.25 146.785 48.0859 147.762 48.0859C148.801 48.0859 149.711 48.2852 150.492 48.6836C151.281 49.082 151.898 49.6523 152.344 50.3945C152.797 51.1289 153.027 52 153.035 53.0078H149.859C149.852 52.5859 149.762 52.2031 149.59 51.8594C149.426 51.5156 149.184 51.2422 148.863 51.0391C148.551 50.8281 148.164 50.7227 147.703 50.7227C147.211 50.7227 146.809 50.8281 146.496 51.0391C146.184 51.2422 145.941 51.5234 145.77 51.8828C145.598 52.2344 145.477 52.6367 145.406 53.0898C145.344 53.5352 145.312 54.0039 145.312 54.4961V54.8359C145.312 55.3281 145.344 55.8008 145.406 56.2539C145.469 56.707 145.586 57.1094 145.758 57.4609C145.938 57.8125 146.184 58.0898 146.496 58.293C146.809 58.4961 147.215 58.5977 147.715 58.5977ZM158.367 42.9883V61H154.992V42.9883H158.367ZM166.359 48.3203L160.852 54.6016L157.898 57.5898L156.668 55.1523L159.012 52.1758L162.305 48.3203H166.359ZM162.855 61L159.105 55.1406L161.438 53.1016L166.746 61H162.855ZM175.652 43.9375V61H172.148V43.9375H175.652ZM180.902 43.9375V46.6914H166.98V43.9375H180.902ZM185.988 43V61H182.613V43H185.988ZM185.508 54.2148H184.582C184.59 53.332 184.707 52.5195 184.934 51.7773C185.16 51.0273 185.484 50.3789 185.906 49.832C186.328 49.2773 186.832 48.8477 187.418 48.543C188.012 48.2383 188.668 48.0859 189.387 48.0859C190.012 48.0859 190.578 48.1758 191.086 48.3555C191.602 48.5273 192.043 48.8086 192.41 49.1992C192.785 49.582 193.074 50.0859 193.277 50.7109C193.48 51.3359 193.582 52.0938 193.582 52.9844V61H190.184V52.9609C190.184 52.3984 190.102 51.957 189.938 51.6367C189.781 51.3086 189.551 51.0781 189.246 50.9453C188.949 50.8047 188.582 50.7344 188.145 50.7344C187.66 50.7344 187.246 50.8242 186.902 51.0039C186.566 51.1836 186.297 51.4336 186.094 51.7539C185.891 52.0664 185.742 52.4336 185.648 52.8555C185.555 53.2773 185.508 53.7305 185.508 54.2148ZM201.984 61.2344C201 61.2344 200.117 61.0781 199.336 60.7656C198.555 60.4453 197.891 60.0039 197.344 59.4414C196.805 58.8789 196.391 58.2266 196.102 57.4844C195.812 56.7344 195.668 55.9375 195.668 55.0938V54.625C195.668 53.6641 195.805 52.7852 196.078 51.9883C196.352 51.1914 196.742 50.5 197.25 49.9141C197.766 49.3281 198.391 48.8789 199.125 48.5664C199.859 48.2461 200.688 48.0859 201.609 48.0859C202.508 48.0859 203.305 48.2344 204 48.5312C204.695 48.8281 205.277 49.25 205.746 49.7969C206.223 50.3438 206.582 51 206.824 51.7656C207.066 52.5234 207.188 53.3672 207.188 54.2969V55.7031H197.109V53.4531H203.871V53.1953C203.871 52.7266 203.785 52.3086 203.613 51.9414C203.449 51.5664 203.199 51.2695 202.863 51.0508C202.527 50.832 202.098 50.7227 201.574 50.7227C201.129 50.7227 200.746 50.8203 200.426 51.0156C200.105 51.2109 199.844 51.4844 199.641 51.8359C199.445 52.1875 199.297 52.6016 199.195 53.0781C199.102 53.5469 199.055 54.0625 199.055 54.625V55.0938C199.055 55.6016 199.125 56.0703 199.266 56.5C199.414 56.9297 199.621 57.3008 199.887 57.6133C200.16 57.9258 200.488 58.168 200.871 58.3398C201.262 58.5117 201.703 58.5977 202.195 58.5977C202.805 58.5977 203.371 58.4805 203.895 58.2461C204.426 58.0039 204.883 57.6406 205.266 57.1562L206.906 58.9375C206.641 59.3203 206.277 59.6875 205.816 60.0391C205.363 60.3906 204.816 60.6797 204.176 60.9062C203.535 61.125 202.805 61.2344 201.984 61.2344ZM213.434 58.293L216.832 43.9375H218.73L219.164 46.3281L215.543 61H213.504L213.434 58.293ZM211.688 43.9375L214.5 58.293L214.266 61H211.992L208.207 43.9375H211.688ZM222.152 58.2344L224.93 43.9375H228.41L224.637 61H222.363L222.152 58.2344ZM219.797 43.9375L223.219 58.3516L223.125 61H221.086L217.441 46.3164L217.91 43.9375H219.797ZM235.57 61.2344C234.586 61.2344 233.703 61.0781 232.922 60.7656C232.141 60.4453 231.477 60.0039 230.93 59.4414C230.391 58.8789 229.977 58.2266 229.688 57.4844C229.398 56.7344 229.254 55.9375 229.254 55.0938V54.625C229.254 53.6641 229.391 52.7852 229.664 51.9883C229.938 51.1914 230.328 50.5 230.836 49.9141C231.352 49.3281 231.977 48.8789 232.711 48.5664C233.445 48.2461 234.273 48.0859 235.195 48.0859C236.094 48.0859 236.891 48.2344 237.586 48.5312C238.281 48.8281 238.863 49.25 239.332 49.7969C239.809 50.3438 240.168 51 240.41 51.7656C240.652 52.5234 240.773 53.3672 240.773 54.2969V55.7031H230.695V53.4531H237.457V53.1953C237.457 52.7266 237.371 52.3086 237.199 51.9414C237.035 51.5664 236.785 51.2695 236.449 51.0508C236.113 50.832 235.684 50.7227 235.16 50.7227C234.715 50.7227 234.332 50.8203 234.012 51.0156C233.691 51.2109 233.43 51.4844 233.227 51.8359C233.031 52.1875 232.883 52.6016 232.781 53.0781C232.688 53.5469 232.641 54.0625 232.641 54.625V55.0938C232.641 55.6016 232.711 56.0703 232.852 56.5C233 56.9297 233.207 57.3008 233.473 57.6133C233.746 57.9258 234.074 58.168 234.457 58.3398C234.848 58.5117 235.289 58.5977 235.781 58.5977C236.391 58.5977 236.957 58.4805 237.48 58.2461C238.012 58.0039 238.469 57.6406 238.852 57.1562L240.492 58.9375C240.227 59.3203 239.863 59.6875 239.402 60.0391C238.949 60.3906 238.402 60.6797 237.762 60.9062C237.121 61.125 236.391 61.2344 235.57 61.2344ZM242.695 43H246.07V58.0938L245.73 61H242.695V43ZM254.098 54.5312V54.7773C254.098 55.7227 253.996 56.5898 253.793 57.3789C253.598 58.168 253.293 58.8516 252.879 59.4297C252.465 60 251.949 60.4453 251.332 60.7656C250.723 61.0781 250.004 61.2344 249.176 61.2344C248.402 61.2344 247.73 61.0781 247.16 60.7656C246.598 60.4531 246.125 60.0117 245.742 59.4414C245.359 58.8711 245.051 58.2031 244.816 57.4375C244.582 56.6719 244.406 55.8359 244.289 54.9297V54.3906C244.406 53.4844 244.582 52.6484 244.816 51.8828C245.051 51.1172 245.359 50.4492 245.742 49.8789C246.125 49.3086 246.598 48.8672 247.16 48.5547C247.723 48.2422 248.387 48.0859 249.152 48.0859C249.988 48.0859 250.715 48.2461 251.332 48.5664C251.957 48.8789 252.473 49.3242 252.879 49.9023C253.293 50.4727 253.598 51.1523 253.793 51.9414C253.996 52.7227 254.098 53.5859 254.098 54.5312ZM250.723 54.7773V54.5312C250.723 54.0156 250.684 53.5312 250.605 53.0781C250.535 52.6172 250.41 52.2148 250.23 51.8711C250.051 51.5195 249.805 51.2422 249.492 51.0391C249.188 50.8359 248.793 50.7344 248.309 50.7344C247.848 50.7344 247.457 50.8125 247.137 50.9688C246.816 51.125 246.551 51.3438 246.34 51.625C246.137 51.9062 245.984 52.2422 245.883 52.6328C245.781 53.0156 245.719 53.4375 245.695 53.8984V55.4336C245.719 56.0508 245.82 56.5977 246 57.0742C246.188 57.543 246.469 57.9141 246.844 58.1875C247.227 58.4531 247.723 58.5859 248.332 58.5859C248.809 58.5859 249.203 58.4922 249.516 58.3047C249.828 58.1172 250.07 57.8516 250.242 57.5078C250.422 57.1641 250.547 56.7617 250.617 56.3008C250.688 55.832 250.723 55.3242 250.723 54.7773Z" fill="#888888"/>
<path d="M109.219 107.422H100.734V101.07H109.219C110.375 101.07 111.312 100.875 112.031 100.484C112.75 100.094 113.273 99.5547 113.602 98.8672C113.945 98.1641 114.117 97.375 114.117 96.5C114.117 95.5625 113.945 94.6953 113.602 93.8984C113.273 93.1016 112.75 92.4609 112.031 91.9766C111.312 91.4766 110.375 91.2266 109.219 91.2266H103.828V119H95.6016V84.875H109.219C111.953 84.875 114.305 85.375 116.273 86.375C118.258 87.375 119.781 88.75 120.844 90.5C121.906 92.2344 122.438 94.2188 122.438 96.4531C122.438 98.6562 121.906 100.578 120.844 102.219C119.781 103.859 118.258 105.141 116.273 106.062C114.305 106.969 111.953 107.422 109.219 107.422ZM138.445 119.469C136.383 119.469 134.539 119.148 132.914 118.508C131.289 117.852 129.914 116.953 128.789 115.812C127.68 114.672 126.828 113.359 126.234 111.875C125.656 110.391 125.367 108.82 125.367 107.164V106.273C125.367 104.414 125.625 102.695 126.141 101.117C126.656 99.5234 127.422 98.1328 128.438 96.9453C129.453 95.7578 130.727 94.8359 132.258 94.1797C133.789 93.5078 135.57 93.1719 137.602 93.1719C139.398 93.1719 141.008 93.4609 142.43 94.0391C143.852 94.6172 145.055 95.4453 146.039 96.5234C147.039 97.6016 147.797 98.9062 148.312 100.438C148.844 101.969 149.109 103.688 149.109 105.594V108.805H128.391V103.859H141.398V103.25C141.414 102.406 141.266 101.688 140.953 101.094C140.656 100.5 140.219 100.047 139.641 99.7344C139.062 99.4219 138.359 99.2656 137.531 99.2656C136.672 99.2656 135.961 99.4531 135.398 99.8281C134.852 100.203 134.422 100.719 134.109 101.375C133.812 102.016 133.602 102.758 133.477 103.602C133.352 104.445 133.289 105.336 133.289 106.273V107.164C133.289 108.102 133.414 108.953 133.664 109.719C133.93 110.484 134.305 111.141 134.789 111.688C135.289 112.219 135.883 112.633 136.57 112.93C137.273 113.227 138.07 113.375 138.961 113.375C140.039 113.375 141.102 113.172 142.148 112.766C143.195 112.359 144.094 111.688 144.844 110.75L148.43 115.016C147.914 115.75 147.18 116.461 146.227 117.148C145.289 117.836 144.164 118.398 142.852 118.836C141.539 119.258 140.07 119.469 138.445 119.469ZM160.289 99.9219V119H152.391V93.6406H159.773L160.289 99.9219ZM167.789 93.4531L167.648 100.789C167.336 100.758 166.914 100.719 166.383 100.672C165.852 100.625 165.406 100.602 165.047 100.602C164.125 100.602 163.328 100.711 162.656 100.93C162 101.133 161.453 101.445 161.016 101.867C160.594 102.273 160.281 102.789 160.078 103.414C159.891 104.039 159.805 104.766 159.82 105.594L158.391 104.656C158.391 102.953 158.555 101.406 158.883 100.016C159.227 98.6094 159.711 97.3984 160.336 96.3828C160.961 95.3516 161.719 94.5625 162.609 94.0156C163.5 93.4531 164.5 93.1719 165.609 93.1719C166 93.1719 166.383 93.1953 166.758 93.2422C167.148 93.2891 167.492 93.3594 167.789 93.4531ZM180.703 119H172.758V91.5781C172.758 89.6094 173.156 87.9531 173.953 86.6094C174.75 85.2656 175.875 84.25 177.328 83.5625C178.781 82.8594 180.5 82.5078 182.484 82.5078C183.172 82.5078 183.82 82.5547 184.43 82.6484C185.039 82.7422 185.633 82.8594 186.211 83L186.234 88.8125C185.953 88.7344 185.664 88.6797 185.367 88.6484C185.07 88.6172 184.703 88.6016 184.266 88.6016C183.5 88.6016 182.852 88.7188 182.32 88.9531C181.789 89.1719 181.383 89.5078 181.102 89.9609C180.836 90.3984 180.703 90.9375 180.703 91.5781V119ZM185.625 93.6406V99.125H169.102V93.6406H185.625ZM187.477 106.578V106.086C187.477 104.227 187.742 102.516 188.273 100.953C188.805 99.375 189.586 98.0078 190.617 96.8516C191.648 95.6953 192.922 94.7969 194.438 94.1562C195.953 93.5 197.703 93.1719 199.688 93.1719C201.688 93.1719 203.445 93.5 204.961 94.1562C206.492 94.7969 207.773 95.6953 208.805 96.8516C209.836 98.0078 210.617 99.375 211.148 100.953C211.68 102.516 211.945 104.227 211.945 106.086V106.578C211.945 108.422 211.68 110.133 211.148 111.711C210.617 113.273 209.836 114.641 208.805 115.812C207.773 116.969 206.5 117.867 204.984 118.508C203.469 119.148 201.719 119.469 199.734 119.469C197.75 119.469 195.992 119.148 194.461 118.508C192.93 117.867 191.648 116.969 190.617 115.812C189.586 114.641 188.805 113.273 188.273 111.711C187.742 110.133 187.477 108.422 187.477 106.578ZM195.375 106.086V106.578C195.375 107.531 195.445 108.422 195.586 109.25C195.727 110.078 195.961 110.805 196.289 111.43C196.617 112.039 197.062 112.516 197.625 112.859C198.188 113.203 198.891 113.375 199.734 113.375C200.562 113.375 201.25 113.203 201.797 112.859C202.359 112.516 202.805 112.039 203.133 111.43C203.461 110.805 203.695 110.078 203.836 109.25C203.977 108.422 204.047 107.531 204.047 106.578V106.086C204.047 105.164 203.977 104.297 203.836 103.484C203.695 102.656 203.461 101.93 203.133 101.305C202.805 100.664 202.359 100.164 201.797 99.8047C201.234 99.4453 200.531 99.2656 199.688 99.2656C198.859 99.2656 198.164 99.4453 197.602 99.8047C197.055 100.164 196.617 100.664 196.289 101.305C195.961 101.93 195.727 102.656 195.586 103.484C195.445 104.297 195.375 105.164 195.375 106.086ZM223.43 99.9219V119H215.531V93.6406H222.914L223.43 99.9219ZM230.93 93.4531L230.789 100.789C230.477 100.758 230.055 100.719 229.523 100.672C228.992 100.625 228.547 100.602 228.188 100.602C227.266 100.602 226.469 100.711 225.797 100.93C225.141 101.133 224.594 101.445 224.156 101.867C223.734 102.273 223.422 102.789 223.219 103.414C223.031 104.039 222.945 104.766 222.961 105.594L221.531 104.656C221.531 102.953 221.695 101.406 222.023 100.016C222.367 98.6094 222.852 97.3984 223.477 96.3828C224.102 95.3516 224.859 94.5625 225.75 94.0156C226.641 93.4531 227.641 93.1719 228.75 93.1719C229.141 93.1719 229.523 93.1953 229.898 93.2422C230.289 93.2891 230.633 93.3594 230.93 93.4531ZM241.617 99.0078V119H233.719V93.6406H241.125L241.617 99.0078ZM240.656 105.453L238.852 105.5C238.852 103.719 239.062 102.078 239.484 100.578C239.906 99.0781 240.531 97.7734 241.359 96.6641C242.188 95.5547 243.203 94.6953 244.406 94.0859C245.625 93.4766 247.031 93.1719 248.625 93.1719C249.734 93.1719 250.742 93.3438 251.648 93.6875C252.555 94.0156 253.336 94.5391 253.992 95.2578C254.648 95.9609 255.148 96.8828 255.492 98.0234C255.852 99.1484 256.031 100.5 256.031 102.078V119H248.133V103.086C248.133 102.008 248.008 101.195 247.758 100.648C247.523 100.102 247.18 99.7344 246.727 99.5469C246.273 99.3594 245.719 99.2656 245.062 99.2656C244.375 99.2656 243.758 99.4219 243.211 99.7344C242.664 100.047 242.195 100.484 241.805 101.047C241.43 101.594 241.141 102.242 240.938 102.992C240.75 103.742 240.656 104.562 240.656 105.453ZM255.141 105.453L252.938 105.5C252.938 103.719 253.133 102.078 253.523 100.578C253.93 99.0781 254.531 97.7734 255.328 96.6641C256.141 95.5547 257.148 94.6953 258.352 94.0859C259.555 93.4766 260.953 93.1719 262.547 93.1719C263.703 93.1719 264.766 93.3438 265.734 93.6875C266.703 94.0312 267.539 94.5859 268.242 95.3516C268.945 96.1172 269.492 97.1328 269.883 98.3984C270.273 99.6484 270.469 101.195 270.469 103.039V119H262.547V103.039C262.547 101.992 262.422 101.203 262.172 100.672C261.938 100.125 261.594 99.7578 261.141 99.5703C260.688 99.3672 260.148 99.2656 259.523 99.2656C258.773 99.2656 258.125 99.4219 257.578 99.7344C257.031 100.047 256.57 100.484 256.195 101.047C255.836 101.594 255.57 102.242 255.398 102.992C255.227 103.742 255.141 104.562 255.141 105.453ZM288.164 112.625V102.172C288.164 101.453 288.062 100.836 287.859 100.32C287.656 99.8047 287.336 99.4062 286.898 99.125C286.461 98.8281 285.875 98.6797 285.141 98.6797C284.547 98.6797 284.039 98.7812 283.617 98.9844C283.195 99.1875 282.875 99.4922 282.656 99.8984C282.438 100.305 282.328 100.82 282.328 101.445H274.43C274.43 100.273 274.688 99.1875 275.203 98.1875C275.734 97.1719 276.484 96.2891 277.453 95.5391C278.438 94.7891 279.609 94.2109 280.969 93.8047C282.344 93.3828 283.875 93.1719 285.562 93.1719C287.578 93.1719 289.375 93.5078 290.953 94.1797C292.547 94.8516 293.805 95.8594 294.727 97.2031C295.648 98.5312 296.109 100.203 296.109 102.219V112.602C296.109 114.258 296.203 115.516 296.391 116.375C296.578 117.219 296.844 117.961 297.188 118.602V119H289.266C288.891 118.219 288.609 117.266 288.422 116.141C288.25 115 288.164 113.828 288.164 112.625ZM289.125 103.508L289.172 107.727H285.68C284.945 107.727 284.32 107.828 283.805 108.031C283.305 108.234 282.898 108.516 282.586 108.875C282.289 109.219 282.07 109.609 281.93 110.047C281.805 110.484 281.742 110.945 281.742 111.43C281.742 111.898 281.852 112.32 282.07 112.695C282.305 113.055 282.617 113.336 283.008 113.539C283.398 113.742 283.836 113.844 284.32 113.844C285.195 113.844 285.938 113.68 286.547 113.352C287.172 113.008 287.648 112.594 287.977 112.109C288.305 111.625 288.469 111.172 288.469 110.75L290.203 113.984C289.891 114.609 289.531 115.242 289.125 115.883C288.734 116.523 288.242 117.117 287.648 117.664C287.07 118.195 286.359 118.633 285.516 118.977C284.672 119.305 283.648 119.469 282.445 119.469C280.883 119.469 279.445 119.148 278.133 118.508C276.836 117.867 275.797 116.977 275.016 115.836C274.234 114.68 273.844 113.352 273.844 111.852C273.844 110.539 274.078 109.367 274.547 108.336C275.031 107.305 275.758 106.43 276.727 105.711C277.695 104.992 278.93 104.445 280.43 104.07C281.93 103.695 283.695 103.508 285.727 103.508H289.125ZM308.25 99.0547V119H300.352V93.6406H307.758L308.25 99.0547ZM307.312 105.453L305.461 105.5C305.461 103.562 305.695 101.836 306.164 100.32C306.633 98.7891 307.297 97.4922 308.156 96.4297C309.016 95.3672 310.039 94.5625 311.227 94.0156C312.43 93.4531 313.766 93.1719 315.234 93.1719C316.406 93.1719 317.477 93.3438 318.445 93.6875C319.43 94.0312 320.273 94.5859 320.977 95.3516C321.695 96.1172 322.242 97.1328 322.617 98.3984C323.008 99.6484 323.203 101.195 323.203 103.039V119H315.258V103.016C315.258 102 315.117 101.227 314.836 100.695C314.555 100.148 314.148 99.7734 313.617 99.5703C313.086 99.3672 312.438 99.2656 311.672 99.2656C310.859 99.2656 310.172 99.4219 309.609 99.7344C309.047 100.047 308.594 100.484 308.25 101.047C307.922 101.594 307.68 102.242 307.523 102.992C307.383 103.742 307.312 104.562 307.312 105.453ZM338.297 113.375C339.031 113.375 339.656 113.242 340.172 112.977C340.703 112.695 341.102 112.305 341.367 111.805C341.648 111.289 341.781 110.672 341.766 109.953H349.195C349.211 111.859 348.742 113.531 347.789 114.969C346.852 116.391 345.57 117.5 343.945 118.297C342.336 119.078 340.516 119.469 338.484 119.469C336.5 119.469 334.766 119.148 333.281 118.508C331.797 117.852 330.555 116.945 329.555 115.789C328.57 114.617 327.828 113.25 327.328 111.688C326.844 110.125 326.602 108.43 326.602 106.602V106.062C326.602 104.234 326.844 102.539 327.328 100.977C327.828 99.3984 328.57 98.0312 329.555 96.875C330.555 95.7031 331.789 94.7969 333.258 94.1562C334.742 93.5 336.469 93.1719 338.438 93.1719C340.547 93.1719 342.406 93.5703 344.016 94.3672C345.641 95.1641 346.914 96.3203 347.836 97.8359C348.758 99.3516 349.211 101.188 349.195 103.344H341.766C341.781 102.578 341.664 101.891 341.414 101.281C341.164 100.672 340.773 100.188 340.242 99.8281C339.727 99.4531 339.062 99.2656 338.25 99.2656C337.438 99.2656 336.781 99.4453 336.281 99.8047C335.781 100.164 335.398 100.664 335.133 101.305C334.883 101.93 334.711 102.648 334.617 103.461C334.539 104.273 334.5 105.141 334.5 106.062V106.602C334.5 107.539 334.539 108.422 334.617 109.25C334.711 110.062 334.891 110.781 335.156 111.406C335.422 112.016 335.805 112.5 336.305 112.859C336.805 113.203 337.469 113.375 338.297 113.375ZM364.852 119.469C362.789 119.469 360.945 119.148 359.32 118.508C357.695 117.852 356.32 116.953 355.195 115.812C354.086 114.672 353.234 113.359 352.641 111.875C352.062 110.391 351.773 108.82 351.773 107.164V106.273C351.773 104.414 352.031 102.695 352.547 101.117C353.062 99.5234 353.828 98.1328 354.844 96.9453C355.859 95.7578 357.133 94.8359 358.664 94.1797C360.195 93.5078 361.977 93.1719 364.008 93.1719C365.805 93.1719 367.414 93.4609 368.836 94.0391C370.258 94.6172 371.461 95.4453 372.445 96.5234C373.445 97.6016 374.203 98.9062 374.719 100.438C375.25 101.969 375.516 103.688 375.516 105.594V108.805H354.797V103.859H367.805V103.25C367.82 102.406 367.672 101.688 367.359 101.094C367.062 100.5 366.625 100.047 366.047 99.7344C365.469 99.4219 364.766 99.2656 363.938 99.2656C363.078 99.2656 362.367 99.4531 361.805 99.8281C361.258 100.203 360.828 100.719 360.516 101.375C360.219 102.016 360.008 102.758 359.883 103.602C359.758 104.445 359.695 105.336 359.695 106.273V107.164C359.695 108.102 359.82 108.953 360.07 109.719C360.336 110.484 360.711 111.141 361.195 111.688C361.695 112.219 362.289 112.633 362.977 112.93C363.68 113.227 364.477 113.375 365.367 113.375C366.445 113.375 367.508 113.172 368.555 112.766C369.602 112.359 370.5 111.688 371.25 110.75L374.836 115.016C374.32 115.75 373.586 116.461 372.633 117.148C371.695 117.836 370.57 118.398 369.258 118.836C367.945 119.258 366.477 119.469 364.852 119.469Z" fill="black"/>
<path d="M1134 0H1348C1356.28 0 1363 6.71573 1363 15V148C1363 156.284 1356.28 163 1348 163H1134V0Z" fill="#55ABE0"/>
<path d="M1281.31 104.833H1222.25V49.4167C1222.25 47.8052 1221.27 46.5 1220.06 46.5H1215.69C1214.48 46.5 1213.5 47.8052 1213.5 49.4167V110.667C1213.5 113.888 1215.46 116.5 1217.88 116.5H1281.31C1282.52 116.5 1283.5 115.195 1283.5 113.583V107.75C1283.5 106.139 1282.52 104.833 1281.31 104.833ZM1276.94 52.3333H1260.8C1257.87 52.3333 1256.41 57.0456 1258.48 59.8018L1262.91 65.7081L1252.88 79.0846L1242.84 65.7099C1241.13 63.4313 1238.37 63.4313 1236.66 65.7099L1227.27 78.2315C1226.41 79.3708 1226.41 81.2174 1227.27 82.3568L1230.36 86.4802C1231.21 87.6195 1232.6 87.6195 1233.45 86.4802L1239.75 78.082L1249.78 91.4568C1251.49 93.7354 1254.26 93.7354 1255.97 91.4568L1269.09 73.9568L1273.52 79.863C1275.59 82.6193 1279.12 80.6669 1279.12 76.7695V55.25C1279.12 53.6385 1278.15 52.3333 1276.94 52.3333Z" fill="white"/>
</svg>
