<svg width="1363" height="163" viewBox="0 0 1363 163" fill="none" xmlns="http://www.w3.org/2000/svg">
<path d="M0 15C0 6.71573 6.71573 0 15 0H37V163H15C6.71573 163 0 156.284 0 148V15Z" fill="#424242"/>
<rect width="1097" height="163" transform="translate(37)" fill="#F0F0F0"/>
<path d="M101.906 53.9219L94.3945 51.2383V48.0859L104.602 52.375V54.6367L101.906 53.9219ZM94.3945 56.1719L101.918 53.4297L104.602 52.7852V55.0352L94.3945 59.3242V56.1719ZM124.277 50.8867V53.6289H115.371V50.8867H124.277ZM116.414 43.9375V61H112.898V43.9375H116.414ZM126.785 43.9375V61H123.281V43.9375H126.785ZM136.477 58.1406V52.4922C136.477 52.0859 136.41 51.7383 136.277 51.4492C136.145 51.1523 135.938 50.9219 135.656 50.7578C135.383 50.5938 135.027 50.5117 134.59 50.5117C134.215 50.5117 133.891 50.5781 133.617 50.7109C133.344 50.8359 133.133 51.0195 132.984 51.2617C132.836 51.4961 132.762 51.7734 132.762 52.0938H129.387C129.387 51.5547 129.512 51.043 129.762 50.5586C130.012 50.0742 130.375 49.6484 130.852 49.2812C131.328 48.9062 131.895 48.6133 132.551 48.4023C133.215 48.1914 133.957 48.0859 134.777 48.0859C135.762 48.0859 136.637 48.25 137.402 48.5781C138.168 48.9062 138.77 49.3984 139.207 50.0547C139.652 50.7109 139.875 51.5312 139.875 52.5156V57.9414C139.875 58.6367 139.918 59.207 140.004 59.6523C140.09 60.0898 140.215 60.4727 140.379 60.8008V61H136.969C136.805 60.6562 136.68 60.2266 136.594 59.7109C136.516 59.1875 136.477 58.6641 136.477 58.1406ZM136.922 53.2773L136.945 55.1875H135.059C134.613 55.1875 134.227 55.2383 133.898 55.3398C133.57 55.4414 133.301 55.5859 133.09 55.7734C132.879 55.9531 132.723 56.1641 132.621 56.4062C132.527 56.6484 132.48 56.9141 132.48 57.2031C132.48 57.4922 132.547 57.7539 132.68 57.9883C132.812 58.2148 133.004 58.3945 133.254 58.5273C133.504 58.6523 133.797 58.7148 134.133 58.7148C134.641 58.7148 135.082 58.6133 135.457 58.4102C135.832 58.207 136.121 57.957 136.324 57.6602C136.535 57.3633 136.645 57.082 136.652 56.8164L137.543 58.2461C137.418 58.5664 137.246 58.8984 137.027 59.2422C136.816 59.5859 136.547 59.9102 136.219 60.2148C135.891 60.5117 135.496 60.7578 135.035 60.9531C134.574 61.1406 134.027 61.2344 133.395 61.2344C132.59 61.2344 131.859 61.0742 131.203 60.7539C130.555 60.4258 130.039 59.9766 129.656 59.4062C129.281 58.8281 129.094 58.1719 129.094 57.4375C129.094 56.7734 129.219 56.1836 129.469 55.668C129.719 55.1523 130.086 54.7188 130.57 54.3672C131.062 54.0078 131.676 53.7383 132.41 53.5586C133.145 53.3711 133.996 53.2773 134.965 53.2773H136.922ZM147.715 58.5977C148.129 58.5977 148.496 58.5195 148.816 58.3633C149.137 58.1992 149.387 57.9727 149.566 57.6836C149.754 57.3867 149.852 57.0391 149.859 56.6406H153.035C153.027 57.5312 152.789 58.3242 152.32 59.0195C151.852 59.707 151.223 60.25 150.434 60.6484C149.645 61.0391 148.762 61.2344 147.785 61.2344C146.801 61.2344 145.941 61.0703 145.207 60.7422C144.48 60.4141 143.875 59.9609 143.391 59.3828C142.906 58.7969 142.543 58.1172 142.301 57.3438C142.059 56.5625 141.938 55.7266 141.938 54.8359V54.4961C141.938 53.5977 142.059 52.7617 142.301 51.9883C142.543 51.207 142.906 50.5273 143.391 49.9492C143.875 49.3633 144.48 48.9062 145.207 48.5781C145.934 48.25 146.785 48.0859 147.762 48.0859C148.801 48.0859 149.711 48.2852 150.492 48.6836C151.281 49.082 151.898 49.6523 152.344 50.3945C152.797 51.1289 153.027 52 153.035 53.0078H149.859C149.852 52.5859 149.762 52.2031 149.59 51.8594C149.426 51.5156 149.184 51.2422 148.863 51.0391C148.551 50.8281 148.164 50.7227 147.703 50.7227C147.211 50.7227 146.809 50.8281 146.496 51.0391C146.184 51.2422 145.941 51.5234 145.77 51.8828C145.598 52.2344 145.477 52.6367 145.406 53.0898C145.344 53.5352 145.312 54.0039 145.312 54.4961V54.8359C145.312 55.3281 145.344 55.8008 145.406 56.2539C145.469 56.707 145.586 57.1094 145.758 57.4609C145.938 57.8125 146.184 58.0898 146.496 58.293C146.809 58.4961 147.215 58.5977 147.715 58.5977ZM158.367 42.9883V61H154.992V42.9883H158.367ZM166.359 48.3203L160.852 54.6016L157.898 57.5898L156.668 55.1523L159.012 52.1758L162.305 48.3203H166.359ZM162.855 61L159.105 55.1406L161.438 53.1016L166.746 61H162.855ZM175.652 43.9375V61H172.148V43.9375H175.652ZM180.902 43.9375V46.6914H166.98V43.9375H180.902ZM185.988 43V61H182.613V43H185.988ZM185.508 54.2148H184.582C184.59 53.332 184.707 52.5195 184.934 51.7773C185.16 51.0273 185.484 50.3789 185.906 49.832C186.328 49.2773 186.832 48.8477 187.418 48.543C188.012 48.2383 188.668 48.0859 189.387 48.0859C190.012 48.0859 190.578 48.1758 191.086 48.3555C191.602 48.5273 192.043 48.8086 192.41 49.1992C192.785 49.582 193.074 50.0859 193.277 50.7109C193.48 51.3359 193.582 52.0938 193.582 52.9844V61H190.184V52.9609C190.184 52.3984 190.102 51.957 189.938 51.6367C189.781 51.3086 189.551 51.0781 189.246 50.9453C188.949 50.8047 188.582 50.7344 188.145 50.7344C187.66 50.7344 187.246 50.8242 186.902 51.0039C186.566 51.1836 186.297 51.4336 186.094 51.7539C185.891 52.0664 185.742 52.4336 185.648 52.8555C185.555 53.2773 185.508 53.7305 185.508 54.2148ZM201.984 61.2344C201 61.2344 200.117 61.0781 199.336 60.7656C198.555 60.4453 197.891 60.0039 197.344 59.4414C196.805 58.8789 196.391 58.2266 196.102 57.4844C195.812 56.7344 195.668 55.9375 195.668 55.0938V54.625C195.668 53.6641 195.805 52.7852 196.078 51.9883C196.352 51.1914 196.742 50.5 197.25 49.9141C197.766 49.3281 198.391 48.8789 199.125 48.5664C199.859 48.2461 200.688 48.0859 201.609 48.0859C202.508 48.0859 203.305 48.2344 204 48.5312C204.695 48.8281 205.277 49.25 205.746 49.7969C206.223 50.3438 206.582 51 206.824 51.7656C207.066 52.5234 207.188 53.3672 207.188 54.2969V55.7031H197.109V53.4531H203.871V53.1953C203.871 52.7266 203.785 52.3086 203.613 51.9414C203.449 51.5664 203.199 51.2695 202.863 51.0508C202.527 50.832 202.098 50.7227 201.574 50.7227C201.129 50.7227 200.746 50.8203 200.426 51.0156C200.105 51.2109 199.844 51.4844 199.641 51.8359C199.445 52.1875 199.297 52.6016 199.195 53.0781C199.102 53.5469 199.055 54.0625 199.055 54.625V55.0938C199.055 55.6016 199.125 56.0703 199.266 56.5C199.414 56.9297 199.621 57.3008 199.887 57.6133C200.16 57.9258 200.488 58.168 200.871 58.3398C201.262 58.5117 201.703 58.5977 202.195 58.5977C202.805 58.5977 203.371 58.4805 203.895 58.2461C204.426 58.0039 204.883 57.6406 205.266 57.1562L206.906 58.9375C206.641 59.3203 206.277 59.6875 205.816 60.0391C205.363 60.3906 204.816 60.6797 204.176 60.9062C203.535 61.125 202.805 61.2344 201.984 61.2344ZM213.434 58.293L216.832 43.9375H218.73L219.164 46.3281L215.543 61H213.504L213.434 58.293ZM211.688 43.9375L214.5 58.293L214.266 61H211.992L208.207 43.9375H211.688ZM222.152 58.2344L224.93 43.9375H228.41L224.637 61H222.363L222.152 58.2344ZM219.797 43.9375L223.219 58.3516L223.125 61H221.086L217.441 46.3164L217.91 43.9375H219.797ZM235.57 61.2344C234.586 61.2344 233.703 61.0781 232.922 60.7656C232.141 60.4453 231.477 60.0039 230.93 59.4414C230.391 58.8789 229.977 58.2266 229.688 57.4844C229.398 56.7344 229.254 55.9375 229.254 55.0938V54.625C229.254 53.6641 229.391 52.7852 229.664 51.9883C229.938 51.1914 230.328 50.5 230.836 49.9141C231.352 49.3281 231.977 48.8789 232.711 48.5664C233.445 48.2461 234.273 48.0859 235.195 48.0859C236.094 48.0859 236.891 48.2344 237.586 48.5312C238.281 48.8281 238.863 49.25 239.332 49.7969C239.809 50.3438 240.168 51 240.41 51.7656C240.652 52.5234 240.773 53.3672 240.773 54.2969V55.7031H230.695V53.4531H237.457V53.1953C237.457 52.7266 237.371 52.3086 237.199 51.9414C237.035 51.5664 236.785 51.2695 236.449 51.0508C236.113 50.832 235.684 50.7227 235.16 50.7227C234.715 50.7227 234.332 50.8203 234.012 51.0156C233.691 51.2109 233.43 51.4844 233.227 51.8359C233.031 52.1875 232.883 52.6016 232.781 53.0781C232.688 53.5469 232.641 54.0625 232.641 54.625V55.0938C232.641 55.6016 232.711 56.0703 232.852 56.5C233 56.9297 233.207 57.3008 233.473 57.6133C233.746 57.9258 234.074 58.168 234.457 58.3398C234.848 58.5117 235.289 58.5977 235.781 58.5977C236.391 58.5977 236.957 58.4805 237.48 58.2461C238.012 58.0039 238.469 57.6406 238.852 57.1562L240.492 58.9375C240.227 59.3203 239.863 59.6875 239.402 60.0391C238.949 60.3906 238.402 60.6797 237.762 60.9062C237.121 61.125 236.391 61.2344 235.57 61.2344ZM242.695 43H246.07V58.0938L245.73 61H242.695V43ZM254.098 54.5312V54.7773C254.098 55.7227 253.996 56.5898 253.793 57.3789C253.598 58.168 253.293 58.8516 252.879 59.4297C252.465 60 251.949 60.4453 251.332 60.7656C250.723 61.0781 250.004 61.2344 249.176 61.2344C248.402 61.2344 247.73 61.0781 247.16 60.7656C246.598 60.4531 246.125 60.0117 245.742 59.4414C245.359 58.8711 245.051 58.2031 244.816 57.4375C244.582 56.6719 244.406 55.8359 244.289 54.9297V54.3906C244.406 53.4844 244.582 52.6484 244.816 51.8828C245.051 51.1172 245.359 50.4492 245.742 49.8789C246.125 49.3086 246.598 48.8672 247.16 48.5547C247.723 48.2422 248.387 48.0859 249.152 48.0859C249.988 48.0859 250.715 48.2461 251.332 48.5664C251.957 48.8789 252.473 49.3242 252.879 49.9023C253.293 50.4727 253.598 51.1523 253.793 51.9414C253.996 52.7227 254.098 53.5859 254.098 54.5312ZM250.723 54.7773V54.5312C250.723 54.0156 250.684 53.5312 250.605 53.0781C250.535 52.6172 250.41 52.2148 250.23 51.8711C250.051 51.5195 249.805 51.2422 249.492 51.0391C249.188 50.8359 248.793 50.7344 248.309 50.7344C247.848 50.7344 247.457 50.8125 247.137 50.9688C246.816 51.125 246.551 51.3438 246.34 51.625C246.137 51.9062 245.984 52.2422 245.883 52.6328C245.781 53.0156 245.719 53.4375 245.695 53.8984V55.4336C245.719 56.0508 245.82 56.5977 246 57.0742C246.188 57.543 246.469 57.9141 246.844 58.1875C247.227 58.4531 247.723 58.5859 248.332 58.5859C248.809 58.5859 249.203 58.4922 249.516 58.3047C249.828 58.1172 250.07 57.8516 250.242 57.5078C250.422 57.1641 250.547 56.7617 250.617 56.3008C250.688 55.832 250.723 55.3242 250.723 54.7773Z" fill="#888888"/>
<path d="M124.477 101.258V102.641C124.477 105.25 124.109 107.594 123.375 109.672C122.656 111.734 121.633 113.5 120.305 114.969C118.977 116.422 117.406 117.539 115.594 118.32C113.781 119.086 111.781 119.469 109.594 119.469C107.391 119.469 105.375 119.086 103.547 118.32C101.734 117.539 100.156 116.422 98.8125 114.969C97.4844 113.5 96.4531 111.734 95.7188 109.672C95 107.594 94.6406 105.25 94.6406 102.641V101.258C94.6406 98.6484 95 96.3047 95.7188 94.2266C96.4531 92.1484 97.4766 90.3828 98.7891 88.9297C100.117 87.4609 101.688 86.3438 103.5 85.5781C105.328 84.7969 107.344 84.4062 109.547 84.4062C111.734 84.4062 113.734 84.7969 115.547 85.5781C117.375 86.3438 118.953 87.4609 120.281 88.9297C121.609 90.3828 122.641 92.1484 123.375 94.2266C124.109 96.3047 124.477 98.6484 124.477 101.258ZM116.133 102.641V101.211C116.133 99.5234 115.984 98.0391 115.688 96.7578C115.406 95.4609 114.984 94.375 114.422 93.5C113.859 92.625 113.164 91.9688 112.336 91.5312C111.523 91.0781 110.594 90.8516 109.547 90.8516C108.453 90.8516 107.5 91.0781 106.688 91.5312C105.875 91.9688 105.195 92.625 104.648 93.5C104.102 94.375 103.688 95.4609 103.406 96.7578C103.141 98.0391 103.008 99.5234 103.008 101.211V102.641C103.008 104.312 103.141 105.797 103.406 107.094C103.688 108.375 104.102 109.461 104.648 110.352C105.211 111.242 105.898 111.914 106.711 112.367C107.539 112.82 108.5 113.047 109.594 113.047C110.641 113.047 111.57 112.82 112.383 112.367C113.195 111.914 113.875 111.242 114.422 110.352C114.984 109.461 115.406 108.375 115.688 107.094C115.984 105.797 116.133 104.312 116.133 102.641ZM136.336 98.5156V128.75H128.438V93.6406H135.797L136.336 98.5156ZM151.898 106.016V106.508C151.898 108.352 151.688 110.062 151.266 111.641C150.844 113.219 150.219 114.594 149.391 115.766C148.562 116.938 147.531 117.852 146.297 118.508C145.078 119.148 143.664 119.469 142.055 119.469C140.539 119.469 139.234 119.133 138.141 118.461C137.047 117.789 136.133 116.859 135.398 115.672C134.664 114.484 134.07 113.125 133.617 111.594C133.164 110.062 132.805 108.445 132.539 106.742V106.109C132.805 104.281 133.164 102.586 133.617 101.023C134.07 99.4453 134.664 98.0703 135.398 96.8984C136.133 95.7266 137.039 94.8125 138.117 94.1562C139.211 93.5 140.516 93.1719 142.031 93.1719C143.641 93.1719 145.055 93.4766 146.273 94.0859C147.508 94.6953 148.539 95.5703 149.367 96.7109C150.211 97.8359 150.844 99.1875 151.266 100.766C151.688 102.344 151.898 104.094 151.898 106.016ZM144 106.508V106.016C144 105.031 143.93 104.133 143.789 103.32C143.648 102.492 143.422 101.773 143.109 101.164C142.812 100.555 142.414 100.086 141.914 99.7578C141.414 99.4297 140.797 99.2656 140.062 99.2656C139.219 99.2656 138.508 99.3984 137.93 99.6641C137.367 99.9141 136.914 100.305 136.57 100.836C136.242 101.352 136.008 102 135.867 102.781C135.742 103.547 135.688 104.445 135.703 105.477V107.398C135.672 108.586 135.789 109.633 136.055 110.539C136.32 111.43 136.781 112.125 137.438 112.625C138.094 113.125 138.984 113.375 140.109 113.375C140.859 113.375 141.484 113.203 141.984 112.859C142.484 112.5 142.883 112.008 143.18 111.383C143.477 110.742 143.688 110.008 143.812 109.18C143.938 108.352 144 107.461 144 106.508ZM167.695 119.469C165.633 119.469 163.789 119.148 162.164 118.508C160.539 117.852 159.164 116.953 158.039 115.812C156.93 114.672 156.078 113.359 155.484 111.875C154.906 110.391 154.617 108.82 154.617 107.164V106.273C154.617 104.414 154.875 102.695 155.391 101.117C155.906 99.5234 156.672 98.1328 157.688 96.9453C158.703 95.7578 159.977 94.8359 161.508 94.1797C163.039 93.5078 164.82 93.1719 166.852 93.1719C168.648 93.1719 170.258 93.4609 171.68 94.0391C173.102 94.6172 174.305 95.4453 175.289 96.5234C176.289 97.6016 177.047 98.9062 177.562 100.438C178.094 101.969 178.359 103.688 178.359 105.594V108.805H157.641V103.859H170.648V103.25C170.664 102.406 170.516 101.688 170.203 101.094C169.906 100.5 169.469 100.047 168.891 99.7344C168.312 99.4219 167.609 99.2656 166.781 99.2656C165.922 99.2656 165.211 99.4531 164.648 99.8281C164.102 100.203 163.672 100.719 163.359 101.375C163.062 102.016 162.852 102.758 162.727 103.602C162.602 104.445 162.539 105.336 162.539 106.273V107.164C162.539 108.102 162.664 108.953 162.914 109.719C163.18 110.484 163.555 111.141 164.039 111.688C164.539 112.219 165.133 112.633 165.82 112.93C166.523 113.227 167.32 113.375 168.211 113.375C169.289 113.375 170.352 113.172 171.398 112.766C172.445 112.359 173.344 111.688 174.094 110.75L177.68 115.016C177.164 115.75 176.43 116.461 175.477 117.148C174.539 117.836 173.414 118.398 172.102 118.836C170.789 119.258 169.32 119.469 167.695 119.469ZM189.328 99.0547V119H181.43V93.6406H188.836L189.328 99.0547ZM188.391 105.453L186.539 105.5C186.539 103.562 186.773 101.836 187.242 100.32C187.711 98.7891 188.375 97.4922 189.234 96.4297C190.094 95.3672 191.117 94.5625 192.305 94.0156C193.508 93.4531 194.844 93.1719 196.312 93.1719C197.484 93.1719 198.555 93.3438 199.523 93.6875C200.508 94.0312 201.352 94.5859 202.055 95.3516C202.773 96.1172 203.32 97.1328 203.695 98.3984C204.086 99.6484 204.281 101.195 204.281 103.039V119H196.336V103.016C196.336 102 196.195 101.227 195.914 100.695C195.633 100.148 195.227 99.7734 194.695 99.5703C194.164 99.3672 193.516 99.2656 192.75 99.2656C191.938 99.2656 191.25 99.4219 190.688 99.7344C190.125 100.047 189.672 100.484 189.328 101.047C189 101.594 188.758 102.242 188.602 102.992C188.461 103.742 188.391 104.562 188.391 105.453ZM223.5 92.0469L215.18 119H206.344L218.883 84.875H224.484L223.5 92.0469ZM230.391 119L222.047 92.0469L220.969 84.875H226.641L239.25 119H230.391ZM230.062 106.273V112.625H212.555V106.273H230.062ZM250.5 84.875V119H242.297V84.875H250.5Z" fill="black"/>
<path d="M1134 0H1348C1356.28 0 1363 6.71573 1363 15V148C1363 156.284 1356.28 163 1348 163H1134V0Z" fill="#55ABE0"/>
<path d="M1238.78 46.5C1235.14 46.5 1232.13 49.3027 1231.27 53.0898C1231.17 53.0898 1231.1 53.0625 1231 53.0625C1226.71 53.0625 1223.22 56.9863 1223.22 61.8125C1223.22 62.4688 1223.3 63.1113 1223.43 63.7266C1219.88 65.3672 1217.39 69.2773 1217.39 73.8438C1217.39 75.5664 1217.78 77.166 1218.4 78.6152C1215.48 80.502 1213.5 84.002 1213.5 88.0625C1213.5 92.6152 1215.98 96.5254 1219.5 98.166C1219.39 98.7949 1219.33 99.4375 1219.33 100.094C1219.33 105.535 1223.25 109.938 1228.08 109.938C1228.58 109.938 1229.07 109.869 1229.54 109.773C1230.71 113.67 1233.94 116.5 1237.81 116.5C1242.64 116.5 1246.56 112.098 1246.56 106.656V55.25C1246.56 50.4238 1243.07 46.5 1238.78 46.5ZM1283.5 88.0625C1283.5 84.002 1281.52 80.502 1278.6 78.6152C1279.23 77.166 1279.61 75.5664 1279.61 73.8438C1279.61 69.2773 1277.12 65.3672 1273.57 63.7266C1273.69 63.1113 1273.78 62.4688 1273.78 61.8125C1273.78 56.9863 1270.29 53.0625 1266 53.0625C1265.9 53.0625 1265.82 53.0898 1265.73 53.0898C1264.87 49.3027 1261.86 46.5 1258.22 46.5C1253.93 46.5 1250.44 50.4102 1250.44 55.25V106.656C1250.44 112.098 1254.36 116.5 1259.19 116.5C1263.06 116.5 1266.29 113.67 1267.46 109.773C1267.93 109.869 1268.42 109.938 1268.92 109.938C1273.75 109.938 1277.67 105.535 1277.67 100.094C1277.67 99.4375 1277.61 98.7949 1277.5 98.166C1281.02 96.5254 1283.5 92.6152 1283.5 88.0625Z" fill="white"/>
</svg>
