<svg width="1363" height="163" viewBox="0 0 1363 163" fill="none" xmlns="http://www.w3.org/2000/svg">
<path d="M0 15C0 6.71573 6.71573 0 15 0H37V163H15C6.71573 163 0 156.284 0 148V15Z" fill="#55ABE0"/>
<rect width="1097" height="163" transform="translate(37)" fill="#F0F0F0"/>
<path d="M101.906 53.9219L94.3945 51.2383V48.0859L104.602 52.375V54.6367L101.906 53.9219ZM94.3945 56.1719L101.918 53.4297L104.602 52.7852V55.0352L94.3945 59.3242V56.1719ZM124.277 50.8867V53.6289H115.371V50.8867H124.277ZM116.414 43.9375V61H112.898V43.9375H116.414ZM126.785 43.9375V61H123.281V43.9375H126.785ZM136.477 58.1406V52.4922C136.477 52.0859 136.41 51.7383 136.277 51.4492C136.145 51.1523 135.938 50.9219 135.656 50.7578C135.383 50.5938 135.027 50.5117 134.59 50.5117C134.215 50.5117 133.891 50.5781 133.617 50.7109C133.344 50.8359 133.133 51.0195 132.984 51.2617C132.836 51.4961 132.762 51.7734 132.762 52.0938H129.387C129.387 51.5547 129.512 51.043 129.762 50.5586C130.012 50.0742 130.375 49.6484 130.852 49.2812C131.328 48.9062 131.895 48.6133 132.551 48.4023C133.215 48.1914 133.957 48.0859 134.777 48.0859C135.762 48.0859 136.637 48.25 137.402 48.5781C138.168 48.9062 138.77 49.3984 139.207 50.0547C139.652 50.7109 139.875 51.5312 139.875 52.5156V57.9414C139.875 58.6367 139.918 59.207 140.004 59.6523C140.09 60.0898 140.215 60.4727 140.379 60.8008V61H136.969C136.805 60.6562 136.68 60.2266 136.594 59.7109C136.516 59.1875 136.477 58.6641 136.477 58.1406ZM136.922 53.2773L136.945 55.1875H135.059C134.613 55.1875 134.227 55.2383 133.898 55.3398C133.57 55.4414 133.301 55.5859 133.09 55.7734C132.879 55.9531 132.723 56.1641 132.621 56.4062C132.527 56.6484 132.48 56.9141 132.48 57.2031C132.48 57.4922 132.547 57.7539 132.68 57.9883C132.812 58.2148 133.004 58.3945 133.254 58.5273C133.504 58.6523 133.797 58.7148 134.133 58.7148C134.641 58.7148 135.082 58.6133 135.457 58.4102C135.832 58.207 136.121 57.957 136.324 57.6602C136.535 57.3633 136.645 57.082 136.652 56.8164L137.543 58.2461C137.418 58.5664 137.246 58.8984 137.027 59.2422C136.816 59.5859 136.547 59.9102 136.219 60.2148C135.891 60.5117 135.496 60.7578 135.035 60.9531C134.574 61.1406 134.027 61.2344 133.395 61.2344C132.59 61.2344 131.859 61.0742 131.203 60.7539C130.555 60.4258 130.039 59.9766 129.656 59.4062C129.281 58.8281 129.094 58.1719 129.094 57.4375C129.094 56.7734 129.219 56.1836 129.469 55.668C129.719 55.1523 130.086 54.7188 130.57 54.3672C131.062 54.0078 131.676 53.7383 132.41 53.5586C133.145 53.3711 133.996 53.2773 134.965 53.2773H136.922ZM147.715 58.5977C148.129 58.5977 148.496 58.5195 148.816 58.3633C149.137 58.1992 149.387 57.9727 149.566 57.6836C149.754 57.3867 149.852 57.0391 149.859 56.6406H153.035C153.027 57.5312 152.789 58.3242 152.32 59.0195C151.852 59.707 151.223 60.25 150.434 60.6484C149.645 61.0391 148.762 61.2344 147.785 61.2344C146.801 61.2344 145.941 61.0703 145.207 60.7422C144.48 60.4141 143.875 59.9609 143.391 59.3828C142.906 58.7969 142.543 58.1172 142.301 57.3438C142.059 56.5625 141.938 55.7266 141.938 54.8359V54.4961C141.938 53.5977 142.059 52.7617 142.301 51.9883C142.543 51.207 142.906 50.5273 143.391 49.9492C143.875 49.3633 144.48 48.9062 145.207 48.5781C145.934 48.25 146.785 48.0859 147.762 48.0859C148.801 48.0859 149.711 48.2852 150.492 48.6836C151.281 49.082 151.898 49.6523 152.344 50.3945C152.797 51.1289 153.027 52 153.035 53.0078H149.859C149.852 52.5859 149.762 52.2031 149.59 51.8594C149.426 51.5156 149.184 51.2422 148.863 51.0391C148.551 50.8281 148.164 50.7227 147.703 50.7227C147.211 50.7227 146.809 50.8281 146.496 51.0391C146.184 51.2422 145.941 51.5234 145.77 51.8828C145.598 52.2344 145.477 52.6367 145.406 53.0898C145.344 53.5352 145.312 54.0039 145.312 54.4961V54.8359C145.312 55.3281 145.344 55.8008 145.406 56.2539C145.469 56.707 145.586 57.1094 145.758 57.4609C145.938 57.8125 146.184 58.0898 146.496 58.293C146.809 58.4961 147.215 58.5977 147.715 58.5977ZM158.367 42.9883V61H154.992V42.9883H158.367ZM166.359 48.3203L160.852 54.6016L157.898 57.5898L156.668 55.1523L159.012 52.1758L162.305 48.3203H166.359ZM162.855 61L159.105 55.1406L161.438 53.1016L166.746 61H162.855ZM175.652 43.9375V61H172.148V43.9375H175.652ZM180.902 43.9375V46.6914H166.98V43.9375H180.902ZM185.988 43V61H182.613V43H185.988ZM185.508 54.2148H184.582C184.59 53.332 184.707 52.5195 184.934 51.7773C185.16 51.0273 185.484 50.3789 185.906 49.832C186.328 49.2773 186.832 48.8477 187.418 48.543C188.012 48.2383 188.668 48.0859 189.387 48.0859C190.012 48.0859 190.578 48.1758 191.086 48.3555C191.602 48.5273 192.043 48.8086 192.41 49.1992C192.785 49.582 193.074 50.0859 193.277 50.7109C193.48 51.3359 193.582 52.0938 193.582 52.9844V61H190.184V52.9609C190.184 52.3984 190.102 51.957 189.938 51.6367C189.781 51.3086 189.551 51.0781 189.246 50.9453C188.949 50.8047 188.582 50.7344 188.145 50.7344C187.66 50.7344 187.246 50.8242 186.902 51.0039C186.566 51.1836 186.297 51.4336 186.094 51.7539C185.891 52.0664 185.742 52.4336 185.648 52.8555C185.555 53.2773 185.508 53.7305 185.508 54.2148ZM201.984 61.2344C201 61.2344 200.117 61.0781 199.336 60.7656C198.555 60.4453 197.891 60.0039 197.344 59.4414C196.805 58.8789 196.391 58.2266 196.102 57.4844C195.812 56.7344 195.668 55.9375 195.668 55.0938V54.625C195.668 53.6641 195.805 52.7852 196.078 51.9883C196.352 51.1914 196.742 50.5 197.25 49.9141C197.766 49.3281 198.391 48.8789 199.125 48.5664C199.859 48.2461 200.688 48.0859 201.609 48.0859C202.508 48.0859 203.305 48.2344 204 48.5312C204.695 48.8281 205.277 49.25 205.746 49.7969C206.223 50.3438 206.582 51 206.824 51.7656C207.066 52.5234 207.188 53.3672 207.188 54.2969V55.7031H197.109V53.4531H203.871V53.1953C203.871 52.7266 203.785 52.3086 203.613 51.9414C203.449 51.5664 203.199 51.2695 202.863 51.0508C202.527 50.832 202.098 50.7227 201.574 50.7227C201.129 50.7227 200.746 50.8203 200.426 51.0156C200.105 51.2109 199.844 51.4844 199.641 51.8359C199.445 52.1875 199.297 52.6016 199.195 53.0781C199.102 53.5469 199.055 54.0625 199.055 54.625V55.0938C199.055 55.6016 199.125 56.0703 199.266 56.5C199.414 56.9297 199.621 57.3008 199.887 57.6133C200.16 57.9258 200.488 58.168 200.871 58.3398C201.262 58.5117 201.703 58.5977 202.195 58.5977C202.805 58.5977 203.371 58.4805 203.895 58.2461C204.426 58.0039 204.883 57.6406 205.266 57.1562L206.906 58.9375C206.641 59.3203 206.277 59.6875 205.816 60.0391C205.363 60.3906 204.816 60.6797 204.176 60.9062C203.535 61.125 202.805 61.2344 201.984 61.2344ZM213.434 58.293L216.832 43.9375H218.73L219.164 46.3281L215.543 61H213.504L213.434 58.293ZM211.688 43.9375L214.5 58.293L214.266 61H211.992L208.207 43.9375H211.688ZM222.152 58.2344L224.93 43.9375H228.41L224.637 61H222.363L222.152 58.2344ZM219.797 43.9375L223.219 58.3516L223.125 61H221.086L217.441 46.3164L217.91 43.9375H219.797ZM235.57 61.2344C234.586 61.2344 233.703 61.0781 232.922 60.7656C232.141 60.4453 231.477 60.0039 230.93 59.4414C230.391 58.8789 229.977 58.2266 229.688 57.4844C229.398 56.7344 229.254 55.9375 229.254 55.0938V54.625C229.254 53.6641 229.391 52.7852 229.664 51.9883C229.938 51.1914 230.328 50.5 230.836 49.9141C231.352 49.3281 231.977 48.8789 232.711 48.5664C233.445 48.2461 234.273 48.0859 235.195 48.0859C236.094 48.0859 236.891 48.2344 237.586 48.5312C238.281 48.8281 238.863 49.25 239.332 49.7969C239.809 50.3438 240.168 51 240.41 51.7656C240.652 52.5234 240.773 53.3672 240.773 54.2969V55.7031H230.695V53.4531H237.457V53.1953C237.457 52.7266 237.371 52.3086 237.199 51.9414C237.035 51.5664 236.785 51.2695 236.449 51.0508C236.113 50.832 235.684 50.7227 235.16 50.7227C234.715 50.7227 234.332 50.8203 234.012 51.0156C233.691 51.2109 233.43 51.4844 233.227 51.8359C233.031 52.1875 232.883 52.6016 232.781 53.0781C232.688 53.5469 232.641 54.0625 232.641 54.625V55.0938C232.641 55.6016 232.711 56.0703 232.852 56.5C233 56.9297 233.207 57.3008 233.473 57.6133C233.746 57.9258 234.074 58.168 234.457 58.3398C234.848 58.5117 235.289 58.5977 235.781 58.5977C236.391 58.5977 236.957 58.4805 237.48 58.2461C238.012 58.0039 238.469 57.6406 238.852 57.1562L240.492 58.9375C240.227 59.3203 239.863 59.6875 239.402 60.0391C238.949 60.3906 238.402 60.6797 237.762 60.9062C237.121 61.125 236.391 61.2344 235.57 61.2344ZM242.695 43H246.07V58.0938L245.73 61H242.695V43ZM254.098 54.5312V54.7773C254.098 55.7227 253.996 56.5898 253.793 57.3789C253.598 58.168 253.293 58.8516 252.879 59.4297C252.465 60 251.949 60.4453 251.332 60.7656C250.723 61.0781 250.004 61.2344 249.176 61.2344C248.402 61.2344 247.73 61.0781 247.16 60.7656C246.598 60.4531 246.125 60.0117 245.742 59.4414C245.359 58.8711 245.051 58.2031 244.816 57.4375C244.582 56.6719 244.406 55.8359 244.289 54.9297V54.3906C244.406 53.4844 244.582 52.6484 244.816 51.8828C245.051 51.1172 245.359 50.4492 245.742 49.8789C246.125 49.3086 246.598 48.8672 247.16 48.5547C247.723 48.2422 248.387 48.0859 249.152 48.0859C249.988 48.0859 250.715 48.2461 251.332 48.5664C251.957 48.8789 252.473 49.3242 252.879 49.9023C253.293 50.4727 253.598 51.1523 253.793 51.9414C253.996 52.7227 254.098 53.5859 254.098 54.5312ZM250.723 54.7773V54.5312C250.723 54.0156 250.684 53.5312 250.605 53.0781C250.535 52.6172 250.41 52.2148 250.23 51.8711C250.051 51.5195 249.805 51.2422 249.492 51.0391C249.188 50.8359 248.793 50.7344 248.309 50.7344C247.848 50.7344 247.457 50.8125 247.137 50.9688C246.816 51.125 246.551 51.3438 246.34 51.625C246.137 51.9062 245.984 52.2422 245.883 52.6328C245.781 53.0156 245.719 53.4375 245.695 53.8984V55.4336C245.719 56.0508 245.82 56.5977 246 57.0742C246.188 57.543 246.469 57.9141 246.844 58.1875C247.227 58.4531 247.723 58.5859 248.332 58.5859C248.809 58.5859 249.203 58.4922 249.516 58.3047C249.828 58.1172 250.07 57.8516 250.242 57.5078C250.422 57.1641 250.547 56.7617 250.617 56.3008C250.688 55.832 250.723 55.3242 250.723 54.7773Z" fill="#888888"/>
<path d="M106.688 119H99.1172L99.1641 112.672H106.688C108.25 112.672 109.57 112.297 110.648 111.547C111.742 110.797 112.57 109.68 113.133 108.195C113.711 106.695 114 104.852 114 102.664V101.188C114 99.5469 113.836 98.1094 113.508 96.875C113.195 95.625 112.727 94.5859 112.102 93.7578C111.477 92.9141 110.695 92.2812 109.758 91.8594C108.836 91.4375 107.773 91.2266 106.57 91.2266H98.9766V84.875H106.57C108.883 84.875 111 85.2734 112.922 86.0703C114.859 86.8516 116.531 87.9766 117.938 89.4453C119.359 90.8984 120.453 92.625 121.219 94.625C122 96.6094 122.391 98.8125 122.391 101.234V102.664C122.391 105.07 122 107.273 121.219 109.273C120.453 111.273 119.367 113 117.961 114.453C116.555 115.906 114.891 117.031 112.969 117.828C111.062 118.609 108.969 119 106.688 119ZM103.828 84.875V119H95.6016V84.875H103.828ZM138.586 119.469C136.523 119.469 134.68 119.148 133.055 118.508C131.43 117.852 130.055 116.953 128.93 115.812C127.82 114.672 126.969 113.359 126.375 111.875C125.797 110.391 125.508 108.82 125.508 107.164V106.273C125.508 104.414 125.766 102.695 126.281 101.117C126.797 99.5234 127.562 98.1328 128.578 96.9453C129.594 95.7578 130.867 94.8359 132.398 94.1797C133.93 93.5078 135.711 93.1719 137.742 93.1719C139.539 93.1719 141.148 93.4609 142.57 94.0391C143.992 94.6172 145.195 95.4453 146.18 96.5234C147.18 97.6016 147.938 98.9062 148.453 100.438C148.984 101.969 149.25 103.688 149.25 105.594V108.805H128.531V103.859H141.539V103.25C141.555 102.406 141.406 101.688 141.094 101.094C140.797 100.5 140.359 100.047 139.781 99.7344C139.203 99.4219 138.5 99.2656 137.672 99.2656C136.812 99.2656 136.102 99.4531 135.539 99.8281C134.992 100.203 134.562 100.719 134.25 101.375C133.953 102.016 133.742 102.758 133.617 103.602C133.492 104.445 133.43 105.336 133.43 106.273V107.164C133.43 108.102 133.555 108.953 133.805 109.719C134.07 110.484 134.445 111.141 134.93 111.688C135.43 112.219 136.023 112.633 136.711 112.93C137.414 113.227 138.211 113.375 139.102 113.375C140.18 113.375 141.242 113.172 142.289 112.766C143.336 112.359 144.234 111.688 144.984 110.75L148.57 115.016C148.055 115.75 147.32 116.461 146.367 117.148C145.43 117.836 144.305 118.398 142.992 118.836C141.68 119.258 140.211 119.469 138.586 119.469ZM160.43 99.0078V119H152.531V93.6406H159.938L160.43 99.0078ZM159.469 105.453L157.664 105.5C157.664 103.719 157.875 102.078 158.297 100.578C158.719 99.0781 159.344 97.7734 160.172 96.6641C161 95.5547 162.016 94.6953 163.219 94.0859C164.438 93.4766 165.844 93.1719 167.438 93.1719C168.547 93.1719 169.555 93.3438 170.461 93.6875C171.367 94.0156 172.148 94.5391 172.805 95.2578C173.461 95.9609 173.961 96.8828 174.305 98.0234C174.664 99.1484 174.844 100.5 174.844 102.078V119H166.945V103.086C166.945 102.008 166.82 101.195 166.57 100.648C166.336 100.102 165.992 99.7344 165.539 99.5469C165.086 99.3594 164.531 99.2656 163.875 99.2656C163.188 99.2656 162.57 99.4219 162.023 99.7344C161.477 100.047 161.008 100.484 160.617 101.047C160.242 101.594 159.953 102.242 159.75 102.992C159.562 103.742 159.469 104.562 159.469 105.453ZM173.953 105.453L171.75 105.5C171.75 103.719 171.945 102.078 172.336 100.578C172.742 99.0781 173.344 97.7734 174.141 96.6641C174.953 95.5547 175.961 94.6953 177.164 94.0859C178.367 93.4766 179.766 93.1719 181.359 93.1719C182.516 93.1719 183.578 93.3438 184.547 93.6875C185.516 94.0312 186.352 94.5859 187.055 95.3516C187.758 96.1172 188.305 97.1328 188.695 98.3984C189.086 99.6484 189.281 101.195 189.281 103.039V119H181.359V103.039C181.359 101.992 181.234 101.203 180.984 100.672C180.75 100.125 180.406 99.7578 179.953 99.5703C179.5 99.3672 178.961 99.2656 178.336 99.2656C177.586 99.2656 176.938 99.4219 176.391 99.7344C175.844 100.047 175.383 100.484 175.008 101.047C174.648 101.594 174.383 102.242 174.211 102.992C174.039 103.742 173.953 104.562 173.953 105.453ZM192.82 106.578V106.086C192.82 104.227 193.086 102.516 193.617 100.953C194.148 99.375 194.93 98.0078 195.961 96.8516C196.992 95.6953 198.266 94.7969 199.781 94.1562C201.297 93.5 203.047 93.1719 205.031 93.1719C207.031 93.1719 208.789 93.5 210.305 94.1562C211.836 94.7969 213.117 95.6953 214.148 96.8516C215.18 98.0078 215.961 99.375 216.492 100.953C217.023 102.516 217.289 104.227 217.289 106.086V106.578C217.289 108.422 217.023 110.133 216.492 111.711C215.961 113.273 215.18 114.641 214.148 115.812C213.117 116.969 211.844 117.867 210.328 118.508C208.812 119.148 207.062 119.469 205.078 119.469C203.094 119.469 201.336 119.148 199.805 118.508C198.273 117.867 196.992 116.969 195.961 115.812C194.93 114.641 194.148 113.273 193.617 111.711C193.086 110.133 192.82 108.422 192.82 106.578ZM200.719 106.086V106.578C200.719 107.531 200.789 108.422 200.93 109.25C201.07 110.078 201.305 110.805 201.633 111.43C201.961 112.039 202.406 112.516 202.969 112.859C203.531 113.203 204.234 113.375 205.078 113.375C205.906 113.375 206.594 113.203 207.141 112.859C207.703 112.516 208.148 112.039 208.477 111.43C208.805 110.805 209.039 110.078 209.18 109.25C209.32 108.422 209.391 107.531 209.391 106.578V106.086C209.391 105.164 209.32 104.297 209.18 103.484C209.039 102.656 208.805 101.93 208.477 101.305C208.148 100.664 207.703 100.164 207.141 99.8047C206.578 99.4453 205.875 99.2656 205.031 99.2656C204.203 99.2656 203.508 99.4453 202.945 99.8047C202.398 100.164 201.961 100.664 201.633 101.305C201.305 101.93 201.07 102.656 200.93 103.484C200.789 104.297 200.719 105.164 200.719 106.086Z" fill="black"/>
<path d="M1134 0H1348C1356.28 0 1363 6.71573 1363 15V148C1363 156.284 1356.28 163 1348 163H1134V0Z" fill="#55ABE0"/>
<g clip-path="url(#clip0_3_73)">
<path d="M1254.36 58.1667H1219.31C1216.1 58.1667 1213.5 60.7674 1213.5 63.9757V99.0243C1213.5 102.233 1216.1 104.833 1219.31 104.833H1254.36C1257.57 104.833 1260.17 102.233 1260.17 99.0243V63.9757C1260.17 60.7674 1257.57 58.1667 1254.36 58.1667ZM1277.37 62.7483L1264.06 71.9358V91.0643L1277.37 100.24C1279.95 102.014 1283.5 100.203 1283.5 97.1042V65.8837C1283.5 62.7969 1279.96 60.974 1277.37 62.7483Z" fill="white"/>
</g>
<defs>
<clipPath id="clip0_3_73">
<rect width="70" height="70" fill="white" transform="translate(1213.5 46.5)"/>
</clipPath>
</defs>
</svg>
