<svg width="1363" height="163" viewBox="0 0 1363 163" fill="none" xmlns="http://www.w3.org/2000/svg">
<path d="M0 15C0 6.71573 6.71573 0 15 0H37V163H15C6.71573 163 0 156.284 0 148V15Z" fill="#55ABE0"/>
<rect width="1097" height="163" transform="translate(37)" fill="#F0F0F0"/>
<path d="M101.906 53.9219L94.3945 51.2383V48.0859L104.602 52.375V54.6367L101.906 53.9219ZM94.3945 56.1719L101.918 53.4297L104.602 52.7852V55.0352L94.3945 59.3242V56.1719ZM124.277 50.8867V53.6289H115.371V50.8867H124.277ZM116.414 43.9375V61H112.898V43.9375H116.414ZM126.785 43.9375V61H123.281V43.9375H126.785ZM136.477 58.1406V52.4922C136.477 52.0859 136.41 51.7383 136.277 51.4492C136.145 51.1523 135.938 50.9219 135.656 50.7578C135.383 50.5938 135.027 50.5117 134.59 50.5117C134.215 50.5117 133.891 50.5781 133.617 50.7109C133.344 50.8359 133.133 51.0195 132.984 51.2617C132.836 51.4961 132.762 51.7734 132.762 52.0938H129.387C129.387 51.5547 129.512 51.043 129.762 50.5586C130.012 50.0742 130.375 49.6484 130.852 49.2812C131.328 48.9062 131.895 48.6133 132.551 48.4023C133.215 48.1914 133.957 48.0859 134.777 48.0859C135.762 48.0859 136.637 48.25 137.402 48.5781C138.168 48.9062 138.77 49.3984 139.207 50.0547C139.652 50.7109 139.875 51.5312 139.875 52.5156V57.9414C139.875 58.6367 139.918 59.207 140.004 59.6523C140.09 60.0898 140.215 60.4727 140.379 60.8008V61H136.969C136.805 60.6562 136.68 60.2266 136.594 59.7109C136.516 59.1875 136.477 58.6641 136.477 58.1406ZM136.922 53.2773L136.945 55.1875H135.059C134.613 55.1875 134.227 55.2383 133.898 55.3398C133.57 55.4414 133.301 55.5859 133.09 55.7734C132.879 55.9531 132.723 56.1641 132.621 56.4062C132.527 56.6484 132.48 56.9141 132.48 57.2031C132.48 57.4922 132.547 57.7539 132.68 57.9883C132.812 58.2148 133.004 58.3945 133.254 58.5273C133.504 58.6523 133.797 58.7148 134.133 58.7148C134.641 58.7148 135.082 58.6133 135.457 58.4102C135.832 58.207 136.121 57.957 136.324 57.6602C136.535 57.3633 136.645 57.082 136.652 56.8164L137.543 58.2461C137.418 58.5664 137.246 58.8984 137.027 59.2422C136.816 59.5859 136.547 59.9102 136.219 60.2148C135.891 60.5117 135.496 60.7578 135.035 60.9531C134.574 61.1406 134.027 61.2344 133.395 61.2344C132.59 61.2344 131.859 61.0742 131.203 60.7539C130.555 60.4258 130.039 59.9766 129.656 59.4062C129.281 58.8281 129.094 58.1719 129.094 57.4375C129.094 56.7734 129.219 56.1836 129.469 55.668C129.719 55.1523 130.086 54.7188 130.57 54.3672C131.062 54.0078 131.676 53.7383 132.41 53.5586C133.145 53.3711 133.996 53.2773 134.965 53.2773H136.922ZM147.715 58.5977C148.129 58.5977 148.496 58.5195 148.816 58.3633C149.137 58.1992 149.387 57.9727 149.566 57.6836C149.754 57.3867 149.852 57.0391 149.859 56.6406H153.035C153.027 57.5312 152.789 58.3242 152.32 59.0195C151.852 59.707 151.223 60.25 150.434 60.6484C149.645 61.0391 148.762 61.2344 147.785 61.2344C146.801 61.2344 145.941 61.0703 145.207 60.7422C144.48 60.4141 143.875 59.9609 143.391 59.3828C142.906 58.7969 142.543 58.1172 142.301 57.3438C142.059 56.5625 141.938 55.7266 141.938 54.8359V54.4961C141.938 53.5977 142.059 52.7617 142.301 51.9883C142.543 51.207 142.906 50.5273 143.391 49.9492C143.875 49.3633 144.48 48.9062 145.207 48.5781C145.934 48.25 146.785 48.0859 147.762 48.0859C148.801 48.0859 149.711 48.2852 150.492 48.6836C151.281 49.082 151.898 49.6523 152.344 50.3945C152.797 51.1289 153.027 52 153.035 53.0078H149.859C149.852 52.5859 149.762 52.2031 149.59 51.8594C149.426 51.5156 149.184 51.2422 148.863 51.0391C148.551 50.8281 148.164 50.7227 147.703 50.7227C147.211 50.7227 146.809 50.8281 146.496 51.0391C146.184 51.2422 145.941 51.5234 145.77 51.8828C145.598 52.2344 145.477 52.6367 145.406 53.0898C145.344 53.5352 145.312 54.0039 145.312 54.4961V54.8359C145.312 55.3281 145.344 55.8008 145.406 56.2539C145.469 56.707 145.586 57.1094 145.758 57.4609C145.938 57.8125 146.184 58.0898 146.496 58.293C146.809 58.4961 147.215 58.5977 147.715 58.5977ZM158.367 42.9883V61H154.992V42.9883H158.367ZM166.359 48.3203L160.852 54.6016L157.898 57.5898L156.668 55.1523L159.012 52.1758L162.305 48.3203H166.359ZM162.855 61L159.105 55.1406L161.438 53.1016L166.746 61H162.855ZM175.652 43.9375V61H172.148V43.9375H175.652ZM180.902 43.9375V46.6914H166.98V43.9375H180.902ZM185.988 43V61H182.613V43H185.988ZM185.508 54.2148H184.582C184.59 53.332 184.707 52.5195 184.934 51.7773C185.16 51.0273 185.484 50.3789 185.906 49.832C186.328 49.2773 186.832 48.8477 187.418 48.543C188.012 48.2383 188.668 48.0859 189.387 48.0859C190.012 48.0859 190.578 48.1758 191.086 48.3555C191.602 48.5273 192.043 48.8086 192.41 49.1992C192.785 49.582 193.074 50.0859 193.277 50.7109C193.48 51.3359 193.582 52.0938 193.582 52.9844V61H190.184V52.9609C190.184 52.3984 190.102 51.957 189.938 51.6367C189.781 51.3086 189.551 51.0781 189.246 50.9453C188.949 50.8047 188.582 50.7344 188.145 50.7344C187.66 50.7344 187.246 50.8242 186.902 51.0039C186.566 51.1836 186.297 51.4336 186.094 51.7539C185.891 52.0664 185.742 52.4336 185.648 52.8555C185.555 53.2773 185.508 53.7305 185.508 54.2148ZM201.984 61.2344C201 61.2344 200.117 61.0781 199.336 60.7656C198.555 60.4453 197.891 60.0039 197.344 59.4414C196.805 58.8789 196.391 58.2266 196.102 57.4844C195.812 56.7344 195.668 55.9375 195.668 55.0938V54.625C195.668 53.6641 195.805 52.7852 196.078 51.9883C196.352 51.1914 196.742 50.5 197.25 49.9141C197.766 49.3281 198.391 48.8789 199.125 48.5664C199.859 48.2461 200.688 48.0859 201.609 48.0859C202.508 48.0859 203.305 48.2344 204 48.5312C204.695 48.8281 205.277 49.25 205.746 49.7969C206.223 50.3438 206.582 51 206.824 51.7656C207.066 52.5234 207.188 53.3672 207.188 54.2969V55.7031H197.109V53.4531H203.871V53.1953C203.871 52.7266 203.785 52.3086 203.613 51.9414C203.449 51.5664 203.199 51.2695 202.863 51.0508C202.527 50.832 202.098 50.7227 201.574 50.7227C201.129 50.7227 200.746 50.8203 200.426 51.0156C200.105 51.2109 199.844 51.4844 199.641 51.8359C199.445 52.1875 199.297 52.6016 199.195 53.0781C199.102 53.5469 199.055 54.0625 199.055 54.625V55.0938C199.055 55.6016 199.125 56.0703 199.266 56.5C199.414 56.9297 199.621 57.3008 199.887 57.6133C200.16 57.9258 200.488 58.168 200.871 58.3398C201.262 58.5117 201.703 58.5977 202.195 58.5977C202.805 58.5977 203.371 58.4805 203.895 58.2461C204.426 58.0039 204.883 57.6406 205.266 57.1562L206.906 58.9375C206.641 59.3203 206.277 59.6875 205.816 60.0391C205.363 60.3906 204.816 60.6797 204.176 60.9062C203.535 61.125 202.805 61.2344 201.984 61.2344ZM213.434 58.293L216.832 43.9375H218.73L219.164 46.3281L215.543 61H213.504L213.434 58.293ZM211.688 43.9375L214.5 58.293L214.266 61H211.992L208.207 43.9375H211.688ZM222.152 58.2344L224.93 43.9375H228.41L224.637 61H222.363L222.152 58.2344ZM219.797 43.9375L223.219 58.3516L223.125 61H221.086L217.441 46.3164L217.91 43.9375H219.797ZM235.57 61.2344C234.586 61.2344 233.703 61.0781 232.922 60.7656C232.141 60.4453 231.477 60.0039 230.93 59.4414C230.391 58.8789 229.977 58.2266 229.688 57.4844C229.398 56.7344 229.254 55.9375 229.254 55.0938V54.625C229.254 53.6641 229.391 52.7852 229.664 51.9883C229.938 51.1914 230.328 50.5 230.836 49.9141C231.352 49.3281 231.977 48.8789 232.711 48.5664C233.445 48.2461 234.273 48.0859 235.195 48.0859C236.094 48.0859 236.891 48.2344 237.586 48.5312C238.281 48.8281 238.863 49.25 239.332 49.7969C239.809 50.3438 240.168 51 240.41 51.7656C240.652 52.5234 240.773 53.3672 240.773 54.2969V55.7031H230.695V53.4531H237.457V53.1953C237.457 52.7266 237.371 52.3086 237.199 51.9414C237.035 51.5664 236.785 51.2695 236.449 51.0508C236.113 50.832 235.684 50.7227 235.16 50.7227C234.715 50.7227 234.332 50.8203 234.012 51.0156C233.691 51.2109 233.43 51.4844 233.227 51.8359C233.031 52.1875 232.883 52.6016 232.781 53.0781C232.688 53.5469 232.641 54.0625 232.641 54.625V55.0938C232.641 55.6016 232.711 56.0703 232.852 56.5C233 56.9297 233.207 57.3008 233.473 57.6133C233.746 57.9258 234.074 58.168 234.457 58.3398C234.848 58.5117 235.289 58.5977 235.781 58.5977C236.391 58.5977 236.957 58.4805 237.48 58.2461C238.012 58.0039 238.469 57.6406 238.852 57.1562L240.492 58.9375C240.227 59.3203 239.863 59.6875 239.402 60.0391C238.949 60.3906 238.402 60.6797 237.762 60.9062C237.121 61.125 236.391 61.2344 235.57 61.2344ZM242.695 43H246.07V58.0938L245.73 61H242.695V43ZM254.098 54.5312V54.7773C254.098 55.7227 253.996 56.5898 253.793 57.3789C253.598 58.168 253.293 58.8516 252.879 59.4297C252.465 60 251.949 60.4453 251.332 60.7656C250.723 61.0781 250.004 61.2344 249.176 61.2344C248.402 61.2344 247.73 61.0781 247.16 60.7656C246.598 60.4531 246.125 60.0117 245.742 59.4414C245.359 58.8711 245.051 58.2031 244.816 57.4375C244.582 56.6719 244.406 55.8359 244.289 54.9297V54.3906C244.406 53.4844 244.582 52.6484 244.816 51.8828C245.051 51.1172 245.359 50.4492 245.742 49.8789C246.125 49.3086 246.598 48.8672 247.16 48.5547C247.723 48.2422 248.387 48.0859 249.152 48.0859C249.988 48.0859 250.715 48.2461 251.332 48.5664C251.957 48.8789 252.473 49.3242 252.879 49.9023C253.293 50.4727 253.598 51.1523 253.793 51.9414C253.996 52.7227 254.098 53.5859 254.098 54.5312ZM250.723 54.7773V54.5312C250.723 54.0156 250.684 53.5312 250.605 53.0781C250.535 52.6172 250.41 52.2148 250.23 51.8711C250.051 51.5195 249.805 51.2422 249.492 51.0391C249.188 50.8359 248.793 50.7344 248.309 50.7344C247.848 50.7344 247.457 50.8125 247.137 50.9688C246.816 51.125 246.551 51.3438 246.34 51.625C246.137 51.9062 245.984 52.2422 245.883 52.6328C245.781 53.0156 245.719 53.4375 245.695 53.8984V55.4336C245.719 56.0508 245.82 56.5977 246 57.0742C246.188 57.543 246.469 57.9141 246.844 58.1875C247.227 58.4531 247.723 58.5859 248.332 58.5859C248.809 58.5859 249.203 58.4922 249.516 58.3047C249.828 58.1172 250.07 57.8516 250.242 57.5078C250.422 57.1641 250.547 56.7617 250.617 56.3008C250.688 55.832 250.723 55.3242 250.723 54.7773Z" fill="#888888"/>
<path d="M112.125 84.875V119H103.898V84.875H112.125ZM122.391 84.875V91.2266H93.8672V84.875H122.391ZM135.68 119.469C133.617 119.469 131.773 119.148 130.148 118.508C128.523 117.852 127.148 116.953 126.023 115.812C124.914 114.672 124.062 113.359 123.469 111.875C122.891 110.391 122.602 108.82 122.602 107.164V106.273C122.602 104.414 122.859 102.695 123.375 101.117C123.891 99.5234 124.656 98.1328 125.672 96.9453C126.688 95.7578 127.961 94.8359 129.492 94.1797C131.023 93.5078 132.805 93.1719 134.836 93.1719C136.633 93.1719 138.242 93.4609 139.664 94.0391C141.086 94.6172 142.289 95.4453 143.273 96.5234C144.273 97.6016 145.031 98.9062 145.547 100.438C146.078 101.969 146.344 103.688 146.344 105.594V108.805H125.625V103.859H138.633V103.25C138.648 102.406 138.5 101.688 138.188 101.094C137.891 100.5 137.453 100.047 136.875 99.7344C136.297 99.4219 135.594 99.2656 134.766 99.2656C133.906 99.2656 133.195 99.4531 132.633 99.8281C132.086 100.203 131.656 100.719 131.344 101.375C131.047 102.016 130.836 102.758 130.711 103.602C130.586 104.445 130.523 105.336 130.523 106.273V107.164C130.523 108.102 130.648 108.953 130.898 109.719C131.164 110.484 131.539 111.141 132.023 111.688C132.523 112.219 133.117 112.633 133.805 112.93C134.508 113.227 135.305 113.375 136.195 113.375C137.273 113.375 138.336 113.172 139.383 112.766C140.43 112.359 141.328 111.688 142.078 110.75L145.664 115.016C145.148 115.75 144.414 116.461 143.461 117.148C142.523 117.836 141.398 118.398 140.086 118.836C138.773 119.258 137.305 119.469 135.68 119.469ZM160.266 113.375C161 113.375 161.625 113.242 162.141 112.977C162.672 112.695 163.07 112.305 163.336 111.805C163.617 111.289 163.75 110.672 163.734 109.953H171.164C171.18 111.859 170.711 113.531 169.758 114.969C168.82 116.391 167.539 117.5 165.914 118.297C164.305 119.078 162.484 119.469 160.453 119.469C158.469 119.469 156.734 119.148 155.25 118.508C153.766 117.852 152.523 116.945 151.523 115.789C150.539 114.617 149.797 113.25 149.297 111.688C148.812 110.125 148.57 108.43 148.57 106.602V106.062C148.57 104.234 148.812 102.539 149.297 100.977C149.797 99.3984 150.539 98.0312 151.523 96.875C152.523 95.7031 153.758 94.7969 155.227 94.1562C156.711 93.5 158.438 93.1719 160.406 93.1719C162.516 93.1719 164.375 93.5703 165.984 94.3672C167.609 95.1641 168.883 96.3203 169.805 97.8359C170.727 99.3516 171.18 101.188 171.164 103.344H163.734C163.75 102.578 163.633 101.891 163.383 101.281C163.133 100.672 162.742 100.188 162.211 99.8281C161.695 99.4531 161.031 99.2656 160.219 99.2656C159.406 99.2656 158.75 99.4453 158.25 99.8047C157.75 100.164 157.367 100.664 157.102 101.305C156.852 101.93 156.68 102.648 156.586 103.461C156.508 104.273 156.469 105.141 156.469 106.062V106.602C156.469 107.539 156.508 108.422 156.586 109.25C156.68 110.062 156.859 110.781 157.125 111.406C157.391 112.016 157.773 112.5 158.273 112.859C158.773 113.203 159.438 113.375 160.266 113.375ZM182.273 83V119H174.375V83H182.273ZM181.336 105.453L179.484 105.5C179.484 103.719 179.703 102.078 180.141 100.578C180.578 99.0781 181.203 97.7734 182.016 96.6641C182.828 95.5547 183.805 94.6953 184.945 94.0859C186.086 93.4766 187.352 93.1719 188.742 93.1719C189.992 93.1719 191.133 93.3516 192.164 93.7109C193.211 94.0703 194.109 94.6484 194.859 95.4453C195.625 96.2422 196.211 97.2812 196.617 98.5625C197.039 99.8438 197.25 101.406 197.25 103.25V119H189.305V103.203C189.305 102.172 189.156 101.375 188.859 100.812C188.578 100.234 188.172 99.8359 187.641 99.6172C187.109 99.3828 186.461 99.2656 185.695 99.2656C184.773 99.2656 184.023 99.4219 183.445 99.7344C182.867 100.047 182.422 100.484 182.109 101.047C181.812 101.594 181.609 102.242 181.5 102.992C181.391 103.742 181.336 104.562 181.336 105.453ZM231.539 109.93C231.539 109.398 231.461 108.922 231.305 108.5C231.148 108.062 230.859 107.656 230.438 107.281C230.016 106.906 229.406 106.531 228.609 106.156C227.828 105.766 226.797 105.359 225.516 104.938C224.016 104.438 222.57 103.875 221.18 103.25C219.789 102.609 218.547 101.867 217.453 101.023C216.359 100.164 215.492 99.1641 214.852 98.0234C214.211 96.8672 213.891 95.5234 213.891 93.9922C213.891 92.5234 214.219 91.2031 214.875 90.0312C215.531 88.8438 216.445 87.8359 217.617 87.0078C218.805 86.1641 220.195 85.5234 221.789 85.0859C223.383 84.6328 225.125 84.4062 227.016 84.4062C229.516 84.4062 231.719 84.8438 233.625 85.7188C235.547 86.5781 237.047 87.8047 238.125 89.3984C239.219 90.9766 239.766 92.8438 239.766 95H231.586C231.586 94.1406 231.406 93.3828 231.047 92.7266C230.703 92.0703 230.18 91.5547 229.477 91.1797C228.773 90.8047 227.891 90.6172 226.828 90.6172C225.797 90.6172 224.93 90.7734 224.227 91.0859C223.523 91.3984 222.992 91.8203 222.633 92.3516C222.273 92.8672 222.094 93.4375 222.094 94.0625C222.094 94.5781 222.234 95.0469 222.516 95.4688C222.812 95.875 223.227 96.2578 223.758 96.6172C224.305 96.9766 224.961 97.3203 225.727 97.6484C226.508 97.9766 227.383 98.2969 228.352 98.6094C230.164 99.1875 231.773 99.8359 233.18 100.555C234.602 101.258 235.797 102.062 236.766 102.969C237.75 103.859 238.492 104.875 238.992 106.016C239.508 107.156 239.766 108.445 239.766 109.883C239.766 111.414 239.469 112.773 238.875 113.961C238.281 115.148 237.43 116.156 236.32 116.984C235.211 117.797 233.883 118.414 232.336 118.836C230.789 119.258 229.062 119.469 227.156 119.469C225.406 119.469 223.68 119.25 221.977 118.812C220.289 118.359 218.758 117.672 217.383 116.75C216.008 115.812 214.906 114.617 214.078 113.164C213.266 111.695 212.859 109.953 212.859 107.938H221.109C221.109 108.938 221.242 109.781 221.508 110.469C221.773 111.156 222.164 111.711 222.68 112.133C223.195 112.539 223.828 112.836 224.578 113.023C225.328 113.195 226.188 113.281 227.156 113.281C228.203 113.281 229.047 113.133 229.688 112.836C230.328 112.523 230.797 112.117 231.094 111.617C231.391 111.102 231.539 110.539 231.539 109.93ZM256.992 93.6406V99.125H241.711V93.6406H256.992ZM244.922 87.3359H252.82V110.727C252.82 111.398 252.898 111.922 253.055 112.297C253.211 112.656 253.477 112.914 253.852 113.07C254.242 113.211 254.758 113.281 255.398 113.281C255.852 113.281 256.227 113.273 256.523 113.258C256.82 113.227 257.102 113.188 257.367 113.141V118.789C256.695 119.008 255.992 119.172 255.258 119.281C254.523 119.406 253.742 119.469 252.914 119.469C251.227 119.469 249.781 119.203 248.578 118.672C247.391 118.141 246.484 117.305 245.859 116.164C245.234 115.023 244.922 113.539 244.922 111.711V87.3359ZM273.305 112.625V102.172C273.305 101.453 273.203 100.836 273 100.32C272.797 99.8047 272.477 99.4062 272.039 99.125C271.602 98.8281 271.016 98.6797 270.281 98.6797C269.688 98.6797 269.18 98.7812 268.758 98.9844C268.336 99.1875 268.016 99.4922 267.797 99.8984C267.578 100.305 267.469 100.82 267.469 101.445H259.57C259.57 100.273 259.828 99.1875 260.344 98.1875C260.875 97.1719 261.625 96.2891 262.594 95.5391C263.578 94.7891 264.75 94.2109 266.109 93.8047C267.484 93.3828 269.016 93.1719 270.703 93.1719C272.719 93.1719 274.516 93.5078 276.094 94.1797C277.688 94.8516 278.945 95.8594 279.867 97.2031C280.789 98.5312 281.25 100.203 281.25 102.219V112.602C281.25 114.258 281.344 115.516 281.531 116.375C281.719 117.219 281.984 117.961 282.328 118.602V119H274.406C274.031 118.219 273.75 117.266 273.562 116.141C273.391 115 273.305 113.828 273.305 112.625ZM274.266 103.508L274.312 107.727H270.82C270.086 107.727 269.461 107.828 268.945 108.031C268.445 108.234 268.039 108.516 267.727 108.875C267.43 109.219 267.211 109.609 267.07 110.047C266.945 110.484 266.883 110.945 266.883 111.43C266.883 111.898 266.992 112.32 267.211 112.695C267.445 113.055 267.758 113.336 268.148 113.539C268.539 113.742 268.977 113.844 269.461 113.844C270.336 113.844 271.078 113.68 271.688 113.352C272.312 113.008 272.789 112.594 273.117 112.109C273.445 111.625 273.609 111.172 273.609 110.75L275.344 113.984C275.031 114.609 274.672 115.242 274.266 115.883C273.875 116.523 273.383 117.117 272.789 117.664C272.211 118.195 271.5 118.633 270.656 118.977C269.812 119.305 268.789 119.469 267.586 119.469C266.023 119.469 264.586 119.148 263.273 118.508C261.977 117.867 260.938 116.977 260.156 115.836C259.375 114.68 258.984 113.352 258.984 111.852C258.984 110.539 259.219 109.367 259.688 108.336C260.172 107.305 260.898 106.43 261.867 105.711C262.836 104.992 264.07 104.445 265.57 104.07C267.07 103.695 268.836 103.508 270.867 103.508H274.266ZM296.344 113.375C297.078 113.375 297.703 113.242 298.219 112.977C298.75 112.695 299.148 112.305 299.414 111.805C299.695 111.289 299.828 110.672 299.812 109.953H307.242C307.258 111.859 306.789 113.531 305.836 114.969C304.898 116.391 303.617 117.5 301.992 118.297C300.383 119.078 298.562 119.469 296.531 119.469C294.547 119.469 292.812 119.148 291.328 118.508C289.844 117.852 288.602 116.945 287.602 115.789C286.617 114.617 285.875 113.25 285.375 111.688C284.891 110.125 284.648 108.43 284.648 106.602V106.062C284.648 104.234 284.891 102.539 285.375 100.977C285.875 99.3984 286.617 98.0312 287.602 96.875C288.602 95.7031 289.836 94.7969 291.305 94.1562C292.789 93.5 294.516 93.1719 296.484 93.1719C298.594 93.1719 300.453 93.5703 302.062 94.3672C303.688 95.1641 304.961 96.3203 305.883 97.8359C306.805 99.3516 307.258 101.188 307.242 103.344H299.812C299.828 102.578 299.711 101.891 299.461 101.281C299.211 100.672 298.82 100.188 298.289 99.8281C297.773 99.4531 297.109 99.2656 296.297 99.2656C295.484 99.2656 294.828 99.4453 294.328 99.8047C293.828 100.164 293.445 100.664 293.18 101.305C292.93 101.93 292.758 102.648 292.664 103.461C292.586 104.273 292.547 105.141 292.547 106.062V106.602C292.547 107.539 292.586 108.422 292.664 109.25C292.758 110.062 292.938 110.781 293.203 111.406C293.469 112.016 293.852 112.5 294.352 112.859C294.852 113.203 295.516 113.375 296.344 113.375ZM318.586 82.9766V119H310.688V82.9766H318.586ZM334.805 93.6406L323.789 106.555L318.023 112.32L314.578 107.305L319.383 101.047L325.336 93.6406H334.805ZM326.344 119L319.57 107.445L325.406 103.297L335.391 119H326.344Z" fill="black"/>
<path d="M1134 0H1348C1356.28 0 1363 6.71573 1363 15V148C1363 156.284 1356.28 163 1348 163H1134V0Z" fill="#55ABE0"/>
<path fill-rule="evenodd" clip-rule="evenodd" d="M1218.75 53C1218.62 53 1218.49 53.0527 1218.4 53.1464C1218.3 53.2402 1218.25 53.3674 1218.25 53.5V109.5C1218.25 109.633 1218.3 109.76 1218.4 109.854C1218.49 109.947 1218.62 110 1218.75 110H1278.25C1278.38 110 1278.51 109.947 1278.6 109.854C1278.7 109.76 1278.75 109.633 1278.75 109.5V64C1278.75 63.8674 1278.7 63.7402 1278.6 63.6464C1278.51 63.5527 1278.38 63.5 1278.25 63.5H1248.5C1247.61 63.5 1246.77 63.1045 1246.2 62.4206L1238.34 53H1218.75ZM1214.15 48.9038C1215.37 47.6848 1217.03 47 1218.75 47H1239.75C1240.64 47 1241.48 47.3955 1242.05 48.0794L1249.91 57.5H1278.25C1279.97 57.5 1281.63 58.1848 1282.85 59.4038C1284.07 60.6228 1284.75 62.2761 1284.75 64V109.5C1284.75 111.224 1284.07 112.877 1282.85 114.096C1281.63 115.315 1279.97 116 1278.25 116H1218.75C1217.03 116 1215.37 115.315 1214.15 114.096C1212.93 112.877 1212.25 111.224 1212.25 109.5V53.5C1212.25 51.7761 1212.93 50.1228 1214.15 48.9038Z" fill="white"/>
<path fill-rule="evenodd" clip-rule="evenodd" d="M1243.97 75.5251C1245.34 76.892 1245.34 79.108 1243.97 80.4749L1237.7 86.75L1243.97 93.0251C1245.34 94.392 1245.34 96.608 1243.97 97.9749C1242.61 99.3417 1240.39 99.3417 1239.03 97.9749L1230.28 89.2249C1228.91 87.858 1228.91 85.642 1230.28 84.2751L1239.03 75.5251C1240.39 74.1583 1242.61 74.1583 1243.97 75.5251Z" fill="white"/>
<path fill-rule="evenodd" clip-rule="evenodd" d="M1252.28 97.9749C1250.91 96.608 1250.91 94.392 1252.28 93.0251L1258.55 86.75L1252.28 80.4749C1250.91 79.108 1250.91 76.892 1252.28 75.5251C1253.64 74.1583 1255.86 74.1583 1257.22 75.5251L1265.97 84.2751C1267.34 85.642 1267.34 87.858 1265.97 89.2249L1257.22 97.9749C1255.86 99.3417 1253.64 99.3417 1252.28 97.9749Z" fill="white"/>
</svg>
