<svg width="1363" height="163" viewBox="0 0 1363 163" fill="none" xmlns="http://www.w3.org/2000/svg">
<path d="M0 15C0 6.71573 6.71573 0 15 0H37V163H15C6.71573 163 0 156.284 0 148V15Z" fill="#424242"/>
<rect width="1097" height="163" transform="translate(37)" fill="#F0F0F0"/>
<path d="M101.906 53.9219L94.3945 51.2383V48.0859L104.602 52.375V54.6367L101.906 53.9219ZM94.3945 56.1719L101.918 53.4297L104.602 52.7852V55.0352L94.3945 59.3242V56.1719ZM124.277 50.8867V53.6289H115.371V50.8867H124.277ZM116.414 43.9375V61H112.898V43.9375H116.414ZM126.785 43.9375V61H123.281V43.9375H126.785ZM136.477 58.1406V52.4922C136.477 52.0859 136.41 51.7383 136.277 51.4492C136.145 51.1523 135.938 50.9219 135.656 50.7578C135.383 50.5938 135.027 50.5117 134.59 50.5117C134.215 50.5117 133.891 50.5781 133.617 50.7109C133.344 50.8359 133.133 51.0195 132.984 51.2617C132.836 51.4961 132.762 51.7734 132.762 52.0938H129.387C129.387 51.5547 129.512 51.043 129.762 50.5586C130.012 50.0742 130.375 49.6484 130.852 49.2812C131.328 48.9062 131.895 48.6133 132.551 48.4023C133.215 48.1914 133.957 48.0859 134.777 48.0859C135.762 48.0859 136.637 48.25 137.402 48.5781C138.168 48.9062 138.77 49.3984 139.207 50.0547C139.652 50.7109 139.875 51.5312 139.875 52.5156V57.9414C139.875 58.6367 139.918 59.207 140.004 59.6523C140.09 60.0898 140.215 60.4727 140.379 60.8008V61H136.969C136.805 60.6562 136.68 60.2266 136.594 59.7109C136.516 59.1875 136.477 58.6641 136.477 58.1406ZM136.922 53.2773L136.945 55.1875H135.059C134.613 55.1875 134.227 55.2383 133.898 55.3398C133.57 55.4414 133.301 55.5859 133.09 55.7734C132.879 55.9531 132.723 56.1641 132.621 56.4062C132.527 56.6484 132.48 56.9141 132.48 57.2031C132.48 57.4922 132.547 57.7539 132.68 57.9883C132.812 58.2148 133.004 58.3945 133.254 58.5273C133.504 58.6523 133.797 58.7148 134.133 58.7148C134.641 58.7148 135.082 58.6133 135.457 58.4102C135.832 58.207 136.121 57.957 136.324 57.6602C136.535 57.3633 136.645 57.082 136.652 56.8164L137.543 58.2461C137.418 58.5664 137.246 58.8984 137.027 59.2422C136.816 59.5859 136.547 59.9102 136.219 60.2148C135.891 60.5117 135.496 60.7578 135.035 60.9531C134.574 61.1406 134.027 61.2344 133.395 61.2344C132.59 61.2344 131.859 61.0742 131.203 60.7539C130.555 60.4258 130.039 59.9766 129.656 59.4062C129.281 58.8281 129.094 58.1719 129.094 57.4375C129.094 56.7734 129.219 56.1836 129.469 55.668C129.719 55.1523 130.086 54.7188 130.57 54.3672C131.062 54.0078 131.676 53.7383 132.41 53.5586C133.145 53.3711 133.996 53.2773 134.965 53.2773H136.922ZM147.715 58.5977C148.129 58.5977 148.496 58.5195 148.816 58.3633C149.137 58.1992 149.387 57.9727 149.566 57.6836C149.754 57.3867 149.852 57.0391 149.859 56.6406H153.035C153.027 57.5312 152.789 58.3242 152.32 59.0195C151.852 59.707 151.223 60.25 150.434 60.6484C149.645 61.0391 148.762 61.2344 147.785 61.2344C146.801 61.2344 145.941 61.0703 145.207 60.7422C144.48 60.4141 143.875 59.9609 143.391 59.3828C142.906 58.7969 142.543 58.1172 142.301 57.3438C142.059 56.5625 141.938 55.7266 141.938 54.8359V54.4961C141.938 53.5977 142.059 52.7617 142.301 51.9883C142.543 51.207 142.906 50.5273 143.391 49.9492C143.875 49.3633 144.48 48.9062 145.207 48.5781C145.934 48.25 146.785 48.0859 147.762 48.0859C148.801 48.0859 149.711 48.2852 150.492 48.6836C151.281 49.082 151.898 49.6523 152.344 50.3945C152.797 51.1289 153.027 52 153.035 53.0078H149.859C149.852 52.5859 149.762 52.2031 149.59 51.8594C149.426 51.5156 149.184 51.2422 148.863 51.0391C148.551 50.8281 148.164 50.7227 147.703 50.7227C147.211 50.7227 146.809 50.8281 146.496 51.0391C146.184 51.2422 145.941 51.5234 145.77 51.8828C145.598 52.2344 145.477 52.6367 145.406 53.0898C145.344 53.5352 145.312 54.0039 145.312 54.4961V54.8359C145.312 55.3281 145.344 55.8008 145.406 56.2539C145.469 56.707 145.586 57.1094 145.758 57.4609C145.938 57.8125 146.184 58.0898 146.496 58.293C146.809 58.4961 147.215 58.5977 147.715 58.5977ZM158.367 42.9883V61H154.992V42.9883H158.367ZM166.359 48.3203L160.852 54.6016L157.898 57.5898L156.668 55.1523L159.012 52.1758L162.305 48.3203H166.359ZM162.855 61L159.105 55.1406L161.438 53.1016L166.746 61H162.855ZM175.652 43.9375V61H172.148V43.9375H175.652ZM180.902 43.9375V46.6914H166.98V43.9375H180.902ZM185.988 43V61H182.613V43H185.988ZM185.508 54.2148H184.582C184.59 53.332 184.707 52.5195 184.934 51.7773C185.16 51.0273 185.484 50.3789 185.906 49.832C186.328 49.2773 186.832 48.8477 187.418 48.543C188.012 48.2383 188.668 48.0859 189.387 48.0859C190.012 48.0859 190.578 48.1758 191.086 48.3555C191.602 48.5273 192.043 48.8086 192.41 49.1992C192.785 49.582 193.074 50.0859 193.277 50.7109C193.48 51.3359 193.582 52.0938 193.582 52.9844V61H190.184V52.9609C190.184 52.3984 190.102 51.957 189.938 51.6367C189.781 51.3086 189.551 51.0781 189.246 50.9453C188.949 50.8047 188.582 50.7344 188.145 50.7344C187.66 50.7344 187.246 50.8242 186.902 51.0039C186.566 51.1836 186.297 51.4336 186.094 51.7539C185.891 52.0664 185.742 52.4336 185.648 52.8555C185.555 53.2773 185.508 53.7305 185.508 54.2148ZM201.984 61.2344C201 61.2344 200.117 61.0781 199.336 60.7656C198.555 60.4453 197.891 60.0039 197.344 59.4414C196.805 58.8789 196.391 58.2266 196.102 57.4844C195.812 56.7344 195.668 55.9375 195.668 55.0938V54.625C195.668 53.6641 195.805 52.7852 196.078 51.9883C196.352 51.1914 196.742 50.5 197.25 49.9141C197.766 49.3281 198.391 48.8789 199.125 48.5664C199.859 48.2461 200.688 48.0859 201.609 48.0859C202.508 48.0859 203.305 48.2344 204 48.5312C204.695 48.8281 205.277 49.25 205.746 49.7969C206.223 50.3438 206.582 51 206.824 51.7656C207.066 52.5234 207.188 53.3672 207.188 54.2969V55.7031H197.109V53.4531H203.871V53.1953C203.871 52.7266 203.785 52.3086 203.613 51.9414C203.449 51.5664 203.199 51.2695 202.863 51.0508C202.527 50.832 202.098 50.7227 201.574 50.7227C201.129 50.7227 200.746 50.8203 200.426 51.0156C200.105 51.2109 199.844 51.4844 199.641 51.8359C199.445 52.1875 199.297 52.6016 199.195 53.0781C199.102 53.5469 199.055 54.0625 199.055 54.625V55.0938C199.055 55.6016 199.125 56.0703 199.266 56.5C199.414 56.9297 199.621 57.3008 199.887 57.6133C200.16 57.9258 200.488 58.168 200.871 58.3398C201.262 58.5117 201.703 58.5977 202.195 58.5977C202.805 58.5977 203.371 58.4805 203.895 58.2461C204.426 58.0039 204.883 57.6406 205.266 57.1562L206.906 58.9375C206.641 59.3203 206.277 59.6875 205.816 60.0391C205.363 60.3906 204.816 60.6797 204.176 60.9062C203.535 61.125 202.805 61.2344 201.984 61.2344ZM213.434 58.293L216.832 43.9375H218.73L219.164 46.3281L215.543 61H213.504L213.434 58.293ZM211.688 43.9375L214.5 58.293L214.266 61H211.992L208.207 43.9375H211.688ZM222.152 58.2344L224.93 43.9375H228.41L224.637 61H222.363L222.152 58.2344ZM219.797 43.9375L223.219 58.3516L223.125 61H221.086L217.441 46.3164L217.91 43.9375H219.797ZM235.57 61.2344C234.586 61.2344 233.703 61.0781 232.922 60.7656C232.141 60.4453 231.477 60.0039 230.93 59.4414C230.391 58.8789 229.977 58.2266 229.688 57.4844C229.398 56.7344 229.254 55.9375 229.254 55.0938V54.625C229.254 53.6641 229.391 52.7852 229.664 51.9883C229.938 51.1914 230.328 50.5 230.836 49.9141C231.352 49.3281 231.977 48.8789 232.711 48.5664C233.445 48.2461 234.273 48.0859 235.195 48.0859C236.094 48.0859 236.891 48.2344 237.586 48.5312C238.281 48.8281 238.863 49.25 239.332 49.7969C239.809 50.3438 240.168 51 240.41 51.7656C240.652 52.5234 240.773 53.3672 240.773 54.2969V55.7031H230.695V53.4531H237.457V53.1953C237.457 52.7266 237.371 52.3086 237.199 51.9414C237.035 51.5664 236.785 51.2695 236.449 51.0508C236.113 50.832 235.684 50.7227 235.16 50.7227C234.715 50.7227 234.332 50.8203 234.012 51.0156C233.691 51.2109 233.43 51.4844 233.227 51.8359C233.031 52.1875 232.883 52.6016 232.781 53.0781C232.688 53.5469 232.641 54.0625 232.641 54.625V55.0938C232.641 55.6016 232.711 56.0703 232.852 56.5C233 56.9297 233.207 57.3008 233.473 57.6133C233.746 57.9258 234.074 58.168 234.457 58.3398C234.848 58.5117 235.289 58.5977 235.781 58.5977C236.391 58.5977 236.957 58.4805 237.48 58.2461C238.012 58.0039 238.469 57.6406 238.852 57.1562L240.492 58.9375C240.227 59.3203 239.863 59.6875 239.402 60.0391C238.949 60.3906 238.402 60.6797 237.762 60.9062C237.121 61.125 236.391 61.2344 235.57 61.2344ZM242.695 43H246.07V58.0938L245.73 61H242.695V43ZM254.098 54.5312V54.7773C254.098 55.7227 253.996 56.5898 253.793 57.3789C253.598 58.168 253.293 58.8516 252.879 59.4297C252.465 60 251.949 60.4453 251.332 60.7656C250.723 61.0781 250.004 61.2344 249.176 61.2344C248.402 61.2344 247.73 61.0781 247.16 60.7656C246.598 60.4531 246.125 60.0117 245.742 59.4414C245.359 58.8711 245.051 58.2031 244.816 57.4375C244.582 56.6719 244.406 55.8359 244.289 54.9297V54.3906C244.406 53.4844 244.582 52.6484 244.816 51.8828C245.051 51.1172 245.359 50.4492 245.742 49.8789C246.125 49.3086 246.598 48.8672 247.16 48.5547C247.723 48.2422 248.387 48.0859 249.152 48.0859C249.988 48.0859 250.715 48.2461 251.332 48.5664C251.957 48.8789 252.473 49.3242 252.879 49.9023C253.293 50.4727 253.598 51.1523 253.793 51.9414C253.996 52.7227 254.098 53.5859 254.098 54.5312ZM250.723 54.7773V54.5312C250.723 54.0156 250.684 53.5312 250.605 53.0781C250.535 52.6172 250.41 52.2148 250.23 51.8711C250.051 51.5195 249.805 51.2422 249.492 51.0391C249.188 50.8359 248.793 50.7344 248.309 50.7344C247.848 50.7344 247.457 50.8125 247.137 50.9688C246.816 51.125 246.551 51.3438 246.34 51.625C246.137 51.9062 245.984 52.2422 245.883 52.6328C245.781 53.0156 245.719 53.4375 245.695 53.8984V55.4336C245.719 56.0508 245.82 56.5977 246 57.0742C246.188 57.543 246.469 57.9141 246.844 58.1875C247.227 58.4531 247.723 58.5859 248.332 58.5859C248.809 58.5859 249.203 58.4922 249.516 58.3047C249.828 58.1172 250.07 57.8516 250.242 57.5078C250.422 57.1641 250.547 56.7617 250.617 56.3008C250.688 55.832 250.723 55.3242 250.723 54.7773Z" fill="#888888"/>
<path d="M112.125 84.875V119H103.898V84.875H112.125ZM122.391 84.875V91.2266H93.8672V84.875H122.391ZM134.695 112.625V102.172C134.695 101.453 134.594 100.836 134.391 100.32C134.188 99.8047 133.867 99.4062 133.43 99.125C132.992 98.8281 132.406 98.6797 131.672 98.6797C131.078 98.6797 130.57 98.7812 130.148 98.9844C129.727 99.1875 129.406 99.4922 129.188 99.8984C128.969 100.305 128.859 100.82 128.859 101.445H120.961C120.961 100.273 121.219 99.1875 121.734 98.1875C122.266 97.1719 123.016 96.2891 123.984 95.5391C124.969 94.7891 126.141 94.2109 127.5 93.8047C128.875 93.3828 130.406 93.1719 132.094 93.1719C134.109 93.1719 135.906 93.5078 137.484 94.1797C139.078 94.8516 140.336 95.8594 141.258 97.2031C142.18 98.5312 142.641 100.203 142.641 102.219V112.602C142.641 114.258 142.734 115.516 142.922 116.375C143.109 117.219 143.375 117.961 143.719 118.602V119H135.797C135.422 118.219 135.141 117.266 134.953 116.141C134.781 115 134.695 113.828 134.695 112.625ZM135.656 103.508L135.703 107.727H132.211C131.477 107.727 130.852 107.828 130.336 108.031C129.836 108.234 129.43 108.516 129.117 108.875C128.82 109.219 128.602 109.609 128.461 110.047C128.336 110.484 128.273 110.945 128.273 111.43C128.273 111.898 128.383 112.32 128.602 112.695C128.836 113.055 129.148 113.336 129.539 113.539C129.93 113.742 130.367 113.844 130.852 113.844C131.727 113.844 132.469 113.68 133.078 113.352C133.703 113.008 134.18 112.594 134.508 112.109C134.836 111.625 135 111.172 135 110.75L136.734 113.984C136.422 114.609 136.062 115.242 135.656 115.883C135.266 116.523 134.773 117.117 134.18 117.664C133.602 118.195 132.891 118.633 132.047 118.977C131.203 119.305 130.18 119.469 128.977 119.469C127.414 119.469 125.977 119.148 124.664 118.508C123.367 117.867 122.328 116.977 121.547 115.836C120.766 114.68 120.375 113.352 120.375 111.852C120.375 110.539 120.609 109.367 121.078 108.336C121.562 107.305 122.289 106.43 123.258 105.711C124.227 104.992 125.461 104.445 126.961 104.07C128.461 103.695 130.227 103.508 132.258 103.508H135.656ZM147.094 83H154.992V112.766L154.172 119H147.094V83ZM170.555 106.039V106.531C170.555 108.453 170.359 110.203 169.969 111.781C169.578 113.359 168.977 114.727 168.164 115.883C167.352 117.023 166.328 117.906 165.094 118.531C163.859 119.156 162.398 119.469 160.711 119.469C159.18 119.469 157.867 119.141 156.773 118.484C155.68 117.812 154.766 116.891 154.031 115.719C153.297 114.531 152.703 113.164 152.25 111.617C151.797 110.055 151.438 108.383 151.172 106.602V106.016C151.438 104.25 151.797 102.594 152.25 101.047C152.703 99.4844 153.297 98.1172 154.031 96.9453C154.766 95.7578 155.672 94.8359 156.75 94.1797C157.844 93.5078 159.148 93.1719 160.664 93.1719C162.367 93.1719 163.836 93.4922 165.07 94.1328C166.32 94.7734 167.352 95.6719 168.164 96.8281C168.977 97.9844 169.578 99.3438 169.969 100.906C170.359 102.469 170.555 104.18 170.555 106.039ZM162.656 106.531V106.039C162.656 105.117 162.602 104.25 162.492 103.438C162.383 102.625 162.188 101.906 161.906 101.281C161.625 100.656 161.227 100.164 160.711 99.8047C160.195 99.4453 159.523 99.2656 158.695 99.2656C157.852 99.2656 157.141 99.4062 156.562 99.6875C156 99.9688 155.547 100.375 155.203 100.906C154.875 101.422 154.641 102.062 154.5 102.828C154.359 103.578 154.297 104.43 154.312 105.383V107.234C154.281 108.531 154.398 109.641 154.664 110.562C154.93 111.484 155.391 112.188 156.047 112.672C156.703 113.156 157.602 113.398 158.742 113.398C159.586 113.398 160.266 113.234 160.781 112.906C161.312 112.578 161.711 112.109 161.977 111.5C162.242 110.891 162.422 110.164 162.516 109.32C162.609 108.477 162.656 107.547 162.656 106.531ZM182.414 83V119H174.492V83H182.414ZM199.57 119.469C197.508 119.469 195.664 119.148 194.039 118.508C192.414 117.852 191.039 116.953 189.914 115.812C188.805 114.672 187.953 113.359 187.359 111.875C186.781 110.391 186.492 108.82 186.492 107.164V106.273C186.492 104.414 186.75 102.695 187.266 101.117C187.781 99.5234 188.547 98.1328 189.562 96.9453C190.578 95.7578 191.852 94.8359 193.383 94.1797C194.914 93.5078 196.695 93.1719 198.727 93.1719C200.523 93.1719 202.133 93.4609 203.555 94.0391C204.977 94.6172 206.18 95.4453 207.164 96.5234C208.164 97.6016 208.922 98.9062 209.438 100.438C209.969 101.969 210.234 103.688 210.234 105.594V108.805H189.516V103.859H202.523V103.25C202.539 102.406 202.391 101.688 202.078 101.094C201.781 100.5 201.344 100.047 200.766 99.7344C200.188 99.4219 199.484 99.2656 198.656 99.2656C197.797 99.2656 197.086 99.4531 196.523 99.8281C195.977 100.203 195.547 100.719 195.234 101.375C194.938 102.016 194.727 102.758 194.602 103.602C194.477 104.445 194.414 105.336 194.414 106.273V107.164C194.414 108.102 194.539 108.953 194.789 109.719C195.055 110.484 195.43 111.141 195.914 111.688C196.414 112.219 197.008 112.633 197.695 112.93C198.398 113.227 199.195 113.375 200.086 113.375C201.164 113.375 202.227 113.172 203.273 112.766C204.32 112.359 205.219 111.688 205.969 110.75L209.555 115.016C209.039 115.75 208.305 116.461 207.352 117.148C206.414 117.836 205.289 118.398 203.977 118.836C202.664 119.258 201.195 119.469 199.57 119.469ZM254.648 101.258V102.641C254.648 105.25 254.281 107.594 253.547 109.672C252.828 111.734 251.805 113.5 250.477 114.969C249.148 116.422 247.578 117.539 245.766 118.32C243.953 119.086 241.953 119.469 239.766 119.469C237.562 119.469 235.547 119.086 233.719 118.32C231.906 117.539 230.328 116.422 228.984 114.969C227.656 113.5 226.625 111.734 225.891 109.672C225.172 107.594 224.812 105.25 224.812 102.641V101.258C224.812 98.6484 225.172 96.3047 225.891 94.2266C226.625 92.1484 227.648 90.3828 228.961 88.9297C230.289 87.4609 231.859 86.3438 233.672 85.5781C235.5 84.7969 237.516 84.4062 239.719 84.4062C241.906 84.4062 243.906 84.7969 245.719 85.5781C247.547 86.3438 249.125 87.4609 250.453 88.9297C251.781 90.3828 252.812 92.1484 253.547 94.2266C254.281 96.3047 254.648 98.6484 254.648 101.258ZM246.305 102.641V101.211C246.305 99.5234 246.156 98.0391 245.859 96.7578C245.578 95.4609 245.156 94.375 244.594 93.5C244.031 92.625 243.336 91.9688 242.508 91.5312C241.695 91.0781 240.766 90.8516 239.719 90.8516C238.625 90.8516 237.672 91.0781 236.859 91.5312C236.047 91.9688 235.367 92.625 234.82 93.5C234.273 94.375 233.859 95.4609 233.578 96.7578C233.312 98.0391 233.18 99.5234 233.18 101.211V102.641C233.18 104.312 233.312 105.797 233.578 107.094C233.859 108.375 234.273 109.461 234.82 110.352C235.383 111.242 236.07 111.914 236.883 112.367C237.711 112.82 238.672 113.047 239.766 113.047C240.812 113.047 241.742 112.82 242.555 112.367C243.367 111.914 244.047 111.242 244.594 110.352C245.156 109.461 245.578 108.375 245.859 107.094C246.156 105.797 246.305 104.312 246.305 102.641ZM268.219 119H260.273V91.5781C260.273 89.6094 260.672 87.9531 261.469 86.6094C262.266 85.2656 263.391 84.25 264.844 83.5625C266.297 82.8594 268.016 82.5078 270 82.5078C270.688 82.5078 271.336 82.5547 271.945 82.6484C272.555 82.7422 273.148 82.8594 273.727 83L273.75 88.8125C273.469 88.7344 273.18 88.6797 272.883 88.6484C272.586 88.6172 272.219 88.6016 271.781 88.6016C271.016 88.6016 270.367 88.7188 269.836 88.9531C269.305 89.1719 268.898 89.5078 268.617 89.9609C268.352 90.3984 268.219 90.9375 268.219 91.5781V119ZM273.141 93.6406V99.125H256.617V93.6406H273.141ZM307.711 107.445H315.914C315.805 109.82 315.164 111.914 313.992 113.727C312.82 115.539 311.195 116.953 309.117 117.969C307.055 118.969 304.617 119.469 301.805 119.469C299.523 119.469 297.484 119.086 295.688 118.32C293.906 117.555 292.391 116.453 291.141 115.016C289.906 113.578 288.961 111.836 288.305 109.789C287.664 107.742 287.344 105.438 287.344 102.875V101.023C287.344 98.4609 287.68 96.1562 288.352 94.1094C289.039 92.0469 290.008 90.2969 291.258 88.8594C292.523 87.4062 294.039 86.2969 295.805 85.5312C297.57 84.7656 299.531 84.3828 301.688 84.3828C304.656 84.3828 307.164 84.9141 309.211 85.9766C311.258 87.0391 312.844 88.5 313.969 90.3594C315.094 92.2031 315.758 94.3047 315.961 96.6641H307.758C307.727 95.3828 307.508 94.3125 307.102 93.4531C306.695 92.5781 306.055 91.9219 305.18 91.4844C304.305 91.0469 303.141 90.8281 301.688 90.8281C300.672 90.8281 299.789 91.0156 299.039 91.3906C298.289 91.7656 297.664 92.3594 297.164 93.1719C296.664 93.9844 296.289 95.0391 296.039 96.3359C295.805 97.6172 295.688 99.1641 295.688 100.977V102.875C295.688 104.688 295.797 106.234 296.016 107.516C296.234 108.797 296.586 109.844 297.07 110.656C297.555 111.469 298.18 112.07 298.945 112.461C299.727 112.836 300.68 113.023 301.805 113.023C303.055 113.023 304.109 112.828 304.969 112.438C305.828 112.031 306.492 111.422 306.961 110.609C307.43 109.781 307.68 108.727 307.711 107.445ZM318.445 106.578V106.086C318.445 104.227 318.711 102.516 319.242 100.953C319.773 99.375 320.555 98.0078 321.586 96.8516C322.617 95.6953 323.891 94.7969 325.406 94.1562C326.922 93.5 328.672 93.1719 330.656 93.1719C332.656 93.1719 334.414 93.5 335.93 94.1562C337.461 94.7969 338.742 95.6953 339.773 96.8516C340.805 98.0078 341.586 99.375 342.117 100.953C342.648 102.516 342.914 104.227 342.914 106.086V106.578C342.914 108.422 342.648 110.133 342.117 111.711C341.586 113.273 340.805 114.641 339.773 115.812C338.742 116.969 337.469 117.867 335.953 118.508C334.438 119.148 332.688 119.469 330.703 119.469C328.719 119.469 326.961 119.148 325.43 118.508C323.898 117.867 322.617 116.969 321.586 115.812C320.555 114.641 319.773 113.273 319.242 111.711C318.711 110.133 318.445 108.422 318.445 106.578ZM326.344 106.086V106.578C326.344 107.531 326.414 108.422 326.555 109.25C326.695 110.078 326.93 110.805 327.258 111.43C327.586 112.039 328.031 112.516 328.594 112.859C329.156 113.203 329.859 113.375 330.703 113.375C331.531 113.375 332.219 113.203 332.766 112.859C333.328 112.516 333.773 112.039 334.102 111.43C334.43 110.805 334.664 110.078 334.805 109.25C334.945 108.422 335.016 107.531 335.016 106.578V106.086C335.016 105.164 334.945 104.297 334.805 103.484C334.664 102.656 334.43 101.93 334.102 101.305C333.773 100.664 333.328 100.164 332.766 99.8047C332.203 99.4453 331.5 99.2656 330.656 99.2656C329.828 99.2656 329.133 99.4453 328.57 99.8047C328.023 100.164 327.586 100.664 327.258 101.305C326.93 101.93 326.695 102.656 326.555 103.484C326.414 104.297 326.344 105.164 326.344 106.086ZM354.188 99.0547V119H346.289V93.6406H353.695L354.188 99.0547ZM353.25 105.453L351.398 105.5C351.398 103.562 351.633 101.836 352.102 100.32C352.57 98.7891 353.234 97.4922 354.094 96.4297C354.953 95.3672 355.977 94.5625 357.164 94.0156C358.367 93.4531 359.703 93.1719 361.172 93.1719C362.344 93.1719 363.414 93.3438 364.383 93.6875C365.367 94.0312 366.211 94.5859 366.914 95.3516C367.633 96.1172 368.18 97.1328 368.555 98.3984C368.945 99.6484 369.141 101.195 369.141 103.039V119H361.195V103.016C361.195 102 361.055 101.227 360.773 100.695C360.492 100.148 360.086 99.7734 359.555 99.5703C359.023 99.3672 358.375 99.2656 357.609 99.2656C356.797 99.2656 356.109 99.4219 355.547 99.7344C354.984 100.047 354.531 100.484 354.188 101.047C353.859 101.594 353.617 102.242 353.461 102.992C353.32 103.742 353.25 104.562 353.25 105.453ZM386.883 93.6406V99.125H371.602V93.6406H386.883ZM374.812 87.3359H382.711V110.727C382.711 111.398 382.789 111.922 382.945 112.297C383.102 112.656 383.367 112.914 383.742 113.07C384.133 113.211 384.648 113.281 385.289 113.281C385.742 113.281 386.117 113.273 386.414 113.258C386.711 113.227 386.992 113.188 387.258 113.141V118.789C386.586 119.008 385.883 119.172 385.148 119.281C384.414 119.406 383.633 119.469 382.805 119.469C381.117 119.469 379.672 119.203 378.469 118.672C377.281 118.141 376.375 117.305 375.75 116.164C375.125 115.023 374.812 113.539 374.812 111.711V87.3359ZM402.305 119.469C400.242 119.469 398.398 119.148 396.773 118.508C395.148 117.852 393.773 116.953 392.648 115.812C391.539 114.672 390.688 113.359 390.094 111.875C389.516 110.391 389.227 108.82 389.227 107.164V106.273C389.227 104.414 389.484 102.695 390 101.117C390.516 99.5234 391.281 98.1328 392.297 96.9453C393.312 95.7578 394.586 94.8359 396.117 94.1797C397.648 93.5078 399.43 93.1719 401.461 93.1719C403.258 93.1719 404.867 93.4609 406.289 94.0391C407.711 94.6172 408.914 95.4453 409.898 96.5234C410.898 97.6016 411.656 98.9062 412.172 100.438C412.703 101.969 412.969 103.688 412.969 105.594V108.805H392.25V103.859H405.258V103.25C405.273 102.406 405.125 101.688 404.812 101.094C404.516 100.5 404.078 100.047 403.5 99.7344C402.922 99.4219 402.219 99.2656 401.391 99.2656C400.531 99.2656 399.82 99.4531 399.258 99.8281C398.711 100.203 398.281 100.719 397.969 101.375C397.672 102.016 397.461 102.758 397.336 103.602C397.211 104.445 397.148 105.336 397.148 106.273V107.164C397.148 108.102 397.273 108.953 397.523 109.719C397.789 110.484 398.164 111.141 398.648 111.688C399.148 112.219 399.742 112.633 400.43 112.93C401.133 113.227 401.93 113.375 402.82 113.375C403.898 113.375 404.961 113.172 406.008 112.766C407.055 112.359 407.953 111.688 408.703 110.75L412.289 115.016C411.773 115.75 411.039 116.461 410.086 117.148C409.148 117.836 408.023 118.398 406.711 118.836C405.398 119.258 403.93 119.469 402.305 119.469ZM423.938 99.0547V119H416.039V93.6406H423.445L423.938 99.0547ZM423 105.453L421.148 105.5C421.148 103.562 421.383 101.836 421.852 100.32C422.32 98.7891 422.984 97.4922 423.844 96.4297C424.703 95.3672 425.727 94.5625 426.914 94.0156C428.117 93.4531 429.453 93.1719 430.922 93.1719C432.094 93.1719 433.164 93.3438 434.133 93.6875C435.117 94.0312 435.961 94.5859 436.664 95.3516C437.383 96.1172 437.93 97.1328 438.305 98.3984C438.695 99.6484 438.891 101.195 438.891 103.039V119H430.945V103.016C430.945 102 430.805 101.227 430.523 100.695C430.242 100.148 429.836 99.7734 429.305 99.5703C428.773 99.3672 428.125 99.2656 427.359 99.2656C426.547 99.2656 425.859 99.4219 425.297 99.7344C424.734 100.047 424.281 100.484 423.938 101.047C423.609 101.594 423.367 102.242 423.211 102.992C423.07 103.742 423 104.562 423 105.453ZM456.633 93.6406V99.125H441.352V93.6406H456.633ZM444.562 87.3359H452.461V110.727C452.461 111.398 452.539 111.922 452.695 112.297C452.852 112.656 453.117 112.914 453.492 113.07C453.883 113.211 454.398 113.281 455.039 113.281C455.492 113.281 455.867 113.273 456.164 113.258C456.461 113.227 456.742 113.188 457.008 113.141V118.789C456.336 119.008 455.633 119.172 454.898 119.281C454.164 119.406 453.383 119.469 452.555 119.469C450.867 119.469 449.422 119.203 448.219 118.672C447.031 118.141 446.125 117.305 445.5 116.164C444.875 115.023 444.562 113.539 444.562 111.711V87.3359ZM473.062 111.875C473.062 111.438 472.914 111.062 472.617 110.75C472.336 110.422 471.836 110.125 471.117 109.859C470.398 109.578 469.391 109.297 468.094 109.016C466.859 108.75 465.695 108.398 464.602 107.961C463.523 107.523 462.578 106.992 461.766 106.367C460.953 105.742 460.312 105 459.844 104.141C459.391 103.281 459.164 102.297 459.164 101.188C459.164 100.109 459.391 99.0938 459.844 98.1406C460.312 97.1719 460.992 96.3203 461.883 95.5859C462.789 94.8359 463.891 94.25 465.188 93.8281C466.484 93.3906 467.961 93.1719 469.617 93.1719C471.898 93.1719 473.867 93.5234 475.523 94.2266C477.18 94.9141 478.453 95.8828 479.344 97.1328C480.25 98.3672 480.703 99.7969 480.703 101.422H472.805C472.805 100.781 472.695 100.234 472.477 99.7812C472.273 99.3281 471.938 98.9844 471.469 98.75C471 98.5 470.375 98.375 469.594 98.375C469.047 98.375 468.547 98.4766 468.094 98.6797C467.656 98.8828 467.305 99.1641 467.039 99.5234C466.773 99.8828 466.641 100.305 466.641 100.789C466.641 101.133 466.719 101.445 466.875 101.727C467.047 101.992 467.305 102.242 467.648 102.477C467.992 102.695 468.43 102.898 468.961 103.086C469.492 103.258 470.133 103.414 470.883 103.555C472.586 103.867 474.18 104.312 475.664 104.891C477.148 105.469 478.352 106.289 479.273 107.352C480.211 108.414 480.68 109.844 480.68 111.641C480.68 112.766 480.422 113.805 479.906 114.758C479.391 115.695 478.648 116.523 477.68 117.242C476.711 117.945 475.547 118.492 474.188 118.883C472.828 119.273 471.297 119.469 469.594 119.469C467.172 119.469 465.125 119.039 463.453 118.18C461.781 117.305 460.516 116.211 459.656 114.898C458.812 113.57 458.391 112.227 458.391 110.867H465.75C465.781 111.648 465.969 112.289 466.312 112.789C466.672 113.289 467.148 113.656 467.742 113.891C468.336 114.125 469.023 114.242 469.805 114.242C470.523 114.242 471.117 114.141 471.586 113.938C472.07 113.734 472.438 113.461 472.688 113.117C472.938 112.758 473.062 112.344 473.062 111.875Z" fill="black"/>
<path d="M1134 0H1348C1356.28 0 1363 6.71573 1363 15V148C1363 156.284 1356.28 163 1348 163H1134V0Z" fill="#55ABE0"/>
<g clip-path="url(#clip0_5_25)">
<path d="M1287.88 95.7188V49.7812C1287.88 47.9629 1286.2 46.5 1284.12 46.5H1232.88C1224.59 46.5 1217.88 52.3789 1217.88 59.625V103.375C1217.88 110.621 1224.59 116.5 1232.88 116.5H1284.12C1286.2 116.5 1287.88 115.037 1287.88 113.219V111.031C1287.88 110.006 1287.33 109.076 1286.48 108.475C1285.83 106.369 1285.83 100.367 1286.48 98.2617C1287.33 97.6738 1287.88 96.7441 1287.88 95.7188ZM1237.88 64.8203C1237.88 64.3691 1238.3 64 1238.81 64H1271.94C1272.45 64 1272.88 64.3691 1272.88 64.8203V67.5547C1272.88 68.0059 1272.45 68.375 1271.94 68.375H1238.81C1238.3 68.375 1237.88 68.0059 1237.88 67.5547V64.8203ZM1237.88 73.5703C1237.88 73.1191 1238.3 72.75 1238.81 72.75H1271.94C1272.45 72.75 1272.88 73.1191 1272.88 73.5703V76.3047C1272.88 76.7559 1272.45 77.125 1271.94 77.125H1238.81C1238.3 77.125 1237.88 76.7559 1237.88 76.3047V73.5703ZM1277.47 107.75H1232.88C1230.11 107.75 1227.88 105.795 1227.88 103.375C1227.88 100.969 1230.12 99 1232.88 99H1277.47C1277.17 101.338 1277.17 105.412 1277.47 107.75Z" fill="white"/>
</g>
<defs>
<clipPath id="clip0_5_25">
<rect width="70" height="70" fill="white" transform="translate(1213.5 46.5)"/>
</clipPath>
</defs>
</svg>
