<svg width="1363" height="163" viewBox="0 0 1363 163" fill="none" xmlns="http://www.w3.org/2000/svg">
<path d="M0 15C0 6.71573 6.71573 0 15 0H37V163H15C6.71573 163 0 156.284 0 148V15Z" fill="#55ABE0"/>
<rect width="1097" height="163" transform="translate(37)" fill="#F0F0F0"/>
<path d="M101.906 53.9219L94.3945 51.2383V48.0859L104.602 52.375V54.6367L101.906 53.9219ZM94.3945 56.1719L101.918 53.4297L104.602 52.7852V55.0352L94.3945 59.3242V56.1719ZM124.277 50.8867V53.6289H115.371V50.8867H124.277ZM116.414 43.9375V61H112.898V43.9375H116.414ZM126.785 43.9375V61H123.281V43.9375H126.785ZM136.477 58.1406V52.4922C136.477 52.0859 136.41 51.7383 136.277 51.4492C136.145 51.1523 135.938 50.9219 135.656 50.7578C135.383 50.5938 135.027 50.5117 134.59 50.5117C134.215 50.5117 133.891 50.5781 133.617 50.7109C133.344 50.8359 133.133 51.0195 132.984 51.2617C132.836 51.4961 132.762 51.7734 132.762 52.0938H129.387C129.387 51.5547 129.512 51.043 129.762 50.5586C130.012 50.0742 130.375 49.6484 130.852 49.2812C131.328 48.9062 131.895 48.6133 132.551 48.4023C133.215 48.1914 133.957 48.0859 134.777 48.0859C135.762 48.0859 136.637 48.25 137.402 48.5781C138.168 48.9062 138.77 49.3984 139.207 50.0547C139.652 50.7109 139.875 51.5312 139.875 52.5156V57.9414C139.875 58.6367 139.918 59.207 140.004 59.6523C140.09 60.0898 140.215 60.4727 140.379 60.8008V61H136.969C136.805 60.6562 136.68 60.2266 136.594 59.7109C136.516 59.1875 136.477 58.6641 136.477 58.1406ZM136.922 53.2773L136.945 55.1875H135.059C134.613 55.1875 134.227 55.2383 133.898 55.3398C133.57 55.4414 133.301 55.5859 133.09 55.7734C132.879 55.9531 132.723 56.1641 132.621 56.4062C132.527 56.6484 132.48 56.9141 132.48 57.2031C132.48 57.4922 132.547 57.7539 132.68 57.9883C132.812 58.2148 133.004 58.3945 133.254 58.5273C133.504 58.6523 133.797 58.7148 134.133 58.7148C134.641 58.7148 135.082 58.6133 135.457 58.4102C135.832 58.207 136.121 57.957 136.324 57.6602C136.535 57.3633 136.645 57.082 136.652 56.8164L137.543 58.2461C137.418 58.5664 137.246 58.8984 137.027 59.2422C136.816 59.5859 136.547 59.9102 136.219 60.2148C135.891 60.5117 135.496 60.7578 135.035 60.9531C134.574 61.1406 134.027 61.2344 133.395 61.2344C132.59 61.2344 131.859 61.0742 131.203 60.7539C130.555 60.4258 130.039 59.9766 129.656 59.4062C129.281 58.8281 129.094 58.1719 129.094 57.4375C129.094 56.7734 129.219 56.1836 129.469 55.668C129.719 55.1523 130.086 54.7188 130.57 54.3672C131.062 54.0078 131.676 53.7383 132.41 53.5586C133.145 53.3711 133.996 53.2773 134.965 53.2773H136.922ZM147.715 58.5977C148.129 58.5977 148.496 58.5195 148.816 58.3633C149.137 58.1992 149.387 57.9727 149.566 57.6836C149.754 57.3867 149.852 57.0391 149.859 56.6406H153.035C153.027 57.5312 152.789 58.3242 152.32 59.0195C151.852 59.707 151.223 60.25 150.434 60.6484C149.645 61.0391 148.762 61.2344 147.785 61.2344C146.801 61.2344 145.941 61.0703 145.207 60.7422C144.48 60.4141 143.875 59.9609 143.391 59.3828C142.906 58.7969 142.543 58.1172 142.301 57.3438C142.059 56.5625 141.938 55.7266 141.938 54.8359V54.4961C141.938 53.5977 142.059 52.7617 142.301 51.9883C142.543 51.207 142.906 50.5273 143.391 49.9492C143.875 49.3633 144.48 48.9062 145.207 48.5781C145.934 48.25 146.785 48.0859 147.762 48.0859C148.801 48.0859 149.711 48.2852 150.492 48.6836C151.281 49.082 151.898 49.6523 152.344 50.3945C152.797 51.1289 153.027 52 153.035 53.0078H149.859C149.852 52.5859 149.762 52.2031 149.59 51.8594C149.426 51.5156 149.184 51.2422 148.863 51.0391C148.551 50.8281 148.164 50.7227 147.703 50.7227C147.211 50.7227 146.809 50.8281 146.496 51.0391C146.184 51.2422 145.941 51.5234 145.77 51.8828C145.598 52.2344 145.477 52.6367 145.406 53.0898C145.344 53.5352 145.312 54.0039 145.312 54.4961V54.8359C145.312 55.3281 145.344 55.8008 145.406 56.2539C145.469 56.707 145.586 57.1094 145.758 57.4609C145.938 57.8125 146.184 58.0898 146.496 58.293C146.809 58.4961 147.215 58.5977 147.715 58.5977ZM158.367 42.9883V61H154.992V42.9883H158.367ZM166.359 48.3203L160.852 54.6016L157.898 57.5898L156.668 55.1523L159.012 52.1758L162.305 48.3203H166.359ZM162.855 61L159.105 55.1406L161.438 53.1016L166.746 61H162.855ZM175.652 43.9375V61H172.148V43.9375H175.652ZM180.902 43.9375V46.6914H166.98V43.9375H180.902ZM185.988 43V61H182.613V43H185.988ZM185.508 54.2148H184.582C184.59 53.332 184.707 52.5195 184.934 51.7773C185.16 51.0273 185.484 50.3789 185.906 49.832C186.328 49.2773 186.832 48.8477 187.418 48.543C188.012 48.2383 188.668 48.0859 189.387 48.0859C190.012 48.0859 190.578 48.1758 191.086 48.3555C191.602 48.5273 192.043 48.8086 192.41 49.1992C192.785 49.582 193.074 50.0859 193.277 50.7109C193.48 51.3359 193.582 52.0938 193.582 52.9844V61H190.184V52.9609C190.184 52.3984 190.102 51.957 189.938 51.6367C189.781 51.3086 189.551 51.0781 189.246 50.9453C188.949 50.8047 188.582 50.7344 188.145 50.7344C187.66 50.7344 187.246 50.8242 186.902 51.0039C186.566 51.1836 186.297 51.4336 186.094 51.7539C185.891 52.0664 185.742 52.4336 185.648 52.8555C185.555 53.2773 185.508 53.7305 185.508 54.2148ZM201.984 61.2344C201 61.2344 200.117 61.0781 199.336 60.7656C198.555 60.4453 197.891 60.0039 197.344 59.4414C196.805 58.8789 196.391 58.2266 196.102 57.4844C195.812 56.7344 195.668 55.9375 195.668 55.0938V54.625C195.668 53.6641 195.805 52.7852 196.078 51.9883C196.352 51.1914 196.742 50.5 197.25 49.9141C197.766 49.3281 198.391 48.8789 199.125 48.5664C199.859 48.2461 200.688 48.0859 201.609 48.0859C202.508 48.0859 203.305 48.2344 204 48.5312C204.695 48.8281 205.277 49.25 205.746 49.7969C206.223 50.3438 206.582 51 206.824 51.7656C207.066 52.5234 207.188 53.3672 207.188 54.2969V55.7031H197.109V53.4531H203.871V53.1953C203.871 52.7266 203.785 52.3086 203.613 51.9414C203.449 51.5664 203.199 51.2695 202.863 51.0508C202.527 50.832 202.098 50.7227 201.574 50.7227C201.129 50.7227 200.746 50.8203 200.426 51.0156C200.105 51.2109 199.844 51.4844 199.641 51.8359C199.445 52.1875 199.297 52.6016 199.195 53.0781C199.102 53.5469 199.055 54.0625 199.055 54.625V55.0938C199.055 55.6016 199.125 56.0703 199.266 56.5C199.414 56.9297 199.621 57.3008 199.887 57.6133C200.16 57.9258 200.488 58.168 200.871 58.3398C201.262 58.5117 201.703 58.5977 202.195 58.5977C202.805 58.5977 203.371 58.4805 203.895 58.2461C204.426 58.0039 204.883 57.6406 205.266 57.1562L206.906 58.9375C206.641 59.3203 206.277 59.6875 205.816 60.0391C205.363 60.3906 204.816 60.6797 204.176 60.9062C203.535 61.125 202.805 61.2344 201.984 61.2344ZM213.434 58.293L216.832 43.9375H218.73L219.164 46.3281L215.543 61H213.504L213.434 58.293ZM211.688 43.9375L214.5 58.293L214.266 61H211.992L208.207 43.9375H211.688ZM222.152 58.2344L224.93 43.9375H228.41L224.637 61H222.363L222.152 58.2344ZM219.797 43.9375L223.219 58.3516L223.125 61H221.086L217.441 46.3164L217.91 43.9375H219.797ZM235.57 61.2344C234.586 61.2344 233.703 61.0781 232.922 60.7656C232.141 60.4453 231.477 60.0039 230.93 59.4414C230.391 58.8789 229.977 58.2266 229.688 57.4844C229.398 56.7344 229.254 55.9375 229.254 55.0938V54.625C229.254 53.6641 229.391 52.7852 229.664 51.9883C229.938 51.1914 230.328 50.5 230.836 49.9141C231.352 49.3281 231.977 48.8789 232.711 48.5664C233.445 48.2461 234.273 48.0859 235.195 48.0859C236.094 48.0859 236.891 48.2344 237.586 48.5312C238.281 48.8281 238.863 49.25 239.332 49.7969C239.809 50.3438 240.168 51 240.41 51.7656C240.652 52.5234 240.773 53.3672 240.773 54.2969V55.7031H230.695V53.4531H237.457V53.1953C237.457 52.7266 237.371 52.3086 237.199 51.9414C237.035 51.5664 236.785 51.2695 236.449 51.0508C236.113 50.832 235.684 50.7227 235.16 50.7227C234.715 50.7227 234.332 50.8203 234.012 51.0156C233.691 51.2109 233.43 51.4844 233.227 51.8359C233.031 52.1875 232.883 52.6016 232.781 53.0781C232.688 53.5469 232.641 54.0625 232.641 54.625V55.0938C232.641 55.6016 232.711 56.0703 232.852 56.5C233 56.9297 233.207 57.3008 233.473 57.6133C233.746 57.9258 234.074 58.168 234.457 58.3398C234.848 58.5117 235.289 58.5977 235.781 58.5977C236.391 58.5977 236.957 58.4805 237.48 58.2461C238.012 58.0039 238.469 57.6406 238.852 57.1562L240.492 58.9375C240.227 59.3203 239.863 59.6875 239.402 60.0391C238.949 60.3906 238.402 60.6797 237.762 60.9062C237.121 61.125 236.391 61.2344 235.57 61.2344ZM242.695 43H246.07V58.0938L245.73 61H242.695V43ZM254.098 54.5312V54.7773C254.098 55.7227 253.996 56.5898 253.793 57.3789C253.598 58.168 253.293 58.8516 252.879 59.4297C252.465 60 251.949 60.4453 251.332 60.7656C250.723 61.0781 250.004 61.2344 249.176 61.2344C248.402 61.2344 247.73 61.0781 247.16 60.7656C246.598 60.4531 246.125 60.0117 245.742 59.4414C245.359 58.8711 245.051 58.2031 244.816 57.4375C244.582 56.6719 244.406 55.8359 244.289 54.9297V54.3906C244.406 53.4844 244.582 52.6484 244.816 51.8828C245.051 51.1172 245.359 50.4492 245.742 49.8789C246.125 49.3086 246.598 48.8672 247.16 48.5547C247.723 48.2422 248.387 48.0859 249.152 48.0859C249.988 48.0859 250.715 48.2461 251.332 48.5664C251.957 48.8789 252.473 49.3242 252.879 49.9023C253.293 50.4727 253.598 51.1523 253.793 51.9414C253.996 52.7227 254.098 53.5859 254.098 54.5312ZM250.723 54.7773V54.5312C250.723 54.0156 250.684 53.5312 250.605 53.0781C250.535 52.6172 250.41 52.2148 250.23 51.8711C250.051 51.5195 249.805 51.2422 249.492 51.0391C249.188 50.8359 248.793 50.7344 248.309 50.7344C247.848 50.7344 247.457 50.8125 247.137 50.9688C246.816 51.125 246.551 51.3438 246.34 51.625C246.137 51.9062 245.984 52.2422 245.883 52.6328C245.781 53.0156 245.719 53.4375 245.695 53.8984V55.4336C245.719 56.0508 245.82 56.5977 246 57.0742C246.188 57.543 246.469 57.9141 246.844 58.1875C247.227 58.4531 247.723 58.5859 248.332 58.5859C248.809 58.5859 249.203 58.4922 249.516 58.3047C249.828 58.1172 250.07 57.8516 250.242 57.5078C250.422 57.1641 250.547 56.7617 250.617 56.3008C250.688 55.832 250.723 55.3242 250.723 54.7773Z" fill="#888888"/>
<path d="M109.219 107.422H100.734V101.07H109.219C110.375 101.07 111.312 100.875 112.031 100.484C112.75 100.094 113.273 99.5547 113.602 98.8672C113.945 98.1641 114.117 97.375 114.117 96.5C114.117 95.5625 113.945 94.6953 113.602 93.8984C113.273 93.1016 112.75 92.4609 112.031 91.9766C111.312 91.4766 110.375 91.2266 109.219 91.2266H103.828V119H95.6016V84.875H109.219C111.953 84.875 114.305 85.375 116.273 86.375C118.258 87.375 119.781 88.75 120.844 90.5C121.906 92.2344 122.438 94.2188 122.438 96.4531C122.438 98.6562 121.906 100.578 120.844 102.219C119.781 103.859 118.258 105.141 116.273 106.062C114.305 106.969 111.953 107.422 109.219 107.422ZM134.461 99.9219V119H126.562V93.6406H133.945L134.461 99.9219ZM141.961 93.4531L141.82 100.789C141.508 100.758 141.086 100.719 140.555 100.672C140.023 100.625 139.578 100.602 139.219 100.602C138.297 100.602 137.5 100.711 136.828 100.93C136.172 101.133 135.625 101.445 135.188 101.867C134.766 102.273 134.453 102.789 134.25 103.414C134.062 104.039 133.977 104.766 133.992 105.594L132.562 104.656C132.562 102.953 132.727 101.406 133.055 100.016C133.398 98.6094 133.883 97.3984 134.508 96.3828C135.133 95.3516 135.891 94.5625 136.781 94.0156C137.672 93.4531 138.672 93.1719 139.781 93.1719C140.172 93.1719 140.555 93.1953 140.93 93.2422C141.32 93.2891 141.664 93.3594 141.961 93.4531ZM142.852 106.578V106.086C142.852 104.227 143.117 102.516 143.648 100.953C144.18 99.375 144.961 98.0078 145.992 96.8516C147.023 95.6953 148.297 94.7969 149.812 94.1562C151.328 93.5 153.078 93.1719 155.062 93.1719C157.062 93.1719 158.82 93.5 160.336 94.1562C161.867 94.7969 163.148 95.6953 164.18 96.8516C165.211 98.0078 165.992 99.375 166.523 100.953C167.055 102.516 167.32 104.227 167.32 106.086V106.578C167.32 108.422 167.055 110.133 166.523 111.711C165.992 113.273 165.211 114.641 164.18 115.812C163.148 116.969 161.875 117.867 160.359 118.508C158.844 119.148 157.094 119.469 155.109 119.469C153.125 119.469 151.367 119.148 149.836 118.508C148.305 117.867 147.023 116.969 145.992 115.812C144.961 114.641 144.18 113.273 143.648 111.711C143.117 110.133 142.852 108.422 142.852 106.578ZM150.75 106.086V106.578C150.75 107.531 150.82 108.422 150.961 109.25C151.102 110.078 151.336 110.805 151.664 111.43C151.992 112.039 152.438 112.516 153 112.859C153.562 113.203 154.266 113.375 155.109 113.375C155.938 113.375 156.625 113.203 157.172 112.859C157.734 112.516 158.18 112.039 158.508 111.43C158.836 110.805 159.07 110.078 159.211 109.25C159.352 108.422 159.422 107.531 159.422 106.578V106.086C159.422 105.164 159.352 104.297 159.211 103.484C159.07 102.656 158.836 101.93 158.508 101.305C158.18 100.664 157.734 100.164 157.172 99.8047C156.609 99.4453 155.906 99.2656 155.062 99.2656C154.234 99.2656 153.539 99.4453 152.977 99.8047C152.43 100.164 151.992 100.664 151.664 101.305C151.336 101.93 151.102 102.656 150.961 103.484C150.82 104.297 150.75 105.164 150.75 106.086ZM184.195 93.6406V99.125H168.914V93.6406H184.195ZM172.125 87.3359H180.023V110.727C180.023 111.398 180.102 111.922 180.258 112.297C180.414 112.656 180.68 112.914 181.055 113.07C181.445 113.211 181.961 113.281 182.602 113.281C183.055 113.281 183.43 113.273 183.727 113.258C184.023 113.227 184.305 113.188 184.57 113.141V118.789C183.898 119.008 183.195 119.172 182.461 119.281C181.727 119.406 180.945 119.469 180.117 119.469C178.43 119.469 176.984 119.203 175.781 118.672C174.594 118.141 173.688 117.305 173.062 116.164C172.438 115.023 172.125 113.539 172.125 111.711V87.3359ZM185.648 106.578V106.086C185.648 104.227 185.914 102.516 186.445 100.953C186.977 99.375 187.758 98.0078 188.789 96.8516C189.82 95.6953 191.094 94.7969 192.609 94.1562C194.125 93.5 195.875 93.1719 197.859 93.1719C199.859 93.1719 201.617 93.5 203.133 94.1562C204.664 94.7969 205.945 95.6953 206.977 96.8516C208.008 98.0078 208.789 99.375 209.32 100.953C209.852 102.516 210.117 104.227 210.117 106.086V106.578C210.117 108.422 209.852 110.133 209.32 111.711C208.789 113.273 208.008 114.641 206.977 115.812C205.945 116.969 204.672 117.867 203.156 118.508C201.641 119.148 199.891 119.469 197.906 119.469C195.922 119.469 194.164 119.148 192.633 118.508C191.102 117.867 189.82 116.969 188.789 115.812C187.758 114.641 186.977 113.273 186.445 111.711C185.914 110.133 185.648 108.422 185.648 106.578ZM193.547 106.086V106.578C193.547 107.531 193.617 108.422 193.758 109.25C193.898 110.078 194.133 110.805 194.461 111.43C194.789 112.039 195.234 112.516 195.797 112.859C196.359 113.203 197.062 113.375 197.906 113.375C198.734 113.375 199.422 113.203 199.969 112.859C200.531 112.516 200.977 112.039 201.305 111.43C201.633 110.805 201.867 110.078 202.008 109.25C202.148 108.422 202.219 107.531 202.219 106.578V106.086C202.219 105.164 202.148 104.297 202.008 103.484C201.867 102.656 201.633 101.93 201.305 101.305C200.977 100.664 200.531 100.164 199.969 99.8047C199.406 99.4453 198.703 99.2656 197.859 99.2656C197.031 99.2656 196.336 99.4453 195.773 99.8047C195.227 100.164 194.789 100.664 194.461 101.305C194.133 101.93 193.898 102.656 193.758 103.484C193.617 104.297 193.547 105.164 193.547 106.086ZM226.992 93.6406V99.125H211.711V93.6406H226.992ZM214.922 87.3359H222.82V110.727C222.82 111.398 222.898 111.922 223.055 112.297C223.211 112.656 223.477 112.914 223.852 113.07C224.242 113.211 224.758 113.281 225.398 113.281C225.852 113.281 226.227 113.273 226.523 113.258C226.82 113.227 227.102 113.188 227.367 113.141V118.789C226.695 119.008 225.992 119.172 225.258 119.281C224.523 119.406 223.742 119.469 222.914 119.469C221.227 119.469 219.781 119.203 218.578 118.672C217.391 118.141 216.484 117.305 215.859 116.164C215.234 115.023 214.922 113.539 214.922 111.711V87.3359ZM237.914 116.023L244.477 93.6406H252.961L242.766 122.773C242.547 123.414 242.258 124.102 241.898 124.836C241.539 125.586 241.047 126.297 240.422 126.969C239.797 127.641 238.992 128.188 238.008 128.609C237.039 129.031 235.836 129.242 234.398 129.242C233.633 129.242 233.07 129.203 232.711 129.125C232.367 129.062 231.836 128.945 231.117 128.773V123.125C231.32 123.125 231.492 123.125 231.633 123.125C231.789 123.125 231.961 123.125 232.148 123.125C232.992 123.125 233.664 123.039 234.164 122.867C234.68 122.695 235.07 122.445 235.336 122.117C235.617 121.789 235.836 121.391 235.992 120.922L237.914 116.023ZM236.25 93.6406L241.242 111.383L242.109 119.75H236.812L227.789 93.6406H236.25ZM262.992 98.5156V128.75H255.094V93.6406H262.453L262.992 98.5156ZM278.555 106.016V106.508C278.555 108.352 278.344 110.062 277.922 111.641C277.5 113.219 276.875 114.594 276.047 115.766C275.219 116.938 274.188 117.852 272.953 118.508C271.734 119.148 270.32 119.469 268.711 119.469C267.195 119.469 265.891 119.133 264.797 118.461C263.703 117.789 262.789 116.859 262.055 115.672C261.32 114.484 260.727 113.125 260.273 111.594C259.82 110.062 259.461 108.445 259.195 106.742V106.109C259.461 104.281 259.82 102.586 260.273 101.023C260.727 99.4453 261.32 98.0703 262.055 96.8984C262.789 95.7266 263.695 94.8125 264.773 94.1562C265.867 93.5 267.172 93.1719 268.688 93.1719C270.297 93.1719 271.711 93.4766 272.93 94.0859C274.164 94.6953 275.195 95.5703 276.023 96.7109C276.867 97.8359 277.5 99.1875 277.922 100.766C278.344 102.344 278.555 104.094 278.555 106.016ZM270.656 106.508V106.016C270.656 105.031 270.586 104.133 270.445 103.32C270.305 102.492 270.078 101.773 269.766 101.164C269.469 100.555 269.07 100.086 268.57 99.7578C268.07 99.4297 267.453 99.2656 266.719 99.2656C265.875 99.2656 265.164 99.3984 264.586 99.6641C264.023 99.9141 263.57 100.305 263.227 100.836C262.898 101.352 262.664 102 262.523 102.781C262.398 103.547 262.344 104.445 262.359 105.477V107.398C262.328 108.586 262.445 109.633 262.711 110.539C262.977 111.43 263.438 112.125 264.094 112.625C264.75 113.125 265.641 113.375 266.766 113.375C267.516 113.375 268.141 113.203 268.641 112.859C269.141 112.5 269.539 112.008 269.836 111.383C270.133 110.742 270.344 110.008 270.469 109.18C270.594 108.352 270.656 107.461 270.656 106.508ZM290.414 93.6406V119H282.492V93.6406H290.414ZM282.023 87.1016C282.023 85.9766 282.43 85.0547 283.242 84.3359C284.055 83.6172 285.109 83.2578 286.406 83.2578C287.703 83.2578 288.758 83.6172 289.57 84.3359C290.383 85.0547 290.789 85.9766 290.789 87.1016C290.789 88.2266 290.383 89.1484 289.57 89.8672C288.758 90.5859 287.703 90.9453 286.406 90.9453C285.109 90.9453 284.055 90.5859 283.242 89.8672C282.43 89.1484 282.023 88.2266 282.023 87.1016ZM303.047 99.0547V119H295.148V93.6406H302.555L303.047 99.0547ZM302.109 105.453L300.258 105.5C300.258 103.562 300.492 101.836 300.961 100.32C301.43 98.7891 302.094 97.4922 302.953 96.4297C303.812 95.3672 304.836 94.5625 306.023 94.0156C307.227 93.4531 308.562 93.1719 310.031 93.1719C311.203 93.1719 312.273 93.3438 313.242 93.6875C314.227 94.0312 315.07 94.5859 315.773 95.3516C316.492 96.1172 317.039 97.1328 317.414 98.3984C317.805 99.6484 318 101.195 318 103.039V119H310.055V103.016C310.055 102 309.914 101.227 309.633 100.695C309.352 100.148 308.945 99.7734 308.414 99.5703C307.883 99.3672 307.234 99.2656 306.469 99.2656C305.656 99.2656 304.969 99.4219 304.406 99.7344C303.844 100.047 303.391 100.484 303.047 101.047C302.719 101.594 302.477 102.242 302.32 102.992C302.18 103.742 302.109 104.562 302.109 105.453ZM338.32 93.6406H345.492V118.016C345.492 120.359 344.953 122.344 343.875 123.969C342.797 125.609 341.289 126.852 339.352 127.695C337.43 128.555 335.18 128.984 332.602 128.984C331.461 128.984 330.297 128.836 329.109 128.539C327.922 128.258 326.812 127.836 325.781 127.273C324.75 126.711 323.883 126.016 323.18 125.188L326.484 120.547C327.125 121.266 327.93 121.875 328.898 122.375C329.867 122.891 331.008 123.148 332.32 123.148C333.461 123.148 334.414 122.945 335.18 122.539C335.961 122.133 336.555 121.539 336.961 120.758C337.367 119.992 337.57 119.062 337.57 117.969V99.6406L338.32 93.6406ZM321.469 106.625V106.133C321.469 104.211 321.703 102.461 322.172 100.883C322.656 99.2891 323.344 97.9219 324.234 96.7812C325.141 95.625 326.234 94.7344 327.516 94.1094C328.797 93.4844 330.242 93.1719 331.852 93.1719C333.586 93.1719 335.008 93.5078 336.117 94.1797C337.242 94.8359 338.141 95.7578 338.812 96.9453C339.5 98.1328 340.031 99.5234 340.406 101.117C340.797 102.695 341.125 104.398 341.391 106.227V106.812C341.125 108.531 340.758 110.156 340.289 111.688C339.836 113.203 339.242 114.547 338.508 115.719C337.773 116.891 336.852 117.812 335.742 118.484C334.648 119.141 333.336 119.469 331.805 119.469C330.211 119.469 328.773 119.148 327.492 118.508C326.227 117.867 325.141 116.969 324.234 115.812C323.344 114.656 322.656 113.297 322.172 111.734C321.703 110.172 321.469 108.469 321.469 106.625ZM329.367 106.133V106.625C329.367 107.578 329.453 108.461 329.625 109.273C329.812 110.086 330.094 110.805 330.469 111.43C330.844 112.039 331.305 112.516 331.852 112.859C332.414 113.203 333.07 113.375 333.82 113.375C334.961 113.375 335.883 113.133 336.586 112.648C337.289 112.164 337.797 111.477 338.109 110.586C338.422 109.695 338.555 108.648 338.508 107.445V105.594C338.539 104.562 338.469 103.656 338.297 102.875C338.125 102.078 337.852 101.414 337.477 100.883C337.117 100.352 336.633 99.9531 336.023 99.6875C335.43 99.4062 334.711 99.2656 333.867 99.2656C333.133 99.2656 332.484 99.4375 331.922 99.7812C331.359 100.125 330.891 100.609 330.516 101.234C330.141 101.844 329.852 102.57 329.648 103.414C329.461 104.242 329.367 105.148 329.367 106.133Z" fill="black"/>
<path d="M1134 0H1348C1356.28 0 1363 6.71573 1363 15V148C1363 156.284 1356.28 163 1348 163H1134V0Z" fill="#55ABE0"/>
<path fill-rule="evenodd" clip-rule="evenodd" d="M1202.75 46.5018C1202.75 45.3973 1203.65 44.5018 1204.75 44.5018H1292.25C1293.35 44.5018 1294.25 45.3973 1294.25 46.5018V116.498C1294.25 117.603 1293.35 118.498 1292.25 118.498H1204.75C1203.65 118.498 1202.75 117.603 1202.75 116.498V46.5018ZM1206.75 48.5018V52.9963H1290.25V48.5018H1206.75ZM1290.25 56.9963H1235.19V114.498H1290.25V56.9963ZM1231.19 114.498V56.9963H1206.75V114.498H1231.19Z" fill="white"/>
<path fill-rule="evenodd" clip-rule="evenodd" d="M1209.72 62.3022C1209.72 61.1976 1210.62 60.3022 1211.72 60.3022H1225.72C1226.83 60.3022 1227.72 61.1976 1227.72 62.3022V81.6974C1227.72 82.802 1226.83 83.6974 1225.72 83.6974H1211.72C1210.62 83.6974 1209.72 82.802 1209.72 81.6974V62.3022ZM1213.72 64.3022V79.6974H1223.72V64.3022H1213.72ZM1239.33 63.1982C1239.33 62.0936 1240.22 61.1982 1241.33 61.1982H1284.25C1285.36 61.1982 1286.25 62.0936 1286.25 63.1982V109.407C1286.25 110.511 1285.36 111.407 1284.25 111.407H1241.33C1240.22 111.407 1239.33 110.511 1239.33 109.407V63.1982ZM1243.33 65.1982V107.407H1282.25V65.1982H1243.33ZM1209.56 93.4381C1209.56 92.3335 1210.46 91.4381 1211.56 91.4381H1220.48C1221.59 91.4381 1222.48 92.3335 1222.48 93.4381C1222.48 94.5427 1221.59 95.4381 1220.48 95.4381H1211.56C1210.46 95.4381 1209.56 94.5427 1209.56 93.4381ZM1209.56 100.438C1209.56 99.3335 1210.46 98.4381 1211.56 98.4381H1226.1C1227.21 98.4381 1228.1 99.3335 1228.1 100.438C1228.1 101.543 1227.21 102.438 1226.1 102.438H1211.56C1210.46 102.438 1209.56 101.543 1209.56 100.438ZM1209.56 107.438C1209.56 106.334 1210.46 105.438 1211.56 105.438H1220.48C1221.59 105.438 1222.48 106.334 1222.48 107.438C1222.48 108.543 1221.59 109.438 1220.48 109.438H1211.56C1210.46 109.438 1209.56 108.543 1209.56 107.438Z" fill="white"/>
</svg>
